solid model
facet normal 0.0 0.0 -1.0
outer loop
vertex 5.19615242270663 6.0 0.0
vertex -5.19615242270663 3.0 0.0
vertex -5.19615242270663 6.0 0.0
endloop
endfacet
facet normal 0.0 0.0 -1.0
outer loop
vertex -5.19615242270663 3.0 0.0
vertex 5.19615242270663 6.0 0.0
vertex -1.78922579211603 3.09902997815764 0.0
endloop
endfacet
facet normal 0.0 0.0 -1.0
outer loop
vertex -5.19615242270663 3.0 0.0
vertex -1.78922579211603 3.09902997815764 0.0
vertex -2.53034738135823 2.53034738135823 0.0
endloop
endfacet
facet normal 0.0 0.0 -1.0
outer loop
vertex -5.19615242270663 3.0 0.0
vertex -2.53034738135823 2.53034738135823 0.0
vertex -3.09902997815763 1.78922579211603 0.0
endloop
endfacet
facet normal 0.0 0.0 -1.0
outer loop
vertex -5.19615242270663 3.0 0.0
vertex -3.09902997815763 1.78922579211603 0.0
vertex -3.45651880333478 0.926171421976543 0.0
endloop
endfacet
facet normal 0.0 0.0 -1.0
outer loop
vertex -5.19615242270663 3.0 0.0
vertex -3.45651880333478 0.926171421976543 0.0
vertex -3.57845158423206 5.82719636432749e-15 0.0
endloop
endfacet
facet normal 0.0 0.0 -1.0
outer loop
vertex -1.78922579211603 3.09902997815764 0.0
vertex 5.19615242270663 6.0 0.0
vertex -0.926171421976546 3.45651880333478 0.0
endloop
endfacet
facet normal 0.0 0.0 -1.0
outer loop
vertex -0.926171421976546 3.45651880333478 0.0
vertex 5.19615242270663 6.0 0.0
vertex -4.4502596052709e-15 3.57845158423206 0.0
endloop
endfacet
facet normal 0.0 0.0 -1.0
outer loop
vertex -4.4502596052709e-15 3.57845158423206 0.0
vertex 5.19615242270663 6.0 0.0
vertex 0.926171421976548 3.45651880333478 0.0
endloop
endfacet
facet normal 0.0 0.0 -1.0
outer loop
vertex 0.926171421976548 3.45651880333478 0.0
vertex 5.19615242270663 6.0 0.0
vertex 1.78922579211603 3.09902997815763 0.0
endloop
endfacet
facet normal 0.0 0.0 -1.0
outer loop
vertex 1.78922579211603 3.09902997815763 0.0
vertex 5.19615242270663 6.0 0.0
vertex 2.53034738135823 2.53034738135824 0.0
endloop
endfacet
facet normal 0.0 0.0 -1.0
outer loop
vertex 2.53034738135823 2.53034738135824 0.0
vertex 5.19615242270663 6.0 0.0
vertex 3.09902997815764 1.78922579211603 0.0
endloop
endfacet
facet normal 0.0 0.0 -1.0
outer loop
vertex 3.09902997815764 1.78922579211603 0.0
vertex 5.19615242270663 6.0 0.0
vertex 3.45651880333478 0.926171421976545 0.0
endloop
endfacet
facet normal 0.0 0.0 -1.0
outer loop
vertex 3.45651880333478 0.926171421976545 0.0
vertex 5.19615242270663 6.0 0.0
vertex 3.57845158423206 3.74526798463393e-15 0.0
endloop
endfacet
facet normal 0.0 0.0 -1.0
outer loop
vertex 3.57845158423206 3.74526798463393e-15 0.0
vertex 5.19615242270663 6.0 0.0
vertex 5.19615242270663 -3.0 0.0
endloop
endfacet
facet normal 0.0 0.0 -1.0
outer loop
vertex 5.19615242270663 -3.0 0.0
vertex 5.19615242270663 6.0 0.0
vertex 5.19615242270663 3.0 0.0
endloop
endfacet
facet normal 0.0 0.0 -1.0
outer loop
vertex -5.19615242270663 3.0 0.0
vertex -3.0 -15.5784515842321 0.0
vertex -5.19615242270663 -3.0 0.0
endloop
endfacet
facet normal 0.0 0.0 -1.0
outer loop
vertex -3.0 -15.5784515842321 0.0
vertex -5.19615242270663 3.0 0.0
vertex -3.57845158423206 5.82719636432749e-15 0.0
endloop
endfacet
facet normal 0.0 0.0 -1.0
outer loop
vertex -3.0 -15.5784515842321 0.0
vertex -3.57845158423206 5.82719636432749e-15 0.0
vertex -3.45651880333478 -0.926171421976546 0.0
endloop
endfacet
facet normal 0.0 0.0 -1.0
outer loop
vertex -3.0 -15.5784515842321 0.0
vertex -3.45651880333478 -0.926171421976546 0.0
vertex -3.09902997815763 -1.78922579211603 0.0
endloop
endfacet
facet normal 0.0 0.0 -1.0
outer loop
vertex -3.0 -15.5784515842321 0.0
vertex -3.09902997815763 -1.78922579211603 0.0
vertex -2.53034738135823 -2.53034738135824 0.0
endloop
endfacet
facet normal 0.0 0.0 -1.0
outer loop
vertex -3.0 -15.5784515842321 0.0
vertex -2.53034738135823 -2.53034738135824 0.0
vertex 3.0 -15.5784515842321 0.0
endloop
endfacet
facet normal 0.0 0.0 -1.0
outer loop
vertex 3.0 -15.5784515842321 0.0
vertex -2.53034738135823 -2.53034738135824 0.0
vertex -2.0 -2.93729724007838 0.0
endloop
endfacet
facet normal 0.0 0.0 -1.0
outer loop
vertex 3.0 -15.5784515842321 0.0
vertex -2.0 -2.93729724007838 0.0
vertex -1.78922579211603 -3.09902997815763 0.0
endloop
endfacet
facet normal 0.0 0.0 -1.0
outer loop
vertex 3.0 -15.5784515842321 0.0
vertex -1.78922579211603 -3.09902997815763 0.0
vertex -0.926171421976551 -3.45651880333478 0.0
endloop
endfacet
facet normal 0.0 0.0 -1.0
outer loop
vertex 3.0 -15.5784515842321 0.0
vertex -0.926171421976551 -3.45651880333478 0.0
vertex -3.71222150241657e-15 -3.57845158423206 0.0
endloop
endfacet
facet normal 0.0 0.0 -1.0
outer loop
vertex 3.0 -15.5784515842321 0.0
vertex -3.71222150241657e-15 -3.57845158423206 0.0
vertex 0.926171421976545 -3.45651880333478 0.0
endloop
endfacet
facet normal 0.0 0.0 -1.0
outer loop
vertex 3.0 -15.5784515842321 0.0
vertex 0.926171421976545 -3.45651880333478 0.0
vertex 1.78922579211603 -3.09902997815764 0.0
endloop
endfacet
facet normal 0.0 0.0 -1.0
outer loop
vertex 3.0 -15.5784515842321 0.0
vertex 1.78922579211603 -3.09902997815764 0.0
vertex 2.0 -2.93729724007838 0.0
endloop
endfacet
facet normal 0.0 0.0 -1.0
outer loop
vertex 3.0 -15.5784515842321 0.0
vertex 2.0 -2.93729724007838 0.0
vertex 2.53034738135823 -2.53034738135823 0.0
endloop
endfacet
facet normal 0.0 0.0 -1.0
outer loop
vertex 3.0 -15.5784515842321 0.0
vertex 2.53034738135823 -2.53034738135823 0.0
vertex 3.09902997815763 -1.78922579211603 0.0
endloop
endfacet
facet normal 0.0 0.0 -1.0
outer loop
vertex 3.0 -15.5784515842321 0.0
vertex 3.09902997815763 -1.78922579211603 0.0
vertex 5.19615242270663 -3.0 0.0
endloop
endfacet
facet normal 0.0 0.0 -1.0
outer loop
vertex 5.19615242270663 -3.0 0.0
vertex 3.09902997815763 -1.78922579211603 0.0
vertex 3.45651880333478 -0.926171421976553 0.0
endloop
endfacet
facet normal 0.0 0.0 -1.0
outer loop
vertex 5.19615242270663 -3.0 0.0
vertex 3.45651880333478 -0.926171421976553 0.0
vertex 3.57845158423206 3.74526798463393e-15 0.0
endloop
endfacet
facet normal -0.0 -0.0 1.0
outer loop
vertex -2.0 -4.84529946162075 12.0
vertex -5.19615242270663 3.0 12.0
vertex -5.19615242270663 -3.0 12.0
endloop
endfacet
facet normal -0.0 -0.0 1.0
outer loop
vertex -5.19615242270663 3.0 12.0
vertex -2.0 -4.84529946162075 12.0
vertex -3.45651880333478 -0.926171421976546 12.0
endloop
endfacet
facet normal -0.0 -0.0 1.0
outer loop
vertex -5.19615242270663 3.0 12.0
vertex -3.45651880333478 -0.926171421976546 12.0
vertex -5.19615242270663 6.0 12.0
endloop
endfacet
facet normal -0.0 -0.0 1.0
outer loop
vertex -5.19615242270663 6.0 12.0
vertex -3.45651880333478 -0.926171421976546 12.0
vertex -3.57845158423206 5.82719636432749e-15 12.0
endloop
endfacet
facet normal -0.0 -0.0 1.0
outer loop
vertex -3.45651880333478 -0.926171421976546 12.0
vertex -2.0 -4.84529946162075 12.0
vertex -3.09902997815763 -1.78922579211603 12.0
endloop
endfacet
facet normal -0.0 -0.0 1.0
outer loop
vertex -3.09902997815763 -1.78922579211603 12.0
vertex -2.0 -4.84529946162075 12.0
vertex -2.53034738135823 -2.53034738135824 12.0
endloop
endfacet
facet normal -0.0 -0.0 1.0
outer loop
vertex -2.53034738135823 -2.53034738135824 12.0
vertex -2.0 -4.84529946162075 12.0
vertex -2.0 -2.93729724007838 12.0
endloop
endfacet
facet normal -0.0 -0.0 1.0
outer loop
vertex -2.0 -2.93729724007838 12.0
vertex -2.0 -4.84529946162075 12.0
vertex -1.78922579211603 -3.09902997815763 12.0
endloop
endfacet
facet normal -0.0 -0.0 1.0
outer loop
vertex -1.78922579211603 -3.09902997815763 12.0
vertex -2.0 -4.84529946162075 12.0
vertex -2.0 -9.57845158423206 12.0
endloop
endfacet
facet normal -0.0 -0.0 1.0
outer loop
vertex -1.78922579211603 -3.09902997815763 12.0
vertex -2.0 -9.57845158423206 12.0
vertex 2.0 -9.57845158423206 12.0
endloop
endfacet
facet normal -0.0 -0.0 1.0
outer loop
vertex -1.78922579211603 -3.09902997815763 12.0
vertex 2.0 -9.57845158423206 12.0
vertex -0.926171421976551 -3.45651880333478 12.0
endloop
endfacet
facet normal -0.0 -0.0 1.0
outer loop
vertex -0.926171421976551 -3.45651880333478 12.0
vertex 2.0 -9.57845158423206 12.0
vertex -3.71222150241657e-15 -3.57845158423206 12.0
endloop
endfacet
facet normal -0.0 -0.0 1.0
outer loop
vertex -3.71222150241657e-15 -3.57845158423206 12.0
vertex 2.0 -9.57845158423206 12.0
vertex 0.926171421976545 -3.45651880333478 12.0
endloop
endfacet
facet normal -0.0 -0.0 1.0
outer loop
vertex 0.926171421976545 -3.45651880333478 12.0
vertex 2.0 -9.57845158423206 12.0
vertex 1.78922579211603 -3.09902997815764 12.0
endloop
endfacet
facet normal -0.0 -0.0 1.0
outer loop
vertex 1.78922579211603 -3.09902997815764 12.0
vertex 2.0 -9.57845158423206 12.0
vertex 2.0 -2.93729724007838 12.0
endloop
endfacet
facet normal -0.0 -0.0 1.0
outer loop
vertex 2.0 -2.93729724007838 12.0
vertex 2.0 -9.57845158423206 12.0
vertex 2.0 -4.84529946162075 12.0
endloop
endfacet
facet normal -0.0 -0.0 1.0
outer loop
vertex 2.0 -2.93729724007838 12.0
vertex 2.0 -4.84529946162075 12.0
vertex 5.19615242270663 -3.0 12.0
endloop
endfacet
facet normal -0.0 -0.0 1.0
outer loop
vertex 2.0 -2.93729724007838 12.0
vertex 5.19615242270663 -3.0 12.0
vertex 2.53034738135823 -2.53034738135823 12.0
endloop
endfacet
facet normal -0.0 -0.0 1.0
outer loop
vertex 2.53034738135823 -2.53034738135823 12.0
vertex 5.19615242270663 -3.0 12.0
vertex 3.09902997815763 -1.78922579211603 12.0
endloop
endfacet
facet normal -0.0 -0.0 1.0
outer loop
vertex 3.09902997815763 -1.78922579211603 12.0
vertex 5.19615242270663 -3.0 12.0
vertex 3.45651880333478 -0.926171421976553 12.0
endloop
endfacet
facet normal -0.0 -0.0 1.0
outer loop
vertex 3.45651880333478 -0.926171421976553 12.0
vertex 5.19615242270663 -3.0 12.0
vertex 3.57845158423206 3.74526798463393e-15 12.0
endloop
endfacet
facet normal -0.0 -0.0 1.0
outer loop
vertex -5.19615242270663 6.0 12.0
vertex -1.78922579211603 3.09902997815764 12.0
vertex 5.19615242270663 6.0 12.0
endloop
endfacet
facet normal -0.0 -0.0 1.0
outer loop
vertex -1.78922579211603 3.09902997815764 12.0
vertex -5.19615242270663 6.0 12.0
vertex -2.53034738135823 2.53034738135823 12.0
endloop
endfacet
facet normal -0.0 -0.0 1.0
outer loop
vertex -2.53034738135823 2.53034738135823 12.0
vertex -5.19615242270663 6.0 12.0
vertex -3.09902997815763 1.78922579211603 12.0
endloop
endfacet
facet normal -0.0 -0.0 1.0
outer loop
vertex -3.09902997815763 1.78922579211603 12.0
vertex -5.19615242270663 6.0 12.0
vertex -3.45651880333478 0.926171421976543 12.0
endloop
endfacet
facet normal -0.0 -0.0 1.0
outer loop
vertex -3.45651880333478 0.926171421976543 12.0
vertex -5.19615242270663 6.0 12.0
vertex -3.57845158423206 5.82719636432749e-15 12.0
endloop
endfacet
facet normal -0.0 -0.0 1.0
outer loop
vertex 5.19615242270663 6.0 12.0
vertex -1.78922579211603 3.09902997815764 12.0
vertex -0.926171421976546 3.45651880333478 12.0
endloop
endfacet
facet normal -0.0 -0.0 1.0
outer loop
vertex 5.19615242270663 6.0 12.0
vertex -0.926171421976546 3.45651880333478 12.0
vertex -4.4502596052709e-15 3.57845158423206 12.0
endloop
endfacet
facet normal -0.0 -0.0 1.0
outer loop
vertex 5.19615242270663 6.0 12.0
vertex -4.4502596052709e-15 3.57845158423206 12.0
vertex 0.926171421976548 3.45651880333478 12.0
endloop
endfacet
facet normal -0.0 -0.0 1.0
outer loop
vertex 5.19615242270663 6.0 12.0
vertex 0.926171421976548 3.45651880333478 12.0
vertex 1.78922579211603 3.09902997815763 12.0
endloop
endfacet
facet normal -0.0 -0.0 1.0
outer loop
vertex 5.19615242270663 6.0 12.0
vertex 1.78922579211603 3.09902997815763 12.0
vertex 2.53034738135823 2.53034738135824 12.0
endloop
endfacet
facet normal -0.0 -0.0 1.0
outer loop
vertex 5.19615242270663 6.0 12.0
vertex 2.53034738135823 2.53034738135824 12.0
vertex 3.09902997815764 1.78922579211603 12.0
endloop
endfacet
facet normal -0.0 -0.0 1.0
outer loop
vertex 5.19615242270663 6.0 12.0
vertex 3.09902997815764 1.78922579211603 12.0
vertex 3.45651880333478 0.926171421976545 12.0
endloop
endfacet
facet normal -0.0 -0.0 1.0
outer loop
vertex 5.19615242270663 6.0 12.0
vertex 3.45651880333478 0.926171421976545 12.0
vertex 3.57845158423206 3.74526798463393e-15 12.0
endloop
endfacet
facet normal -0.0 -0.0 1.0
outer loop
vertex 5.19615242270663 6.0 12.0
vertex 3.57845158423206 3.74526798463393e-15 12.0
vertex 5.19615242270663 -3.0 12.0
endloop
endfacet
facet normal -0.0 -0.0 1.0
outer loop
vertex 5.19615242270663 6.0 12.0
vertex 5.19615242270663 -3.0 12.0
vertex 5.19615242270663 3.0 12.0
endloop
endfacet
facet normal 0.5 -0.866025403784439 0.0
outer loop
vertex 5.19615242270663 -3.0 12.0
vertex 2.0 -4.84529946162075 2.0
vertex 5.19615242270663 -3.0 2.0
endloop
endfacet
facet normal 0.5 -0.866025403784439 0.0
outer loop
vertex 2.0 -4.84529946162075 2.0
vertex 5.19615242270663 -3.0 12.0
vertex 2.0 -4.84529946162075 12.0
endloop
endfacet
facet normal -1.0 1.41970290679829e-17 1.00867485060064e-17
outer loop
vertex -2.0 -15.5271207524749 6.78315715332031
vertex -2.0 -15.5784515842321 2.0
vertex -2.0 -15.5784515842321 6.0
endloop
endfacet
facet normal -1.0 1.41970290679829e-17 1.00867485060064e-17
outer loop
vertex -2.0 -15.5784515842321 2.0
vertex -2.0 -15.5271207524749 6.78315715332031
vertex -2.0 -4.84529946162075 2.0
endloop
endfacet
facet normal -1.0 1.41970290679829e-17 1.00867485060064e-17
outer loop
vertex -2.0 -4.84529946162075 2.0
vertex -2.0 -15.5271207524749 6.78315715332031
vertex -2.0 -15.3740065419665 7.55291427061512
endloop
endfacet
facet normal -1.0 1.41970290679829e-17 1.00867485060064e-17
outer loop
vertex -2.0 -4.84529946162075 2.0
vertex -2.0 -15.3740065419665 7.55291427061512
vertex -2.0 -15.1217287792998 8.29610059419054
endloop
endfacet
facet normal -1.0 1.41970290679829e-17 1.00867485060064e-17
outer loop
vertex -2.0 -4.84529946162075 2.0
vertex -2.0 -15.1217287792998 8.29610059419054
vertex -2.0 -14.7746040069387 9.0
endloop
endfacet
facet normal -1.0 1.41970290679829e-17 1.00867485060064e-17
outer loop
vertex -2.0 -4.84529946162075 2.0
vertex -2.0 -14.7746040069387 9.0
vertex -2.0 -14.3385716259795 9.65256857405232
endloop
endfacet
facet normal -1.0 1.41970290679829e-17 1.00867485060064e-17
outer loop
vertex -2.0 -4.84529946162075 2.0
vertex -2.0 -14.3385716259795 9.65256857405232
vertex -2.0 -13.8210922713513 10.2426406871193
endloop
endfacet
facet normal -1.0 1.41970290679829e-17 1.00867485060064e-17
outer loop
vertex -2.0 -4.84529946162075 2.0
vertex -2.0 -13.8210922713513 10.2426406871193
vertex -2.0 -13.2310201582844 10.7601200417474
endloop
endfacet
facet normal -1.0 1.41970290679829e-17 1.00867485060064e-17
outer loop
vertex -2.0 -4.84529946162075 2.0
vertex -2.0 -13.2310201582844 10.7601200417474
vertex -2.0 -12.5784515842321 11.1961524227066
endloop
endfacet
facet normal -1.0 1.41970290679829e-17 1.00867485060064e-17
outer loop
vertex -2.0 -4.84529946162075 2.0
vertex -2.0 -12.5784515842321 11.1961524227066
vertex -2.0 -11.8745521784226 11.5432771950677
endloop
endfacet
facet normal -1.0 1.41970290679829e-17 1.00867485060064e-17
outer loop
vertex -2.0 -4.84529946162075 2.0
vertex -2.0 -11.8745521784226 11.5432771950677
vertex -2.0 -11.1313658548472 11.7955549577344
endloop
endfacet
facet normal -1.0 1.41970290679829e-17 1.00867485060064e-17
outer loop
vertex -2.0 -4.84529946162075 2.0
vertex -2.0 -11.1313658548472 11.7955549577344
vertex -2.0 -10.3616087375524 11.9486691682429
endloop
endfacet
facet normal -1.0 1.41970290679829e-17 1.00867485060064e-17
outer loop
vertex -2.0 -4.84529946162075 2.0
vertex -2.0 -10.3616087375524 11.9486691682429
vertex -2.0 -9.57845158423206 12.0
endloop
endfacet
facet normal -1.0 1.41970290679829e-17 1.00867485060064e-17
outer loop
vertex -2.0 -4.84529946162075 2.0
vertex -2.0 -9.57845158423206 12.0
vertex -2.0 -4.84529946162075 12.0
endloop
endfacet
facet normal -0.5 -0.866025403784438 -0.0
outer loop
vertex -2.0 -4.84529946162075 12.0
vertex -5.19615242270663 -3.0 2.0
vertex -2.0 -4.84529946162075 2.0
endloop
endfacet
facet normal -0.5 -0.866025403784438 -0.0
outer loop
vertex -5.19615242270663 -3.0 2.0
vertex -2.0 -4.84529946162075 12.0
vertex -5.19615242270663 -3.0 12.0
endloop
endfacet
facet normal -0.0 1.0 0.0
outer loop
vertex -5.19615242270663 6.0 12.0
vertex 5.19615242270663 6.0 0.0
vertex -5.19615242270663 6.0 0.0
endloop
endfacet
facet normal -0.0 1.0 0.0
outer loop
vertex 5.19615242270663 6.0 0.0
vertex -5.19615242270663 6.0 12.0
vertex 5.19615242270663 6.0 12.0
endloop
endfacet
facet normal 1.0 -8.58760214304139e-17 -6.06183680685272e-19
outer loop
vertex 5.19615242270663 3.0 0.0
vertex 5.19615242270663 -3.0 2.0
vertex 5.19615242270663 -3.0 0.0
endloop
endfacet
facet normal 1.0 -8.58760214304139e-17 -6.06183680685272e-19
outer loop
vertex 5.19615242270663 -3.0 2.0
vertex 5.19615242270663 3.0 0.0
vertex 5.19615242270663 -3.0 12.0
endloop
endfacet
facet normal 1.0 -8.58760214304139e-17 -6.06183680685272e-19
outer loop
vertex 5.19615242270663 -3.0 12.0
vertex 5.19615242270663 3.0 0.0
vertex 5.19615242270663 3.0 12.0
endloop
endfacet
facet normal 1.0 -8.58760214304139e-17 -6.06183680685272e-19
outer loop
vertex 5.19615242270663 3.0 12.0
vertex 5.19615242270663 3.0 0.0
vertex 5.19615242270663 6.0 0.0
endloop
endfacet
facet normal 1.0 -8.58760214304139e-17 -6.06183680685272e-19
outer loop
vertex 5.19615242270663 3.0 12.0
vertex 5.19615242270663 6.0 0.0
vertex 5.19615242270663 6.0 12.0
endloop
endfacet
facet normal 0.608761429008721 0.793353340291235 0.0
outer loop
vertex -2.53034738135823 -2.53034738135824 12.0
vertex -2.0 -2.93729724007838 0.0
vertex -2.53034738135823 -2.53034738135824 0.0
endloop
endfacet
facet normal 0.608761429008721 0.793353340291235 0.0
outer loop
vertex -2.0 -2.93729724007838 0.0
vertex -2.53034738135823 -2.53034738135824 12.0
vertex -2.0 -2.93729724007838 12.0
endloop
endfacet
facet normal 0.60876142900872 0.793353340291236 0.0
outer loop
vertex -2.0 -2.93729724007838 12.0
vertex -1.78922579211603 -3.09902997815763 0.0
vertex -2.0 -2.93729724007838 0.0
endloop
endfacet
facet normal 0.60876142900872 0.793353340291236 0.0
outer loop
vertex -1.78922579211603 -3.09902997815763 0.0
vertex -2.0 -2.93729724007838 12.0
vertex -1.78922579211603 -3.09902997815763 12.0
endloop
endfacet
facet normal 0.382683432365092 0.923879532511286 0.0
outer loop
vertex -1.78922579211603 -3.09902997815763 12.0
vertex -0.926171421976551 -3.45651880333478 0.0
vertex -1.78922579211603 -3.09902997815763 0.0
endloop
endfacet
facet normal 0.382683432365092 0.923879532511286 0.0
outer loop
vertex -0.926171421976551 -3.45651880333478 0.0
vertex -1.78922579211603 -3.09902997815763 12.0
vertex -0.926171421976551 -3.45651880333478 12.0
endloop
endfacet
facet normal 0.130526192220053 0.99144486137381 0.0
outer loop
vertex -0.926171421976551 -3.45651880333478 12.0
vertex -3.71222150241657e-15 -3.57845158423206 0.0
vertex -0.926171421976551 -3.45651880333478 0.0
endloop
endfacet
facet normal 0.130526192220053 0.99144486137381 0.0
outer loop
vertex -3.71222150241657e-15 -3.57845158423206 0.0
vertex -0.926171421976551 -3.45651880333478 12.0
vertex -3.71222150241657e-15 -3.57845158423206 12.0
endloop
endfacet
facet normal -0.130526192220052 0.99144486137381 0.0
outer loop
vertex -3.71222150241657e-15 -3.57845158423206 12.0
vertex 0.926171421976545 -3.45651880333478 0.0
vertex -3.71222150241657e-15 -3.57845158423206 0.0
endloop
endfacet
facet normal -0.130526192220052 0.99144486137381 0.0
outer loop
vertex 0.926171421976545 -3.45651880333478 0.0
vertex -3.71222150241657e-15 -3.57845158423206 12.0
vertex 0.926171421976545 -3.45651880333478 12.0
endloop
endfacet
facet normal -0.382683432365089 0.923879532511287 0.0
outer loop
vertex 0.926171421976545 -3.45651880333478 12.0
vertex 1.78922579211603 -3.09902997815764 0.0
vertex 0.926171421976545 -3.45651880333478 0.0
endloop
endfacet
facet normal -0.382683432365089 0.923879532511287 0.0
outer loop
vertex 1.78922579211603 -3.09902997815764 0.0
vertex 0.926171421976545 -3.45651880333478 12.0
vertex 1.78922579211603 -3.09902997815764 12.0
endloop
endfacet
facet normal -0.608761429008721 0.793353340291234 0.0
outer loop
vertex 1.78922579211603 -3.09902997815764 12.0
vertex 2.0 -2.93729724007838 0.0
vertex 1.78922579211603 -3.09902997815764 0.0
endloop
endfacet
facet normal -0.608761429008721 0.793353340291234 0.0
outer loop
vertex 2.0 -2.93729724007838 0.0
vertex 1.78922579211603 -3.09902997815764 12.0
vertex 2.0 -2.93729724007838 12.0
endloop
endfacet
facet normal -0.608761429008721 0.793353340291235 0.0
outer loop
vertex 2.0 -2.93729724007838 12.0
vertex 2.53034738135823 -2.53034738135823 0.0
vertex 2.0 -2.93729724007838 0.0
endloop
endfacet
facet normal -0.608761429008721 0.793353340291235 0.0
outer loop
vertex 2.53034738135823 -2.53034738135823 0.0
vertex 2.0 -2.93729724007838 12.0
vertex 2.53034738135823 -2.53034738135823 12.0
endloop
endfacet
facet normal -0.793353340291235 0.608761429008721 0.0
outer loop
vertex 3.09902997815763 -1.78922579211603 12.0
vertex 2.53034738135823 -2.53034738135823 0.0
vertex 2.53034738135823 -2.53034738135823 12.0
endloop
endfacet
facet normal -0.793353340291235 0.608761429008721 0.0
outer loop
vertex 2.53034738135823 -2.53034738135823 0.0
vertex 3.09902997815763 -1.78922579211603 12.0
vertex 3.09902997815763 -1.78922579211603 0.0
endloop
endfacet
facet normal -0.923879532511286 0.382683432365092 0.0
outer loop
vertex 3.45651880333478 -0.926171421976553 12.0
vertex 3.09902997815763 -1.78922579211603 0.0
vertex 3.09902997815763 -1.78922579211603 12.0
endloop
endfacet
facet normal -0.923879532511286 0.382683432365092 0.0
outer loop
vertex 3.09902997815763 -1.78922579211603 0.0
vertex 3.45651880333478 -0.926171421976553 12.0
vertex 3.45651880333478 -0.926171421976553 0.0
endloop
endfacet
facet normal -0.991444861373811 0.130526192220051 0.0
outer loop
vertex 3.57845158423206 3.74526798463393e-15 12.0
vertex 3.45651880333478 -0.926171421976553 0.0
vertex 3.45651880333478 -0.926171421976553 12.0
endloop
endfacet
facet normal -0.991444861373811 0.130526192220051 0.0
outer loop
vertex 3.45651880333478 -0.926171421976553 0.0
vertex 3.57845158423206 3.74526798463393e-15 12.0
vertex 3.57845158423206 3.74526798463393e-15 0.0
endloop
endfacet
facet normal -0.99144486137381 -0.130526192220052 -0.0
outer loop
vertex 3.45651880333478 0.926171421976545 12.0
vertex 3.57845158423206 3.74526798463393e-15 0.0
vertex 3.57845158423206 3.74526798463393e-15 12.0
endloop
endfacet
facet normal -0.99144486137381 -0.130526192220052 -0.0
outer loop
vertex 3.57845158423206 3.74526798463393e-15 0.0
vertex 3.45651880333478 0.926171421976545 12.0
vertex 3.45651880333478 0.926171421976545 0.0
endloop
endfacet
facet normal -0.923879532511287 -0.382683432365088 -0.0
outer loop
vertex 3.09902997815764 1.78922579211603 12.0
vertex 3.45651880333478 0.926171421976545 0.0
vertex 3.45651880333478 0.926171421976545 12.0
endloop
endfacet
facet normal -0.923879532511287 -0.382683432365088 -0.0
outer loop
vertex 3.45651880333478 0.926171421976545 0.0
vertex 3.09902997815764 1.78922579211603 12.0
vertex 3.09902997815764 1.78922579211603 0.0
endloop
endfacet
facet normal -0.793353340291235 -0.60876142900872 -0.0
outer loop
vertex 2.53034738135823 2.53034738135824 12.0
vertex 3.09902997815764 1.78922579211603 0.0
vertex 3.09902997815764 1.78922579211603 12.0
endloop
endfacet
facet normal -0.793353340291235 -0.60876142900872 -0.0
outer loop
vertex 3.09902997815764 1.78922579211603 0.0
vertex 2.53034738135823 2.53034738135824 12.0
vertex 2.53034738135823 2.53034738135824 0.0
endloop
endfacet
facet normal -0.608761429008721 -0.793353340291235 -0.0
outer loop
vertex 2.53034738135823 2.53034738135824 12.0
vertex 1.78922579211603 3.09902997815763 0.0
vertex 2.53034738135823 2.53034738135824 0.0
endloop
endfacet
facet normal -0.608761429008721 -0.793353340291235 -0.0
outer loop
vertex 1.78922579211603 3.09902997815763 0.0
vertex 2.53034738135823 2.53034738135824 12.0
vertex 1.78922579211603 3.09902997815763 12.0
endloop
endfacet
facet normal -0.382683432365091 -0.923879532511286 -0.0
outer loop
vertex 1.78922579211603 3.09902997815763 12.0
vertex 0.926171421976548 3.45651880333478 0.0
vertex 1.78922579211603 3.09902997815763 0.0
endloop
endfacet
facet normal -0.382683432365091 -0.923879532511286 -0.0
outer loop
vertex 0.926171421976548 3.45651880333478 0.0
vertex 1.78922579211603 3.09902997815763 12.0
vertex 0.926171421976548 3.45651880333478 12.0
endloop
endfacet
facet normal -0.13052619222005 -0.991444861373811 -0.0
outer loop
vertex 0.926171421976548 3.45651880333478 12.0
vertex -4.4502596052709e-15 3.57845158423206 0.0
vertex 0.926171421976548 3.45651880333478 0.0
endloop
endfacet
facet normal -0.13052619222005 -0.991444861373811 -0.0
outer loop
vertex -4.4502596052709e-15 3.57845158423206 0.0
vertex 0.926171421976548 3.45651880333478 12.0
vertex -4.4502596052709e-15 3.57845158423206 12.0
endloop
endfacet
facet normal 0.130526192220052 -0.99144486137381 0.0
outer loop
vertex -4.4502596052709e-15 3.57845158423206 12.0
vertex -0.926171421976546 3.45651880333478 0.0
vertex -4.4502596052709e-15 3.57845158423206 0.0
endloop
endfacet
facet normal 0.130526192220052 -0.99144486137381 0.0
outer loop
vertex -0.926171421976546 3.45651880333478 0.0
vertex -4.4502596052709e-15 3.57845158423206 12.0
vertex -0.926171421976546 3.45651880333478 12.0
endloop
endfacet
facet normal 0.38268343236509 -0.923879532511287 0.0
outer loop
vertex -0.926171421976546 3.45651880333478 12.0
vertex -1.78922579211603 3.09902997815764 0.0
vertex -0.926171421976546 3.45651880333478 0.0
endloop
endfacet
facet normal 0.38268343236509 -0.923879532511287 0.0
outer loop
vertex -1.78922579211603 3.09902997815764 0.0
vertex -0.926171421976546 3.45651880333478 12.0
vertex -1.78922579211603 3.09902997815764 12.0
endloop
endfacet
facet normal 0.608761429008721 -0.793353340291235 0.0
outer loop
vertex -1.78922579211603 3.09902997815764 12.0
vertex -2.53034738135823 2.53034738135823 0.0
vertex -1.78922579211603 3.09902997815764 0.0
endloop
endfacet
facet normal 0.608761429008721 -0.793353340291235 0.0
outer loop
vertex -2.53034738135823 2.53034738135823 0.0
vertex -1.78922579211603 3.09902997815764 12.0
vertex -2.53034738135823 2.53034738135823 12.0
endloop
endfacet
facet normal 0.793353340291235 -0.608761429008721 0.0
outer loop
vertex -2.53034738135823 2.53034738135823 0.0
vertex -3.09902997815763 1.78922579211603 12.0
vertex -3.09902997815763 1.78922579211603 0.0
endloop
endfacet
facet normal 0.793353340291235 -0.608761429008721 0.0
outer loop
vertex -3.09902997815763 1.78922579211603 12.0
vertex -2.53034738135823 2.53034738135823 0.0
vertex -2.53034738135823 2.53034738135823 12.0
endloop
endfacet
facet normal 0.923879532511287 -0.382683432365089 0.0
outer loop
vertex -3.09902997815763 1.78922579211603 0.0
vertex -3.45651880333478 0.926171421976543 12.0
vertex -3.45651880333478 0.926171421976543 0.0
endloop
endfacet
facet normal 0.923879532511287 -0.382683432365089 0.0
outer loop
vertex -3.45651880333478 0.926171421976543 12.0
vertex -3.09902997815763 1.78922579211603 0.0
vertex -3.09902997815763 1.78922579211603 12.0
endloop
endfacet
facet normal 0.99144486137381 -0.130526192220053 0.0
outer loop
vertex -3.45651880333478 0.926171421976543 0.0
vertex -3.57845158423206 5.82719636432749e-15 12.0
vertex -3.57845158423206 5.82719636432749e-15 0.0
endloop
endfacet
facet normal 0.99144486137381 -0.130526192220053 0.0
outer loop
vertex -3.57845158423206 5.82719636432749e-15 12.0
vertex -3.45651880333478 0.926171421976543 0.0
vertex -3.45651880333478 0.926171421976543 12.0
endloop
endfacet
facet normal 0.99144486137381 0.130526192220052 0.0
outer loop
vertex -3.57845158423206 5.82719636432749e-15 0.0
vertex -3.45651880333478 -0.926171421976546 12.0
vertex -3.45651880333478 -0.926171421976546 0.0
endloop
endfacet
facet normal 0.99144486137381 0.130526192220052 0.0
outer loop
vertex -3.45651880333478 -0.926171421976546 12.0
vertex -3.57845158423206 5.82719636432749e-15 0.0
vertex -3.57845158423206 5.82719636432749e-15 12.0
endloop
endfacet
facet normal 0.923879532511287 0.38268343236509 0.0
outer loop
vertex -3.45651880333478 -0.926171421976546 0.0
vertex -3.09902997815763 -1.78922579211603 12.0
vertex -3.09902997815763 -1.78922579211603 0.0
endloop
endfacet
facet normal 0.923879532511287 0.38268343236509 0.0
outer loop
vertex -3.09902997815763 -1.78922579211603 12.0
vertex -3.45651880333478 -0.926171421976546 0.0
vertex -3.45651880333478 -0.926171421976546 12.0
endloop
endfacet
facet normal 0.793353340291235 0.608761429008721 0.0
outer loop
vertex -3.09902997815763 -1.78922579211603 0.0
vertex -2.53034738135823 -2.53034738135824 12.0
vertex -2.53034738135823 -2.53034738135824 0.0
endloop
endfacet
facet normal 0.793353340291235 0.608761429008721 0.0
outer loop
vertex -2.53034738135823 -2.53034738135824 12.0
vertex -3.09902997815763 -1.78922579211603 0.0
vertex -3.09902997815763 -1.78922579211603 12.0
endloop
endfacet
facet normal -0.0 -0.0 1.0
outer loop
vertex 3.0 -15.5784515842321 2.0
vertex 2.0 -4.84529946162075 2.0
vertex 2.0 -15.5784515842321 2.0
endloop
endfacet
facet normal -0.0 -0.0 1.0
outer loop
vertex 2.0 -4.84529946162075 2.0
vertex 3.0 -15.5784515842321 2.0
vertex 5.19615242270663 -3.0 2.0
endloop
endfacet
facet normal 0.98509790081047 -0.17199455171256 0.0
outer loop
vertex 5.19615242270663 -3.0 0.0
vertex 3.0 -15.5784515842321 2.0
vertex 3.0 -15.5784515842321 0.0
endloop
endfacet
facet normal 0.98509790081047 -0.17199455171256 0.0
outer loop
vertex 3.0 -15.5784515842321 2.0
vertex 5.19615242270663 -3.0 0.0
vertex 5.19615242270663 -3.0 2.0
endloop
endfacet
facet normal 0.0 -1.0 0.0
outer loop
vertex 2.0 -15.5784515842321 6.0
vertex -2.0 -15.5784515842321 2.0
vertex 2.0 -15.5784515842321 2.0
endloop
endfacet
facet normal 0.0 -1.0 0.0
outer loop
vertex -2.0 -15.5784515842321 2.0
vertex 2.0 -15.5784515842321 6.0
vertex -2.0 -15.5784515842321 6.0
endloop
endfacet
facet normal 0.0 -1.0 0.0
outer loop
vertex 3.0 -15.5784515842321 2.0
vertex -3.0 -15.5784515842321 0.0
vertex 3.0 -15.5784515842321 0.0
endloop
endfacet
facet normal 0.0 -1.0 0.0
outer loop
vertex -3.0 -15.5784515842321 0.0
vertex 3.0 -15.5784515842321 2.0
vertex -3.0 -15.5784515842321 2.0
endloop
endfacet
facet normal 0.0 -1.0 0.0
outer loop
vertex -3.0 -15.5784515842321 2.0
vertex 3.0 -15.5784515842321 2.0
vertex 2.0 -15.5784515842321 2.0
endloop
endfacet
facet normal 0.0 -1.0 0.0
outer loop
vertex -3.0 -15.5784515842321 2.0
vertex 2.0 -15.5784515842321 2.0
vertex -2.0 -15.5784515842321 2.0
endloop
endfacet
facet normal -0.0 -0.0 1.0
outer loop
vertex -3.0 -15.5784515842321 2.0
vertex -2.0 -4.84529946162075 2.0
vertex -5.19615242270663 -3.0 2.0
endloop
endfacet
facet normal -0.0 -0.0 1.0
outer loop
vertex -2.0 -4.84529946162075 2.0
vertex -3.0 -15.5784515842321 2.0
vertex -2.0 -15.5784515842321 2.0
endloop
endfacet
facet normal -0.985097900810471 -0.17199455171256 -0.0
outer loop
vertex -5.19615242270663 -3.0 2.0
vertex -3.0 -15.5784515842321 0.0
vertex -3.0 -15.5784515842321 2.0
endloop
endfacet
facet normal -0.985097900810471 -0.17199455171256 -0.0
outer loop
vertex -3.0 -15.5784515842321 0.0
vertex -5.19615242270663 -3.0 2.0
vertex -5.19615242270663 -3.0 0.0
endloop
endfacet
facet normal -1.0 4.2938010715207e-16 3.03091840342637e-18
outer loop
vertex -5.19615242270663 3.0 12.0
vertex -5.19615242270663 -3.0 2.0
vertex -5.19615242270663 -3.0 12.0
endloop
endfacet
facet normal -1.0 4.2938010715207e-16 3.03091840342637e-18
outer loop
vertex -5.19615242270663 -3.0 2.0
vertex -5.19615242270663 3.0 12.0
vertex -5.19615242270663 -3.0 0.0
endloop
endfacet
facet normal -1.0 4.2938010715207e-16 3.03091840342637e-18
outer loop
vertex -5.19615242270663 -3.0 0.0
vertex -5.19615242270663 3.0 12.0
vertex -5.19615242270663 3.0 0.0
endloop
endfacet
facet normal -1.0 4.2938010715207e-16 3.03091840342637e-18
outer loop
vertex -5.19615242270663 3.0 0.0
vertex -5.19615242270663 3.0 12.0
vertex -5.19615242270663 6.0 12.0
endloop
endfacet
facet normal -1.0 4.2938010715207e-16 3.03091840342637e-18
outer loop
vertex -5.19615242270663 3.0 0.0
vertex -5.19615242270663 6.0 12.0
vertex -5.19615242270663 6.0 0.0
endloop
endfacet
facet normal 1.0 -0.0 -0.0
outer loop
vertex 2.0 -4.84529946162075 2.0
vertex 2.0 -15.5784515842321 6.0
vertex 2.0 -15.5784515842321 2.0
endloop
endfacet
facet normal 1.0 -0.0 -0.0
outer loop
vertex 2.0 -15.5784515842321 6.0
vertex 2.0 -4.84529946162075 2.0
vertex 2.0 -15.5271207524749 6.78315715332031
endloop
endfacet
facet normal 1.0 -0.0 -0.0
outer loop
vertex 2.0 -15.5271207524749 6.78315715332031
vertex 2.0 -4.84529946162075 2.0
vertex 2.0 -15.3740065419665 7.55291427061512
endloop
endfacet
facet normal 1.0 -0.0 -0.0
outer loop
vertex 2.0 -15.3740065419665 7.55291427061512
vertex 2.0 -4.84529946162075 2.0
vertex 2.0 -15.1217287792998 8.29610059419054
endloop
endfacet
facet normal 1.0 -0.0 -0.0
outer loop
vertex 2.0 -15.1217287792998 8.29610059419054
vertex 2.0 -4.84529946162075 2.0
vertex 2.0 -14.7746040069387 9.0
endloop
endfacet
facet normal 1.0 -0.0 -0.0
outer loop
vertex 2.0 -14.7746040069387 9.0
vertex 2.0 -4.84529946162075 2.0
vertex 2.0 -14.3385716259795 9.65256857405232
endloop
endfacet
facet normal 1.0 -0.0 -0.0
outer loop
vertex 2.0 -14.3385716259795 9.65256857405232
vertex 2.0 -4.84529946162075 2.0
vertex 2.0 -13.8210922713513 10.2426406871193
endloop
endfacet
facet normal 1.0 -0.0 -0.0
outer loop
vertex 2.0 -13.8210922713513 10.2426406871193
vertex 2.0 -4.84529946162075 2.0
vertex 2.0 -13.2310201582844 10.7601200417474
endloop
endfacet
facet normal 1.0 -0.0 -0.0
outer loop
vertex 2.0 -13.2310201582844 10.7601200417474
vertex 2.0 -4.84529946162075 2.0
vertex 2.0 -12.5784515842321 11.1961524227066
endloop
endfacet
facet normal 1.0 -0.0 -0.0
outer loop
vertex 2.0 -12.5784515842321 11.1961524227066
vertex 2.0 -4.84529946162075 2.0
vertex 2.0 -11.8745521784226 11.5432771950677
endloop
endfacet
facet normal 1.0 -0.0 -0.0
outer loop
vertex 2.0 -11.8745521784226 11.5432771950677
vertex 2.0 -4.84529946162075 2.0
vertex 2.0 -11.1313658548472 11.7955549577344
endloop
endfacet
facet normal 1.0 -0.0 -0.0
outer loop
vertex 2.0 -11.1313658548472 11.7955549577344
vertex 2.0 -4.84529946162075 2.0
vertex 2.0 -10.3616087375524 11.9486691682429
endloop
endfacet
facet normal 1.0 -0.0 -0.0
outer loop
vertex 2.0 -10.3616087375524 11.9486691682429
vertex 2.0 -4.84529946162075 2.0
vertex 2.0 -9.57845158423206 12.0
endloop
endfacet
facet normal 1.0 -0.0 -0.0
outer loop
vertex 2.0 -9.57845158423206 12.0
vertex 2.0 -4.84529946162075 2.0
vertex 2.0 -4.84529946162075 12.0
endloop
endfacet
facet normal 0.0 -0.997858923238603 0.0654031292301446
outer loop
vertex 2.0 -15.5271207524749 6.78315715332031
vertex -2.0 -15.5784515842321 6.0
vertex 2.0 -15.5784515842321 6.0
endloop
endfacet
facet normal 0.0 -0.997858923238603 0.0654031292301446
outer loop
vertex -2.0 -15.5784515842321 6.0
vertex 2.0 -15.5271207524749 6.78315715332031
vertex -2.0 -15.5271207524749 6.78315715332031
endloop
endfacet
facet normal -0.0 -0.980785280403231 0.195090322016127
outer loop
vertex 2.0 -15.3740065419665 7.55291427061512
vertex -2.0 -15.5271207524749 6.78315715332031
vertex 2.0 -15.5271207524749 6.78315715332031
endloop
endfacet
facet normal -0.0 -0.980785280403231 0.195090322016127
outer loop
vertex -2.0 -15.5271207524749 6.78315715332031
vertex 2.0 -15.3740065419665 7.55291427061512
vertex -2.0 -15.3740065419665 7.55291427061512
endloop
endfacet
facet normal -0.0 -0.946930129495106 0.321439465303162
outer loop
vertex 2.0 -15.1217287792998 8.29610059419054
vertex -2.0 -15.3740065419665 7.55291427061512
vertex 2.0 -15.3740065419665 7.55291427061512
endloop
endfacet
facet normal -0.0 -0.946930129495106 0.321439465303162
outer loop
vertex -2.0 -15.3740065419665 7.55291427061512
vertex 2.0 -15.1217287792998 8.29610059419054
vertex -2.0 -15.1217287792998 8.29610059419054
endloop
endfacet
facet normal -0.0 -0.896872741532688 0.442288690219001
outer loop
vertex 2.0 -14.7746040069387 9.0
vertex -2.0 -15.1217287792998 8.29610059419054
vertex 2.0 -15.1217287792998 8.29610059419054
endloop
endfacet
facet normal -0.0 -0.896872741532688 0.442288690219001
outer loop
vertex -2.0 -15.1217287792998 8.29610059419054
vertex 2.0 -14.7746040069387 9.0
vertex -2.0 -14.7746040069387 9.0
endloop
endfacet
facet normal -0.0 -0.831469612302545 0.555570233019602
outer loop
vertex 2.0 -14.3385716259795 9.65256857405232
vertex -2.0 -14.7746040069387 9.0
vertex 2.0 -14.7746040069387 9.0
endloop
endfacet
facet normal -0.0 -0.831469612302545 0.555570233019602
outer loop
vertex -2.0 -14.7746040069387 9.0
vertex 2.0 -14.3385716259795 9.65256857405232
vertex -2.0 -14.3385716259795 9.65256857405232
endloop
endfacet
facet normal -0.0 -0.751839807478977 0.65934581510007
outer loop
vertex 2.0 -13.8210922713513 10.2426406871193
vertex -2.0 -14.3385716259795 9.65256857405232
vertex 2.0 -14.3385716259795 9.65256857405232
endloop
endfacet
facet normal -0.0 -0.751839807478977 0.65934581510007
outer loop
vertex -2.0 -14.3385716259795 9.65256857405232
vertex 2.0 -13.8210922713513 10.2426406871193
vertex -2.0 -13.8210922713513 10.2426406871193
endloop
endfacet
facet normal -0.0 -0.659345815100068 0.751839807478978
outer loop
vertex 2.0 -13.8210922713513 10.2426406871193
vertex -2.0 -13.2310201582844 10.7601200417474
vertex -2.0 -13.8210922713513 10.2426406871193
endloop
endfacet
facet normal -0.0 -0.659345815100068 0.751839807478978
outer loop
vertex -2.0 -13.2310201582844 10.7601200417474
vertex 2.0 -13.8210922713513 10.2426406871193
vertex 2.0 -13.2310201582844 10.7601200417474
endloop
endfacet
facet normal -0.0 -0.555570233019605 0.831469612302544
outer loop
vertex 2.0 -13.2310201582844 10.7601200417474
vertex -2.0 -12.5784515842321 11.1961524227066
vertex -2.0 -13.2310201582844 10.7601200417474
endloop
endfacet
facet normal -0.0 -0.555570233019605 0.831469612302544
outer loop
vertex -2.0 -12.5784515842321 11.1961524227066
vertex 2.0 -13.2310201582844 10.7601200417474
vertex 2.0 -12.5784515842321 11.1961524227066
endloop
endfacet
facet normal -0.0 -0.442288690219001 0.896872741532688
outer loop
vertex 2.0 -12.5784515842321 11.1961524227066
vertex -2.0 -11.8745521784226 11.5432771950677
vertex -2.0 -12.5784515842321 11.1961524227066
endloop
endfacet
facet normal -0.0 -0.442288690219001 0.896872741532688
outer loop
vertex -2.0 -11.8745521784226 11.5432771950677
vertex 2.0 -12.5784515842321 11.1961524227066
vertex 2.0 -11.8745521784226 11.5432771950677
endloop
endfacet
facet normal -0.0 -0.321439465303162 0.946930129495106
outer loop
vertex 2.0 -11.8745521784226 11.5432771950677
vertex -2.0 -11.1313658548472 11.7955549577344
vertex -2.0 -11.8745521784226 11.5432771950677
endloop
endfacet
facet normal -0.0 -0.321439465303162 0.946930129495106
outer loop
vertex -2.0 -11.1313658548472 11.7955549577344
vertex 2.0 -11.8745521784226 11.5432771950677
vertex 2.0 -11.1313658548472 11.7955549577344
endloop
endfacet
facet normal -0.0 -0.195090322016127 0.980785280403231
outer loop
vertex 2.0 -11.1313658548472 11.7955549577344
vertex -2.0 -10.3616087375524 11.9486691682429
vertex -2.0 -11.1313658548472 11.7955549577344
endloop
endfacet
facet normal -0.0 -0.195090322016127 0.980785280403231
outer loop
vertex -2.0 -10.3616087375524 11.9486691682429
vertex 2.0 -11.1313658548472 11.7955549577344
vertex 2.0 -10.3616087375524 11.9486691682429
endloop
endfacet
facet normal -0.0 -0.0654031292301446 0.997858923238603
outer loop
vertex 2.0 -10.3616087375524 11.9486691682429
vertex -2.0 -9.57845158423206 12.0
vertex -2.0 -10.3616087375524 11.9486691682429
endloop
endfacet
facet normal -0.0 -0.0654031292301446 0.997858923238603
outer loop
vertex -2.0 -9.57845158423206 12.0
vertex 2.0 -10.3616087375524 11.9486691682429
vertex 2.0 -9.57845158423206 12.0
endloop
endfacet
endsolid model
