solid ASCII
  facet normal 3.739119e-02 9.993007e-01 0.000000e+00
    outer loop
      vertex   3.100000e+01 2.500000e+01 5.000000e+00
      vertex   3.122419e+01 2.499161e+01 5.000000e+00
      vertex   3.100000e+01 2.500000e+01 0.000000e+00
    endloop
  endfacet
  facet normal 3.739119e-02 9.993007e-01 0.000000e+00
    outer loop
      vertex   3.100000e+01 2.500000e+01 0.000000e+00
      vertex   3.122419e+01 2.499161e+01 5.000000e+00
      vertex   3.122419e+01 2.499161e+01 0.000000e+00
    endloop
  endfacet
  facet normal 1.119645e-01 9.937122e-01 -0.000000e+00
    outer loop
      vertex   3.122419e+01 2.499161e+01 0.000000e+00
      vertex   3.122419e+01 2.499161e+01 5.000000e+00
      vertex   3.144713e+01 2.496649e+01 5.000000e+00
    endloop
  endfacet
  facet normal 1.119645e-01 9.937122e-01 0.000000e+00
    outer loop
      vertex   3.122419e+01 2.499161e+01 0.000000e+00
      vertex   3.144713e+01 2.496649e+01 5.000000e+00
      vertex   3.144713e+01 2.496649e+01 0.000000e+00
    endloop
  endfacet
  facet normal 1.859116e-01 9.825665e-01 -0.000000e+00
    outer loop
      vertex   3.144713e+01 2.496649e+01 0.000000e+00
      vertex   3.144713e+01 2.496649e+01 5.000000e+00
      vertex   3.166756e+01 2.492478e+01 5.000000e+00
    endloop
  endfacet
  facet normal 1.859116e-01 9.825665e-01 0.000000e+00
    outer loop
      vertex   3.144713e+01 2.496649e+01 0.000000e+00
      vertex   3.166756e+01 2.492478e+01 5.000000e+00
      vertex   3.166756e+01 2.492478e+01 0.000000e+00
    endloop
  endfacet
  facet normal 2.588190e-01 9.659258e-01 -0.000000e+00
    outer loop
      vertex   3.166756e+01 2.492478e+01 0.000000e+00
      vertex   3.166756e+01 2.492478e+01 5.000000e+00
      vertex   3.188427e+01 2.486672e+01 5.000000e+00
    endloop
  endfacet
  facet normal 2.588190e-01 9.659258e-01 0.000000e+00
    outer loop
      vertex   3.166756e+01 2.492478e+01 0.000000e+00
      vertex   3.188427e+01 2.486672e+01 5.000000e+00
      vertex   3.188427e+01 2.486672e+01 0.000000e+00
    endloop
  endfacet
  facet normal 3.302791e-01 9.438833e-01 -0.000000e+00
    outer loop
      vertex   3.188427e+01 2.486672e+01 0.000000e+00
      vertex   3.188427e+01 2.486672e+01 5.000000e+00
      vertex   3.209602e+01 2.479262e+01 5.000000e+00
    endloop
  endfacet
  facet normal 3.302791e-01 9.438833e-01 0.000000e+00
    outer loop
      vertex   3.188427e+01 2.486672e+01 0.000000e+00
      vertex   3.209602e+01 2.479262e+01 5.000000e+00
      vertex   3.209602e+01 2.479262e+01 0.000000e+00
    endloop
  endfacet
  facet normal 3.998920e-01 9.165623e-01 -0.000000e+00
    outer loop
      vertex   3.209602e+01 2.479262e+01 0.000000e+00
      vertex   3.209602e+01 2.479262e+01 5.000000e+00
      vertex   3.230165e+01 2.470291e+01 5.000000e+00
    endloop
  endfacet
  facet normal 3.998920e-01 9.165623e-01 0.000000e+00
    outer loop
      vertex   3.209602e+01 2.479262e+01 0.000000e+00
      vertex   3.230165e+01 2.470291e+01 5.000000e+00
      vertex   3.230165e+01 2.470291e+01 0.000000e+00
    endloop
  endfacet
  facet normal 4.672686e-01 8.841154e-01 -0.000000e+00
    outer loop
      vertex   3.230165e+01 2.470291e+01 0.000000e+00
      vertex   3.230165e+01 2.470291e+01 5.000000e+00
      vertex   3.250000e+01 2.459808e+01 5.000000e+00
    endloop
  endfacet
  facet normal 4.672686e-01 8.841154e-01 0.000000e+00
    outer loop
      vertex   3.230165e+01 2.470291e+01 0.000000e+00
      vertex   3.250000e+01 2.459808e+01 5.000000e+00
      vertex   3.250000e+01 2.459808e+01 0.000000e+00
    endloop
  endfacet
  facet normal 5.320321e-01 8.467242e-01 -0.000000e+00
    outer loop
      vertex   3.250000e+01 2.459808e+01 0.000000e+00
      vertex   3.250000e+01 2.459808e+01 5.000000e+00
      vertex   3.268996e+01 2.447872e+01 5.000000e+00
    endloop
  endfacet
  facet normal 5.320321e-01 8.467242e-01 0.000000e+00
    outer loop
      vertex   3.250000e+01 2.459808e+01 0.000000e+00
      vertex   3.268996e+01 2.447872e+01 5.000000e+00
      vertex   3.268996e+01 2.447872e+01 0.000000e+00
    endloop
  endfacet
  facet normal 5.938202e-01 8.045978e-01 -0.000000e+00
    outer loop
      vertex   3.268996e+01 2.447872e+01 0.000000e+00
      vertex   3.268996e+01 2.447872e+01 5.000000e+00
      vertex   3.287047e+01 2.434549e+01 5.000000e+00
    endloop
  endfacet
  facet normal 5.938202e-01 8.045978e-01 0.000000e+00
    outer loop
      vertex   3.268996e+01 2.447872e+01 0.000000e+00
      vertex   3.287047e+01 2.434549e+01 5.000000e+00
      vertex   3.287047e+01 2.434549e+01 0.000000e+00
    endloop
  endfacet
  facet normal 6.522874e-01 7.579717e-01 -0.000000e+00
    outer loop
      vertex   3.287047e+01 2.434549e+01 0.000000e+00
      vertex   3.287047e+01 2.434549e+01 5.000000e+00
      vertex   3.304052e+01 2.419916e+01 5.000000e+00
    endloop
  endfacet
  facet normal 6.522874e-01 7.579717e-01 0.000000e+00
    outer loop
      vertex   3.287047e+01 2.434549e+01 0.000000e+00
      vertex   3.304052e+01 2.419916e+01 5.000000e+00
      vertex   3.304052e+01 2.419916e+01 0.000000e+00
    endloop
  endfacet
  facet normal 7.071068e-01 7.071068e-01 -0.000000e+00
    outer loop
      vertex   3.304052e+01 2.419916e+01 0.000000e+00
      vertex   3.304052e+01 2.419916e+01 5.000000e+00
      vertex   3.319916e+01 2.404052e+01 5.000000e+00
    endloop
  endfacet
  facet normal 7.071068e-01 7.071068e-01 0.000000e+00
    outer loop
      vertex   3.304052e+01 2.419916e+01 0.000000e+00
      vertex   3.319916e+01 2.404052e+01 5.000000e+00
      vertex   3.319916e+01 2.404052e+01 0.000000e+00
    endloop
  endfacet
  facet normal 7.579717e-01 6.522874e-01 -0.000000e+00
    outer loop
      vertex   3.319916e+01 2.404052e+01 0.000000e+00
      vertex   3.319916e+01 2.404052e+01 5.000000e+00
      vertex   3.334549e+01 2.387047e+01 5.000000e+00
    endloop
  endfacet
  facet normal 7.579717e-01 6.522874e-01 0.000000e+00
    outer loop
      vertex   3.319916e+01 2.404052e+01 0.000000e+00
      vertex   3.334549e+01 2.387047e+01 5.000000e+00
      vertex   3.334549e+01 2.387047e+01 0.000000e+00
    endloop
  endfacet
  facet normal 8.045978e-01 5.938202e-01 -0.000000e+00
    outer loop
      vertex   3.334549e+01 2.387047e+01 0.000000e+00
      vertex   3.334549e+01 2.387047e+01 5.000000e+00
      vertex   3.347872e+01 2.368996e+01 5.000000e+00
    endloop
  endfacet
  facet normal 8.045978e-01 5.938202e-01 0.000000e+00
    outer loop
      vertex   3.334549e+01 2.387047e+01 0.000000e+00
      vertex   3.347872e+01 2.368996e+01 5.000000e+00
      vertex   3.347872e+01 2.368996e+01 0.000000e+00
    endloop
  endfacet
  facet normal 8.467242e-01 5.320321e-01 -0.000000e+00
    outer loop
      vertex   3.347872e+01 2.368996e+01 0.000000e+00
      vertex   3.347872e+01 2.368996e+01 5.000000e+00
      vertex   3.359808e+01 2.350000e+01 5.000000e+00
    endloop
  endfacet
  facet normal 8.467242e-01 5.320321e-01 0.000000e+00
    outer loop
      vertex   3.347872e+01 2.368996e+01 0.000000e+00
      vertex   3.359808e+01 2.350000e+01 5.000000e+00
      vertex   3.359808e+01 2.350000e+01 0.000000e+00
    endloop
  endfacet
  facet normal 8.841154e-01 4.672686e-01 -0.000000e+00
    outer loop
      vertex   3.359808e+01 2.350000e+01 0.000000e+00
      vertex   3.359808e+01 2.350000e+01 5.000000e+00
      vertex   3.370291e+01 2.330165e+01 5.000000e+00
    endloop
  endfacet
  facet normal 8.841154e-01 4.672686e-01 0.000000e+00
    outer loop
      vertex   3.359808e+01 2.350000e+01 0.000000e+00
      vertex   3.370291e+01 2.330165e+01 5.000000e+00
      vertex   3.370291e+01 2.330165e+01 0.000000e+00
    endloop
  endfacet
  facet normal 9.165623e-01 3.998920e-01 -0.000000e+00
    outer loop
      vertex   3.370291e+01 2.330165e+01 0.000000e+00
      vertex   3.370291e+01 2.330165e+01 5.000000e+00
      vertex   3.379262e+01 2.309602e+01 5.000000e+00
    endloop
  endfacet
  facet normal 9.165623e-01 3.998920e-01 0.000000e+00
    outer loop
      vertex   3.370291e+01 2.330165e+01 0.000000e+00
      vertex   3.379262e+01 2.309602e+01 5.000000e+00
      vertex   3.379262e+01 2.309602e+01 0.000000e+00
    endloop
  endfacet
  facet normal 9.438833e-01 3.302791e-01 -0.000000e+00
    outer loop
      vertex   3.379262e+01 2.309602e+01 0.000000e+00
      vertex   3.379262e+01 2.309602e+01 5.000000e+00
      vertex   3.386672e+01 2.288427e+01 5.000000e+00
    endloop
  endfacet
  facet normal 9.438833e-01 3.302791e-01 0.000000e+00
    outer loop
      vertex   3.379262e+01 2.309602e+01 0.000000e+00
      vertex   3.386672e+01 2.288427e+01 5.000000e+00
      vertex   3.386672e+01 2.288427e+01 0.000000e+00
    endloop
  endfacet
  facet normal 9.659258e-01 2.588190e-01 -0.000000e+00
    outer loop
      vertex   3.386672e+01 2.288427e+01 0.000000e+00
      vertex   3.386672e+01 2.288427e+01 5.000000e+00
      vertex   3.392478e+01 2.266756e+01 5.000000e+00
    endloop
  endfacet
  facet normal 9.659258e-01 2.588190e-01 0.000000e+00
    outer loop
      vertex   3.386672e+01 2.288427e+01 0.000000e+00
      vertex   3.392478e+01 2.266756e+01 5.000000e+00
      vertex   3.392478e+01 2.266756e+01 0.000000e+00
    endloop
  endfacet
  facet normal 9.825665e-01 1.859116e-01 -0.000000e+00
    outer loop
      vertex   3.392478e+01 2.266756e+01 0.000000e+00
      vertex   3.392478e+01 2.266756e+01 5.000000e+00
      vertex   3.396649e+01 2.244713e+01 5.000000e+00
    endloop
  endfacet
  facet normal 9.825665e-01 1.859116e-01 0.000000e+00
    outer loop
      vertex   3.392478e+01 2.266756e+01 0.000000e+00
      vertex   3.396649e+01 2.244713e+01 5.000000e+00
      vertex   3.396649e+01 2.244713e+01 0.000000e+00
    endloop
  endfacet
  facet normal 9.937122e-01 1.119645e-01 -0.000000e+00
    outer loop
      vertex   3.396649e+01 2.244713e+01 0.000000e+00
      vertex   3.396649e+01 2.244713e+01 5.000000e+00
      vertex   3.399161e+01 2.222419e+01 5.000000e+00
    endloop
  endfacet
  facet normal 9.937122e-01 1.119645e-01 0.000000e+00
    outer loop
      vertex   3.396649e+01 2.244713e+01 0.000000e+00
      vertex   3.399161e+01 2.222419e+01 5.000000e+00
      vertex   3.399161e+01 2.222419e+01 0.000000e+00
    endloop
  endfacet
  facet normal 9.993007e-01 3.739119e-02 -0.000000e+00
    outer loop
      vertex   3.399161e+01 2.222419e+01 0.000000e+00
      vertex   3.399161e+01 2.222419e+01 5.000000e+00
      vertex   3.400000e+01 2.200000e+01 5.000000e+00
    endloop
  endfacet
  facet normal 9.993007e-01 3.739119e-02 0.000000e+00
    outer loop
      vertex   3.399161e+01 2.222419e+01 0.000000e+00
      vertex   3.400000e+01 2.200000e+01 5.000000e+00
      vertex   3.400000e+01 2.200000e+01 0.000000e+00
    endloop
  endfacet
  facet normal 0.000000e+00 1.000000e+00 -0.000000e+00
    outer loop
      vertex   3.100000e+01 2.500000e+01 0.000000e+00
      vertex   3.000000e+00 2.500000e+01 0.000000e+00
      vertex   3.100000e+01 2.500000e+01 5.000000e+00
    endloop
  endfacet
  facet normal 0.000000e+00 1.000000e+00 0.000000e+00
    outer loop
      vertex   3.100000e+01 2.500000e+01 5.000000e+00
      vertex   3.000000e+00 2.500000e+01 0.000000e+00
      vertex   3.000000e+00 2.500000e+01 5.000000e+00
    endloop
  endfacet
  facet normal -0.000000e+00 0.000000e+00 -1.000000e+00
    outer loop
      vertex   7.000000e+00 5.000000e+00 0.000000e+00
      vertex   0.000000e+00 3.000000e+00 0.000000e+00
      vertex   7.000000e+00 1.000000e+01 0.000000e+00
    endloop
  endfacet
  facet normal -0.000000e+00 0.000000e+00 -1.000000e+00
    outer loop
      vertex   7.000000e+00 1.000000e+01 0.000000e+00
      vertex   0.000000e+00 3.000000e+00 0.000000e+00
      vertex   7.000000e+00 1.500000e+01 0.000000e+00
    endloop
  endfacet
  facet normal 0.000000e+00 0.000000e+00 -1.000000e+00
    outer loop
      vertex   7.000000e+00 1.000000e+01 0.000000e+00
      vertex   7.000000e+00 1.500000e+01 0.000000e+00
      vertex   2.700000e+01 1.500000e+01 0.000000e+00
    endloop
  endfacet
  facet normal -0.000000e+00 0.000000e+00 -1.000000e+00
    outer loop
      vertex   2.700000e+01 5.000000e+00 0.000000e+00
      vertex   3.000000e+00 0.000000e+00 0.000000e+00
      vertex   7.000000e+00 5.000000e+00 0.000000e+00
    endloop
  endfacet
  facet normal 0.000000e+00 0.000000e+00 -1.000000e+00
    outer loop
      vertex   7.000000e+00 5.000000e+00 0.000000e+00
      vertex   3.000000e+00 0.000000e+00 0.000000e+00
      vertex   3.350752e-02 2.552873e+00 0.000000e+00
    endloop
  endfacet
  facet normal 0.000000e+00 0.000000e+00 -1.000000e+00
    outer loop
      vertex   7.000000e+00 5.000000e+00 0.000000e+00
      vertex   3.350752e-02 2.552873e+00 0.000000e+00
      vertex   8.388608e-03 2.775810e+00 0.000000e+00
    endloop
  endfacet
  facet normal 0.000000e+00 0.000000e+00 -1.000000e+00
    outer loop
      vertex   2.700000e+01 1.000000e+01 0.000000e+00
      vertex   3.400000e+01 3.000000e+00 0.000000e+00
      vertex   2.700000e+01 5.000000e+00 0.000000e+00
    endloop
  endfacet
  facet normal 0.000000e+00 0.000000e+00 -1.000000e+00
    outer loop
      vertex   2.700000e+01 5.000000e+00 0.000000e+00
      vertex   3.400000e+01 3.000000e+00 0.000000e+00
      vertex   3.399161e+01 2.775810e+00 0.000000e+00
    endloop
  endfacet
  facet normal 0.000000e+00 0.000000e+00 -1.000000e+00
    outer loop
      vertex   2.700000e+01 5.000000e+00 0.000000e+00
      vertex   3.399161e+01 2.775810e+00 0.000000e+00
      vertex   3.396649e+01 2.552873e+00 0.000000e+00
    endloop
  endfacet
  facet normal 0.000000e+00 0.000000e+00 -1.000000e+00
    outer loop
      vertex   3.400000e+01 3.000000e+00 0.000000e+00
      vertex   2.700000e+01 1.000000e+01 0.000000e+00
      vertex   2.700000e+01 1.500000e+01 0.000000e+00
    endloop
  endfacet
  facet normal 0.000000e+00 -0.000000e+00 -1.000000e+00
    outer loop
      vertex   2.700000e+01 1.500000e+01 0.000000e+00
      vertex   2.700000e+01 1.000000e+01 0.000000e+00
      vertex   7.000000e+00 1.000000e+01 0.000000e+00
    endloop
  endfacet
  facet normal 0.000000e+00 0.000000e+00 -1.000000e+00
    outer loop
      vertex   3.400000e+01 3.000000e+00 0.000000e+00
      vertex   2.700000e+01 1.500000e+01 0.000000e+00
      vertex   3.400000e+01 2.200000e+01 0.000000e+00
    endloop
  endfacet
  facet normal 0.000000e+00 0.000000e+00 -1.000000e+00
    outer loop
      vertex   3.400000e+01 2.200000e+01 0.000000e+00
      vertex   2.700000e+01 1.500000e+01 0.000000e+00
      vertex   2.700000e+01 2.000000e+01 0.000000e+00
    endloop
  endfacet
  facet normal -0.000000e+00 0.000000e+00 -1.000000e+00
    outer loop
      vertex   3.400000e+01 2.200000e+01 0.000000e+00
      vertex   2.700000e+01 2.000000e+01 0.000000e+00
      vertex   3.399161e+01 2.222419e+01 0.000000e+00
    endloop
  endfacet
  facet normal -0.000000e+00 0.000000e+00 -1.000000e+00
    outer loop
      vertex   3.399161e+01 2.222419e+01 0.000000e+00
      vertex   2.700000e+01 2.000000e+01 0.000000e+00
      vertex   3.396649e+01 2.244713e+01 0.000000e+00
    endloop
  endfacet
  facet normal -0.000000e+00 0.000000e+00 -1.000000e+00
    outer loop
      vertex   3.396649e+01 2.244713e+01 0.000000e+00
      vertex   2.700000e+01 2.000000e+01 0.000000e+00
      vertex   3.100000e+01 2.500000e+01 0.000000e+00
    endloop
  endfacet
  facet normal 0.000000e+00 0.000000e+00 -1.000000e+00
    outer loop
      vertex   3.396649e+01 2.244713e+01 0.000000e+00
      vertex   3.100000e+01 2.500000e+01 0.000000e+00
      vertex   3.392478e+01 2.266756e+01 0.000000e+00
    endloop
  endfacet
  facet normal 0.000000e+00 0.000000e+00 -1.000000e+00
    outer loop
      vertex   3.392478e+01 2.266756e+01 0.000000e+00
      vertex   3.100000e+01 2.500000e+01 0.000000e+00
      vertex   3.386672e+01 2.288427e+01 0.000000e+00
    endloop
  endfacet
  facet normal 0.000000e+00 0.000000e+00 -1.000000e+00
    outer loop
      vertex   3.386672e+01 2.288427e+01 0.000000e+00
      vertex   3.100000e+01 2.500000e+01 0.000000e+00
      vertex   3.379262e+01 2.309602e+01 0.000000e+00
    endloop
  endfacet
  facet normal 0.000000e+00 0.000000e+00 -1.000000e+00
    outer loop
      vertex   3.379262e+01 2.309602e+01 0.000000e+00
      vertex   3.100000e+01 2.500000e+01 0.000000e+00
      vertex   3.370291e+01 2.330165e+01 0.000000e+00
    endloop
  endfacet
  facet normal 0.000000e+00 0.000000e+00 -1.000000e+00
    outer loop
      vertex   3.370291e+01 2.330165e+01 0.000000e+00
      vertex   3.100000e+01 2.500000e+01 0.000000e+00
      vertex   3.359808e+01 2.350000e+01 0.000000e+00
    endloop
  endfacet
  facet normal 0.000000e+00 0.000000e+00 -1.000000e+00
    outer loop
      vertex   3.359808e+01 2.350000e+01 0.000000e+00
      vertex   3.100000e+01 2.500000e+01 0.000000e+00
      vertex   3.347872e+01 2.368996e+01 0.000000e+00
    endloop
  endfacet
  facet normal 0.000000e+00 0.000000e+00 -1.000000e+00
    outer loop
      vertex   3.347872e+01 2.368996e+01 0.000000e+00
      vertex   3.100000e+01 2.500000e+01 0.000000e+00
      vertex   3.334549e+01 2.387047e+01 0.000000e+00
    endloop
  endfacet
  facet normal 0.000000e+00 0.000000e+00 -1.000000e+00
    outer loop
      vertex   3.334549e+01 2.387047e+01 0.000000e+00
      vertex   3.100000e+01 2.500000e+01 0.000000e+00
      vertex   3.319916e+01 2.404052e+01 0.000000e+00
    endloop
  endfacet
  facet normal 0.000000e+00 0.000000e+00 -1.000000e+00
    outer loop
      vertex   3.319916e+01 2.404052e+01 0.000000e+00
      vertex   3.100000e+01 2.500000e+01 0.000000e+00
      vertex   3.304052e+01 2.419916e+01 0.000000e+00
    endloop
  endfacet
  facet normal 0.000000e+00 0.000000e+00 -1.000000e+00
    outer loop
      vertex   3.304052e+01 2.419916e+01 0.000000e+00
      vertex   3.100000e+01 2.500000e+01 0.000000e+00
      vertex   3.287047e+01 2.434549e+01 0.000000e+00
    endloop
  endfacet
  facet normal 0.000000e+00 0.000000e+00 -1.000000e+00
    outer loop
      vertex   3.287047e+01 2.434549e+01 0.000000e+00
      vertex   3.100000e+01 2.500000e+01 0.000000e+00
      vertex   3.268996e+01 2.447872e+01 0.000000e+00
    endloop
  endfacet
  facet normal 0.000000e+00 0.000000e+00 -1.000000e+00
    outer loop
      vertex   3.268996e+01 2.447872e+01 0.000000e+00
      vertex   3.100000e+01 2.500000e+01 0.000000e+00
      vertex   3.250000e+01 2.459808e+01 0.000000e+00
    endloop
  endfacet
  facet normal 0.000000e+00 0.000000e+00 -1.000000e+00
    outer loop
      vertex   3.250000e+01 2.459808e+01 0.000000e+00
      vertex   3.100000e+01 2.500000e+01 0.000000e+00
      vertex   3.230165e+01 2.470291e+01 0.000000e+00
    endloop
  endfacet
  facet normal 0.000000e+00 0.000000e+00 -1.000000e+00
    outer loop
      vertex   3.230165e+01 2.470291e+01 0.000000e+00
      vertex   3.100000e+01 2.500000e+01 0.000000e+00
      vertex   3.209602e+01 2.479262e+01 0.000000e+00
    endloop
  endfacet
  facet normal 0.000000e+00 0.000000e+00 -1.000000e+00
    outer loop
      vertex   3.209602e+01 2.479262e+01 0.000000e+00
      vertex   3.100000e+01 2.500000e+01 0.000000e+00
      vertex   3.188427e+01 2.486672e+01 0.000000e+00
    endloop
  endfacet
  facet normal 0.000000e+00 0.000000e+00 -1.000000e+00
    outer loop
      vertex   3.188427e+01 2.486672e+01 0.000000e+00
      vertex   3.100000e+01 2.500000e+01 0.000000e+00
      vertex   3.166756e+01 2.492478e+01 0.000000e+00
    endloop
  endfacet
  facet normal 0.000000e+00 0.000000e+00 -1.000000e+00
    outer loop
      vertex   3.166756e+01 2.492478e+01 0.000000e+00
      vertex   3.100000e+01 2.500000e+01 0.000000e+00
      vertex   3.144713e+01 2.496649e+01 0.000000e+00
    endloop
  endfacet
  facet normal 0.000000e+00 0.000000e+00 -1.000000e+00
    outer loop
      vertex   3.144713e+01 2.496649e+01 0.000000e+00
      vertex   3.100000e+01 2.500000e+01 0.000000e+00
      vertex   3.122419e+01 2.499161e+01 0.000000e+00
    endloop
  endfacet
  facet normal 0.000000e+00 0.000000e+00 -1.000000e+00
    outer loop
      vertex   2.700000e+01 2.000000e+01 0.000000e+00
      vertex   7.000000e+00 2.000000e+01 0.000000e+00
      vertex   3.100000e+01 2.500000e+01 0.000000e+00
    endloop
  endfacet
  facet normal -0.000000e+00 0.000000e+00 -1.000000e+00
    outer loop
      vertex   3.100000e+01 2.500000e+01 0.000000e+00
      vertex   7.000000e+00 2.000000e+01 0.000000e+00
      vertex   3.000000e+00 2.500000e+01 0.000000e+00
    endloop
  endfacet
  facet normal 0.000000e+00 -0.000000e+00 -1.000000e+00
    outer loop
      vertex   3.000000e+00 2.500000e+01 0.000000e+00
      vertex   7.000000e+00 2.000000e+01 0.000000e+00
      vertex   3.350752e-02 2.244713e+01 0.000000e+00
    endloop
  endfacet
  facet normal 0.000000e+00 0.000000e+00 -1.000000e+00
    outer loop
      vertex   3.000000e+00 2.500000e+01 0.000000e+00
      vertex   3.350752e-02 2.244713e+01 0.000000e+00
      vertex   7.521626e-02 2.266756e+01 0.000000e+00
    endloop
  endfacet
  facet normal 0.000000e+00 0.000000e+00 -1.000000e+00
    outer loop
      vertex   7.000000e+00 1.500000e+01 0.000000e+00
      vertex   0.000000e+00 2.200000e+01 0.000000e+00
      vertex   7.000000e+00 2.000000e+01 0.000000e+00
    endloop
  endfacet
  facet normal 0.000000e+00 0.000000e+00 -1.000000e+00
    outer loop
      vertex   7.000000e+00 2.000000e+01 0.000000e+00
      vertex   0.000000e+00 2.200000e+01 0.000000e+00
      vertex   8.388608e-03 2.222419e+01 0.000000e+00
    endloop
  endfacet
  facet normal 0.000000e+00 0.000000e+00 -1.000000e+00
    outer loop
      vertex   7.000000e+00 2.000000e+01 0.000000e+00
      vertex   8.388608e-03 2.222419e+01 0.000000e+00
      vertex   3.350752e-02 2.244713e+01 0.000000e+00
    endloop
  endfacet
  facet normal 0.000000e+00 0.000000e+00 -1.000000e+00
    outer loop
      vertex   2.700000e+01 5.000000e+00 0.000000e+00
      vertex   3.396649e+01 2.552873e+00 0.000000e+00
      vertex   3.100000e+01 0.000000e+00 0.000000e+00
    endloop
  endfacet
  facet normal 0.000000e+00 0.000000e+00 -1.000000e+00
    outer loop
      vertex   3.100000e+01 0.000000e+00 0.000000e+00
      vertex   3.396649e+01 2.552873e+00 0.000000e+00
      vertex   3.392478e+01 2.332437e+00 0.000000e+00
    endloop
  endfacet
  facet normal 0.000000e+00 0.000000e+00 -1.000000e+00
    outer loop
      vertex   3.100000e+01 0.000000e+00 0.000000e+00
      vertex   3.392478e+01 2.332437e+00 0.000000e+00
      vertex   3.386672e+01 2.115734e+00 0.000000e+00
    endloop
  endfacet
  facet normal 0.000000e+00 0.000000e+00 -1.000000e+00
    outer loop
      vertex   3.386672e+01 2.115734e+00 0.000000e+00
      vertex   3.379262e+01 1.903977e+00 0.000000e+00
      vertex   3.100000e+01 0.000000e+00 0.000000e+00
    endloop
  endfacet
  facet normal 0.000000e+00 0.000000e+00 -1.000000e+00
    outer loop
      vertex   3.100000e+01 0.000000e+00 0.000000e+00
      vertex   3.379262e+01 1.903977e+00 0.000000e+00
      vertex   3.370291e+01 1.698349e+00 0.000000e+00
    endloop
  endfacet
  facet normal 0.000000e+00 0.000000e+00 -1.000000e+00
    outer loop
      vertex   3.100000e+01 0.000000e+00 0.000000e+00
      vertex   3.370291e+01 1.698349e+00 0.000000e+00
      vertex   3.359808e+01 1.500000e+00 0.000000e+00
    endloop
  endfacet
  facet normal 0.000000e+00 0.000000e+00 -1.000000e+00
    outer loop
      vertex   3.359808e+01 1.500000e+00 0.000000e+00
      vertex   3.347872e+01 1.310040e+00 0.000000e+00
      vertex   3.100000e+01 0.000000e+00 0.000000e+00
    endloop
  endfacet
  facet normal 0.000000e+00 0.000000e+00 -1.000000e+00
    outer loop
      vertex   3.100000e+01 0.000000e+00 0.000000e+00
      vertex   3.347872e+01 1.310040e+00 0.000000e+00
      vertex   3.334549e+01 1.129531e+00 0.000000e+00
    endloop
  endfacet
  facet normal 0.000000e+00 0.000000e+00 -1.000000e+00
    outer loop
      vertex   3.100000e+01 0.000000e+00 0.000000e+00
      vertex   3.334549e+01 1.129531e+00 0.000000e+00
      vertex   3.319916e+01 9.594818e-01 0.000000e+00
    endloop
  endfacet
  facet normal 0.000000e+00 0.000000e+00 -1.000000e+00
    outer loop
      vertex   3.319916e+01 9.594818e-01 0.000000e+00
      vertex   3.304052e+01 8.008444e-01 0.000000e+00
      vertex   3.100000e+01 0.000000e+00 0.000000e+00
    endloop
  endfacet
  facet normal 0.000000e+00 0.000000e+00 -1.000000e+00
    outer loop
      vertex   3.100000e+01 0.000000e+00 0.000000e+00
      vertex   3.304052e+01 8.008444e-01 0.000000e+00
      vertex   3.287047e+01 6.545056e-01 0.000000e+00
    endloop
  endfacet
  facet normal 0.000000e+00 0.000000e+00 -1.000000e+00
    outer loop
      vertex   3.100000e+01 0.000000e+00 0.000000e+00
      vertex   3.287047e+01 6.545056e-01 0.000000e+00
      vertex   3.268996e+01 5.212837e-01 0.000000e+00
    endloop
  endfacet
  facet normal 0.000000e+00 0.000000e+00 -1.000000e+00
    outer loop
      vertex   3.268996e+01 5.212837e-01 0.000000e+00
      vertex   3.250000e+01 4.019238e-01 0.000000e+00
      vertex   3.100000e+01 0.000000e+00 0.000000e+00
    endloop
  endfacet
  facet normal 0.000000e+00 0.000000e+00 -1.000000e+00
    outer loop
      vertex   3.100000e+01 0.000000e+00 0.000000e+00
      vertex   3.250000e+01 4.019238e-01 0.000000e+00
      vertex   3.230165e+01 2.970934e-01 0.000000e+00
    endloop
  endfacet
  facet normal 0.000000e+00 0.000000e+00 -1.000000e+00
    outer loop
      vertex   3.100000e+01 0.000000e+00 0.000000e+00
      vertex   3.230165e+01 2.970934e-01 0.000000e+00
      vertex   3.209602e+01 2.073788e-01 0.000000e+00
    endloop
  endfacet
  facet normal 0.000000e+00 0.000000e+00 -1.000000e+00
    outer loop
      vertex   3.209602e+01 2.073788e-01 0.000000e+00
      vertex   3.188427e+01 1.332816e-01 0.000000e+00
      vertex   3.100000e+01 0.000000e+00 0.000000e+00
    endloop
  endfacet
  facet normal 0.000000e+00 0.000000e+00 -1.000000e+00
    outer loop
      vertex   3.100000e+01 0.000000e+00 0.000000e+00
      vertex   3.188427e+01 1.332816e-01 0.000000e+00
      vertex   3.166756e+01 7.521626e-02 0.000000e+00
    endloop
  endfacet
  facet normal 0.000000e+00 0.000000e+00 -1.000000e+00
    outer loop
      vertex   3.100000e+01 0.000000e+00 0.000000e+00
      vertex   3.166756e+01 7.521626e-02 0.000000e+00
      vertex   3.144713e+01 3.350752e-02 0.000000e+00
    endloop
  endfacet
  facet normal 0.000000e+00 0.000000e+00 -1.000000e+00
    outer loop
      vertex   3.144713e+01 3.350752e-02 0.000000e+00
      vertex   3.122419e+01 8.388608e-03 0.000000e+00
      vertex   3.100000e+01 0.000000e+00 0.000000e+00
    endloop
  endfacet
  facet normal 0.000000e+00 0.000000e+00 -1.000000e+00
    outer loop
      vertex   3.100000e+01 0.000000e+00 0.000000e+00
      vertex   3.000000e+00 0.000000e+00 0.000000e+00
      vertex   2.700000e+01 5.000000e+00 0.000000e+00
    endloop
  endfacet
  facet normal 0.000000e+00 0.000000e+00 -1.000000e+00
    outer loop
      vertex   2.775810e+00 8.388608e-03 0.000000e+00
      vertex   2.552873e+00 3.350752e-02 0.000000e+00
      vertex   3.000000e+00 0.000000e+00 0.000000e+00
    endloop
  endfacet
  facet normal 0.000000e+00 0.000000e+00 -1.000000e+00
    outer loop
      vertex   3.000000e+00 0.000000e+00 0.000000e+00
      vertex   2.552873e+00 3.350752e-02 0.000000e+00
      vertex   2.332437e+00 7.521626e-02 0.000000e+00
    endloop
  endfacet
  facet normal 0.000000e+00 0.000000e+00 -1.000000e+00
    outer loop
      vertex   3.000000e+00 0.000000e+00 0.000000e+00
      vertex   2.332437e+00 7.521626e-02 0.000000e+00
      vertex   2.115734e+00 1.332816e-01 0.000000e+00
    endloop
  endfacet
  facet normal 0.000000e+00 0.000000e+00 -1.000000e+00
    outer loop
      vertex   2.115734e+00 1.332816e-01 0.000000e+00
      vertex   1.903977e+00 2.073788e-01 0.000000e+00
      vertex   3.000000e+00 0.000000e+00 0.000000e+00
    endloop
  endfacet
  facet normal 0.000000e+00 0.000000e+00 -1.000000e+00
    outer loop
      vertex   3.000000e+00 0.000000e+00 0.000000e+00
      vertex   1.903977e+00 2.073788e-01 0.000000e+00
      vertex   1.698349e+00 2.970934e-01 0.000000e+00
    endloop
  endfacet
  facet normal 0.000000e+00 0.000000e+00 -1.000000e+00
    outer loop
      vertex   3.000000e+00 0.000000e+00 0.000000e+00
      vertex   1.698349e+00 2.970934e-01 0.000000e+00
      vertex   1.500000e+00 4.019238e-01 0.000000e+00
    endloop
  endfacet
  facet normal 0.000000e+00 0.000000e+00 -1.000000e+00
    outer loop
      vertex   1.500000e+00 4.019238e-01 0.000000e+00
      vertex   1.310040e+00 5.212837e-01 0.000000e+00
      vertex   3.000000e+00 0.000000e+00 0.000000e+00
    endloop
  endfacet
  facet normal 0.000000e+00 0.000000e+00 -1.000000e+00
    outer loop
      vertex   3.000000e+00 0.000000e+00 0.000000e+00
      vertex   1.310040e+00 5.212837e-01 0.000000e+00
      vertex   1.129531e+00 6.545056e-01 0.000000e+00
    endloop
  endfacet
  facet normal 0.000000e+00 0.000000e+00 -1.000000e+00
    outer loop
      vertex   3.000000e+00 0.000000e+00 0.000000e+00
      vertex   1.129531e+00 6.545056e-01 0.000000e+00
      vertex   9.594818e-01 8.008444e-01 0.000000e+00
    endloop
  endfacet
  facet normal 0.000000e+00 0.000000e+00 -1.000000e+00
    outer loop
      vertex   9.594818e-01 8.008444e-01 0.000000e+00
      vertex   8.008444e-01 9.594818e-01 0.000000e+00
      vertex   3.000000e+00 0.000000e+00 0.000000e+00
    endloop
  endfacet
  facet normal 0.000000e+00 0.000000e+00 -1.000000e+00
    outer loop
      vertex   3.000000e+00 0.000000e+00 0.000000e+00
      vertex   8.008444e-01 9.594818e-01 0.000000e+00
      vertex   6.545056e-01 1.129531e+00 0.000000e+00
    endloop
  endfacet
  facet normal 0.000000e+00 0.000000e+00 -1.000000e+00
    outer loop
      vertex   3.000000e+00 0.000000e+00 0.000000e+00
      vertex   6.545056e-01 1.129531e+00 0.000000e+00
      vertex   5.212837e-01 1.310040e+00 0.000000e+00
    endloop
  endfacet
  facet normal 0.000000e+00 0.000000e+00 -1.000000e+00
    outer loop
      vertex   5.212837e-01 1.310040e+00 0.000000e+00
      vertex   4.019238e-01 1.500000e+00 0.000000e+00
      vertex   3.000000e+00 0.000000e+00 0.000000e+00
    endloop
  endfacet
  facet normal 0.000000e+00 0.000000e+00 -1.000000e+00
    outer loop
      vertex   3.000000e+00 0.000000e+00 0.000000e+00
      vertex   4.019238e-01 1.500000e+00 0.000000e+00
      vertex   2.970934e-01 1.698349e+00 0.000000e+00
    endloop
  endfacet
  facet normal 0.000000e+00 0.000000e+00 -1.000000e+00
    outer loop
      vertex   3.000000e+00 0.000000e+00 0.000000e+00
      vertex   2.970934e-01 1.698349e+00 0.000000e+00
      vertex   2.073788e-01 1.903977e+00 0.000000e+00
    endloop
  endfacet
  facet normal 0.000000e+00 0.000000e+00 -1.000000e+00
    outer loop
      vertex   2.073788e-01 1.903977e+00 0.000000e+00
      vertex   1.332816e-01 2.115734e+00 0.000000e+00
      vertex   3.000000e+00 0.000000e+00 0.000000e+00
    endloop
  endfacet
  facet normal 0.000000e+00 0.000000e+00 -1.000000e+00
    outer loop
      vertex   3.000000e+00 0.000000e+00 0.000000e+00
      vertex   1.332816e-01 2.115734e+00 0.000000e+00
      vertex   7.521626e-02 2.332437e+00 0.000000e+00
    endloop
  endfacet
  facet normal 0.000000e+00 0.000000e+00 -1.000000e+00
    outer loop
      vertex   3.000000e+00 0.000000e+00 0.000000e+00
      vertex   7.521626e-02 2.332437e+00 0.000000e+00
      vertex   3.350752e-02 2.552873e+00 0.000000e+00
    endloop
  endfacet
  facet normal 0.000000e+00 0.000000e+00 -1.000000e+00
    outer loop
      vertex   8.388608e-03 2.775810e+00 0.000000e+00
      vertex   0.000000e+00 3.000000e+00 0.000000e+00
      vertex   7.000000e+00 5.000000e+00 0.000000e+00
    endloop
  endfacet
  facet normal 0.000000e+00 0.000000e+00 -1.000000e+00
    outer loop
      vertex   0.000000e+00 3.000000e+00 0.000000e+00
      vertex   0.000000e+00 2.200000e+01 0.000000e+00
      vertex   7.000000e+00 1.500000e+01 0.000000e+00
    endloop
  endfacet
  facet normal 0.000000e+00 0.000000e+00 -1.000000e+00
    outer loop
      vertex   7.521626e-02 2.266756e+01 0.000000e+00
      vertex   1.332816e-01 2.288427e+01 0.000000e+00
      vertex   3.000000e+00 2.500000e+01 0.000000e+00
    endloop
  endfacet
  facet normal 0.000000e+00 0.000000e+00 -1.000000e+00
    outer loop
      vertex   3.000000e+00 2.500000e+01 0.000000e+00
      vertex   1.332816e-01 2.288427e+01 0.000000e+00
      vertex   2.073788e-01 2.309602e+01 0.000000e+00
    endloop
  endfacet
  facet normal 0.000000e+00 0.000000e+00 -1.000000e+00
    outer loop
      vertex   3.000000e+00 2.500000e+01 0.000000e+00
      vertex   2.073788e-01 2.309602e+01 0.000000e+00
      vertex   2.970934e-01 2.330165e+01 0.000000e+00
    endloop
  endfacet
  facet normal 0.000000e+00 0.000000e+00 -1.000000e+00
    outer loop
      vertex   2.970934e-01 2.330165e+01 0.000000e+00
      vertex   4.019238e-01 2.350000e+01 0.000000e+00
      vertex   3.000000e+00 2.500000e+01 0.000000e+00
    endloop
  endfacet
  facet normal 0.000000e+00 0.000000e+00 -1.000000e+00
    outer loop
      vertex   3.000000e+00 2.500000e+01 0.000000e+00
      vertex   4.019238e-01 2.350000e+01 0.000000e+00
      vertex   5.212837e-01 2.368996e+01 0.000000e+00
    endloop
  endfacet
  facet normal 0.000000e+00 0.000000e+00 -1.000000e+00
    outer loop
      vertex   3.000000e+00 2.500000e+01 0.000000e+00
      vertex   5.212837e-01 2.368996e+01 0.000000e+00
      vertex   6.545056e-01 2.387047e+01 0.000000e+00
    endloop
  endfacet
  facet normal 0.000000e+00 0.000000e+00 -1.000000e+00
    outer loop
      vertex   6.545056e-01 2.387047e+01 0.000000e+00
      vertex   8.008444e-01 2.404052e+01 0.000000e+00
      vertex   3.000000e+00 2.500000e+01 0.000000e+00
    endloop
  endfacet
  facet normal 0.000000e+00 0.000000e+00 -1.000000e+00
    outer loop
      vertex   3.000000e+00 2.500000e+01 0.000000e+00
      vertex   8.008444e-01 2.404052e+01 0.000000e+00
      vertex   9.594818e-01 2.419916e+01 0.000000e+00
    endloop
  endfacet
  facet normal 0.000000e+00 0.000000e+00 -1.000000e+00
    outer loop
      vertex   3.000000e+00 2.500000e+01 0.000000e+00
      vertex   9.594818e-01 2.419916e+01 0.000000e+00
      vertex   1.129531e+00 2.434549e+01 0.000000e+00
    endloop
  endfacet
  facet normal 0.000000e+00 0.000000e+00 -1.000000e+00
    outer loop
      vertex   1.129531e+00 2.434549e+01 0.000000e+00
      vertex   1.310040e+00 2.447872e+01 0.000000e+00
      vertex   3.000000e+00 2.500000e+01 0.000000e+00
    endloop
  endfacet
  facet normal 0.000000e+00 0.000000e+00 -1.000000e+00
    outer loop
      vertex   3.000000e+00 2.500000e+01 0.000000e+00
      vertex   1.310040e+00 2.447872e+01 0.000000e+00
      vertex   1.500000e+00 2.459808e+01 0.000000e+00
    endloop
  endfacet
  facet normal 0.000000e+00 0.000000e+00 -1.000000e+00
    outer loop
      vertex   3.000000e+00 2.500000e+01 0.000000e+00
      vertex   1.500000e+00 2.459808e+01 0.000000e+00
      vertex   1.698349e+00 2.470291e+01 0.000000e+00
    endloop
  endfacet
  facet normal 0.000000e+00 0.000000e+00 -1.000000e+00
    outer loop
      vertex   1.698349e+00 2.470291e+01 0.000000e+00
      vertex   1.903977e+00 2.479262e+01 0.000000e+00
      vertex   3.000000e+00 2.500000e+01 0.000000e+00
    endloop
  endfacet
  facet normal 0.000000e+00 0.000000e+00 -1.000000e+00
    outer loop
      vertex   3.000000e+00 2.500000e+01 0.000000e+00
      vertex   1.903977e+00 2.479262e+01 0.000000e+00
      vertex   2.115734e+00 2.486672e+01 0.000000e+00
    endloop
  endfacet
  facet normal 0.000000e+00 0.000000e+00 -1.000000e+00
    outer loop
      vertex   3.000000e+00 2.500000e+01 0.000000e+00
      vertex   2.115734e+00 2.486672e+01 0.000000e+00
      vertex   2.332437e+00 2.492478e+01 0.000000e+00
    endloop
  endfacet
  facet normal 0.000000e+00 0.000000e+00 -1.000000e+00
    outer loop
      vertex   2.332437e+00 2.492478e+01 0.000000e+00
      vertex   2.552873e+00 2.496649e+01 0.000000e+00
      vertex   3.000000e+00 2.500000e+01 0.000000e+00
    endloop
  endfacet
  facet normal 0.000000e+00 0.000000e+00 -1.000000e+00
    outer loop
      vertex   3.000000e+00 2.500000e+01 0.000000e+00
      vertex   2.552873e+00 2.496649e+01 0.000000e+00
      vertex   2.775810e+00 2.499161e+01 0.000000e+00
    endloop
  endfacet
  facet normal -9.993007e-01 3.739119e-02 0.000000e+00
    outer loop
      vertex   0.000000e+00 2.200000e+01 5.000000e+00
      vertex   8.388608e-03 2.222419e+01 5.000000e+00
      vertex   0.000000e+00 2.200000e+01 0.000000e+00
    endloop
  endfacet
  facet normal -9.993007e-01 3.739119e-02 -5.547938e-17
    outer loop
      vertex   0.000000e+00 2.200000e+01 0.000000e+00
      vertex   8.388608e-03 2.222419e+01 5.000000e+00
      vertex   8.388608e-03 2.222419e+01 0.000000e+00
    endloop
  endfacet
  facet normal -9.937122e-01 1.119645e-01 -5.516211e-17
    outer loop
      vertex   8.388608e-03 2.222419e+01 0.000000e+00
      vertex   8.388608e-03 2.222419e+01 5.000000e+00
      vertex   3.350752e-02 2.244713e+01 5.000000e+00
    endloop
  endfacet
  facet normal -9.937122e-01 1.119645e-01 0.000000e+00
    outer loop
      vertex   8.388608e-03 2.222419e+01 0.000000e+00
      vertex   3.350752e-02 2.244713e+01 5.000000e+00
      vertex   3.350752e-02 2.244713e+01 0.000000e+00
    endloop
  endfacet
  facet normal -9.825665e-01 1.859116e-01 0.000000e+00
    outer loop
      vertex   3.350752e-02 2.244713e+01 0.000000e+00
      vertex   3.350752e-02 2.244713e+01 5.000000e+00
      vertex   7.521626e-02 2.266756e+01 5.000000e+00
    endloop
  endfacet
  facet normal -9.825665e-01 1.859116e-01 -2.783634e-17
    outer loop
      vertex   3.350752e-02 2.244713e+01 0.000000e+00
      vertex   7.521626e-02 2.266756e+01 5.000000e+00
      vertex   7.521626e-02 2.266756e+01 0.000000e+00
    endloop
  endfacet
  facet normal -9.659258e-01 2.588190e-01 -2.680983e-17
    outer loop
      vertex   7.521626e-02 2.266756e+01 0.000000e+00
      vertex   7.521626e-02 2.266756e+01 5.000000e+00
      vertex   1.332816e-01 2.288427e+01 5.000000e+00
    endloop
  endfacet
  facet normal -9.659258e-01 2.588190e-01 -5.412622e-17
    outer loop
      vertex   7.521626e-02 2.266756e+01 0.000000e+00
      vertex   1.332816e-01 2.288427e+01 5.000000e+00
      vertex   1.332816e-01 2.288427e+01 0.000000e+00
    endloop
  endfacet
  facet normal -9.438833e-01 3.302791e-01 -5.239605e-17
    outer loop
      vertex   1.332816e-01 2.288427e+01 0.000000e+00
      vertex   1.332816e-01 2.288427e+01 5.000000e+00
      vertex   2.073788e-01 2.309602e+01 5.000000e+00
    endloop
  endfacet
  facet normal -9.438833e-01 3.302791e-01 2.783634e-17
    outer loop
      vertex   1.332816e-01 2.288427e+01 0.000000e+00
      vertex   2.073788e-01 2.309602e+01 5.000000e+00
      vertex   2.073788e-01 2.309602e+01 0.000000e+00
    endloop
  endfacet
  facet normal -9.165623e-01 3.998920e-01 2.543971e-17
    outer loop
      vertex   2.073788e-01 2.309602e+01 0.000000e+00
      vertex   2.073788e-01 2.309602e+01 5.000000e+00
      vertex   2.970934e-01 2.330165e+01 5.000000e+00
    endloop
  endfacet
  facet normal -9.165623e-01 3.998920e-01 0.000000e+00
    outer loop
      vertex   2.073788e-01 2.309602e+01 0.000000e+00
      vertex   2.970934e-01 2.330165e+01 5.000000e+00
      vertex   2.970934e-01 2.330165e+01 0.000000e+00
    endloop
  endfacet
  facet normal -8.841154e-01 4.672686e-01 0.000000e+00
    outer loop
      vertex   2.970934e-01 2.330165e+01 0.000000e+00
      vertex   2.970934e-01 2.330165e+01 5.000000e+00
      vertex   4.019238e-01 2.350000e+01 5.000000e+00
    endloop
  endfacet
  facet normal -8.841154e-01 4.672686e-01 -4.020805e-17
    outer loop
      vertex   2.970934e-01 2.330165e+01 0.000000e+00
      vertex   4.019238e-01 2.350000e+01 5.000000e+00
      vertex   4.019238e-01 2.350000e+01 0.000000e+00
    endloop
  endfacet
  facet normal -8.467242e-01 5.320321e-01 -3.760211e-17
    outer loop
      vertex   4.019238e-01 2.350000e+01 0.000000e+00
      vertex   4.019238e-01 2.350000e+01 5.000000e+00
      vertex   5.212837e-01 2.368996e+01 5.000000e+00
    endloop
  endfacet
  facet normal -8.467242e-01 5.320321e-01 -3.711512e-17
    outer loop
      vertex   4.019238e-01 2.350000e+01 0.000000e+00
      vertex   5.212837e-01 2.368996e+01 5.000000e+00
      vertex   5.212837e-01 2.368996e+01 0.000000e+00
    endloop
  endfacet
  facet normal -8.045978e-01 5.938202e-01 -3.573132e-17
    outer loop
      vertex   5.212837e-01 2.368996e+01 0.000000e+00
      vertex   5.212837e-01 2.368996e+01 5.000000e+00
      vertex   6.545056e-01 2.387047e+01 5.000000e+00
    endloop
  endfacet
  facet normal -8.045978e-01 5.938202e-01 -3.711512e-17
    outer loop
      vertex   5.212837e-01 2.368996e+01 0.000000e+00
      vertex   6.545056e-01 2.387047e+01 5.000000e+00
      vertex   6.545056e-01 2.387047e+01 0.000000e+00
    endloop
  endfacet
  facet normal -7.579717e-01 6.522874e-01 -3.366071e-17
    outer loop
      vertex   6.545056e-01 2.387047e+01 0.000000e+00
      vertex   6.545056e-01 2.387047e+01 5.000000e+00
      vertex   8.008444e-01 2.404052e+01 5.000000e+00
    endloop
  endfacet
  facet normal -7.579717e-01 6.522874e-01 0.000000e+00
    outer loop
      vertex   6.545056e-01 2.387047e+01 0.000000e+00
      vertex   8.008444e-01 2.404052e+01 5.000000e+00
      vertex   8.008444e-01 2.404052e+01 0.000000e+00
    endloop
  endfacet
  facet normal -7.071068e-01 7.071068e-01 0.000000e+00
    outer loop
      vertex   8.008444e-01 2.404052e+01 0.000000e+00
      vertex   8.008444e-01 2.404052e+01 5.000000e+00
      vertex   9.594818e-01 2.419916e+01 5.000000e+00
    endloop
  endfacet
  facet normal -7.071068e-01 7.071068e-01 -7.732317e-17
    outer loop
      vertex   8.008444e-01 2.404052e+01 0.000000e+00
      vertex   9.594818e-01 2.419916e+01 5.000000e+00
      vertex   9.594818e-01 2.419916e+01 0.000000e+00
    endloop
  endfacet
  facet normal -6.522874e-01 7.579717e-01 -7.241845e-17
    outer loop
      vertex   9.594818e-01 2.419916e+01 0.000000e+00
      vertex   9.594818e-01 2.419916e+01 5.000000e+00
      vertex   1.129531e+00 2.434549e+01 5.000000e+00
    endloop
  endfacet
  facet normal -6.522874e-01 7.579717e-01 -5.876561e-17
    outer loop
      vertex   9.594818e-01 2.419916e+01 0.000000e+00
      vertex   1.129531e+00 2.434549e+01 5.000000e+00
      vertex   1.129531e+00 2.434549e+01 0.000000e+00
    endloop
  endfacet
  facet normal -5.938202e-01 8.045978e-01 -5.274183e-17
    outer loop
      vertex   1.129531e+00 2.434549e+01 0.000000e+00
      vertex   1.129531e+00 2.434549e+01 5.000000e+00
      vertex   1.310040e+00 2.447872e+01 5.000000e+00
    endloop
  endfacet
  facet normal -5.938202e-01 8.045978e-01 -2.474342e-17
    outer loop
      vertex   1.129531e+00 2.434549e+01 0.000000e+00
      vertex   1.310040e+00 2.447872e+01 5.000000e+00
      vertex   1.310040e+00 2.447872e+01 0.000000e+00
    endloop
  endfacet
  facet normal -5.320321e-01 8.467242e-01 -2.362697e-17
    outer loop
      vertex   1.310040e+00 2.447872e+01 0.000000e+00
      vertex   1.310040e+00 2.447872e+01 5.000000e+00
      vertex   1.500000e+00 2.459808e+01 5.000000e+00
    endloop
  endfacet
  facet normal -5.320321e-01 8.467242e-01 -2.474342e-17
    outer loop
      vertex   1.310040e+00 2.447872e+01 0.000000e+00
      vertex   1.500000e+00 2.459808e+01 5.000000e+00
      vertex   1.500000e+00 2.459808e+01 0.000000e+00
    endloop
  endfacet
  facet normal -4.672686e-01 8.841154e-01 -2.075090e-17
    outer loop
      vertex   1.500000e+00 2.459808e+01 0.000000e+00
      vertex   1.500000e+00 2.459808e+01 5.000000e+00
      vertex   1.698349e+00 2.470291e+01 5.000000e+00
    endloop
  endfacet
  facet normal -4.672686e-01 8.841154e-01 0.000000e+00
    outer loop
      vertex   1.500000e+00 2.459808e+01 0.000000e+00
      vertex   1.698349e+00 2.470291e+01 5.000000e+00
      vertex   1.698349e+00 2.470291e+01 0.000000e+00
    endloop
  endfacet
  facet normal -3.998920e-01 9.165623e-01 0.000000e+00
    outer loop
      vertex   1.698349e+00 2.470291e+01 0.000000e+00
      vertex   1.698349e+00 2.470291e+01 5.000000e+00
      vertex   1.903977e+00 2.479262e+01 5.000000e+00
    endloop
  endfacet
  facet normal -3.998920e-01 9.165623e-01 -3.402220e-17
    outer loop
      vertex   1.698349e+00 2.470291e+01 0.000000e+00
      vertex   1.903977e+00 2.479262e+01 5.000000e+00
      vertex   1.903977e+00 2.479262e+01 0.000000e+00
    endloop
  endfacet
  facet normal -3.302791e-01 9.438833e-01 -2.933467e-17
    outer loop
      vertex   1.903977e+00 2.479262e+01 0.000000e+00
      vertex   1.903977e+00 2.479262e+01 5.000000e+00
      vertex   2.115734e+00 2.486672e+01 5.000000e+00
    endloop
  endfacet
  facet normal -3.302791e-01 9.438833e-01 -5.876561e-17
    outer loop
      vertex   1.903977e+00 2.479262e+01 0.000000e+00
      vertex   2.115734e+00 2.486672e+01 5.000000e+00
      vertex   2.115734e+00 2.486672e+01 0.000000e+00
    endloop
  endfacet
  facet normal -2.588190e-01 9.659258e-01 -4.597550e-17
    outer loop
      vertex   2.115734e+00 2.486672e+01 0.000000e+00
      vertex   2.115734e+00 2.486672e+01 5.000000e+00
      vertex   2.332437e+00 2.492478e+01 5.000000e+00
    endloop
  endfacet
  facet normal -2.588190e-01 9.659258e-01 0.000000e+00
    outer loop
      vertex   2.115734e+00 2.486672e+01 0.000000e+00
      vertex   2.332437e+00 2.492478e+01 5.000000e+00
      vertex   2.332437e+00 2.492478e+01 0.000000e+00
    endloop
  endfacet
  facet normal -1.859116e-01 9.825665e-01 0.000000e+00
    outer loop
      vertex   2.332437e+00 2.492478e+01 0.000000e+00
      vertex   2.332437e+00 2.492478e+01 5.000000e+00
      vertex   2.552873e+00 2.496649e+01 5.000000e+00
    endloop
  endfacet
  facet normal -1.859116e-01 9.825665e-01 0.000000e+00
    outer loop
      vertex   2.332437e+00 2.492478e+01 0.000000e+00
      vertex   2.552873e+00 2.496649e+01 5.000000e+00
      vertex   2.552873e+00 2.496649e+01 0.000000e+00
    endloop
  endfacet
  facet normal -1.119645e-01 9.937122e-01 0.000000e+00
    outer loop
      vertex   2.552873e+00 2.496649e+01 0.000000e+00
      vertex   2.552873e+00 2.496649e+01 5.000000e+00
      vertex   2.775810e+00 2.499161e+01 5.000000e+00
    endloop
  endfacet
  facet normal -1.119645e-01 9.937122e-01 -2.010403e-17
    outer loop
      vertex   2.552873e+00 2.496649e+01 0.000000e+00
      vertex   2.775810e+00 2.499161e+01 5.000000e+00
      vertex   2.775810e+00 2.499161e+01 0.000000e+00
    endloop
  endfacet
  facet normal -3.739119e-02 9.993007e-01 -6.642010e-18
    outer loop
      vertex   2.775810e+00 2.499161e+01 0.000000e+00
      vertex   2.775810e+00 2.499161e+01 5.000000e+00
      vertex   3.000000e+00 2.500000e+01 5.000000e+00
    endloop
  endfacet
  facet normal -3.739119e-02 9.993007e-01 0.000000e+00
    outer loop
      vertex   2.775810e+00 2.499161e+01 0.000000e+00
      vertex   3.000000e+00 2.500000e+01 5.000000e+00
      vertex   3.000000e+00 2.500000e+01 0.000000e+00
    endloop
  endfacet
  facet normal -1.000000e+00 0.000000e+00 0.000000e+00
    outer loop
      vertex   0.000000e+00 2.200000e+01 0.000000e+00
      vertex   0.000000e+00 3.000000e+00 0.000000e+00
      vertex   0.000000e+00 2.200000e+01 5.000000e+00
    endloop
  endfacet
  facet normal -1.000000e+00 -0.000000e+00 0.000000e+00
    outer loop
      vertex   0.000000e+00 2.200000e+01 5.000000e+00
      vertex   0.000000e+00 3.000000e+00 0.000000e+00
      vertex   0.000000e+00 3.000000e+00 5.000000e+00
    endloop
  endfacet
  facet normal -3.739119e-02 -9.993007e-01 -0.000000e+00
    outer loop
      vertex   3.000000e+00 0.000000e+00 5.000000e+00
      vertex   2.775810e+00 8.388608e-03 5.000000e+00
      vertex   3.000000e+00 0.000000e+00 0.000000e+00
    endloop
  endfacet
  facet normal -3.739119e-02 -9.993007e-01 0.000000e+00
    outer loop
      vertex   3.000000e+00 0.000000e+00 0.000000e+00
      vertex   2.775810e+00 8.388608e-03 5.000000e+00
      vertex   2.775810e+00 8.388608e-03 0.000000e+00
    endloop
  endfacet
  facet normal -1.119645e-01 -9.937122e-01 0.000000e+00
    outer loop
      vertex   2.775810e+00 8.388608e-03 0.000000e+00
      vertex   2.775810e+00 8.388608e-03 5.000000e+00
      vertex   2.552873e+00 3.350752e-02 5.000000e+00
    endloop
  endfacet
  facet normal -1.119645e-01 -9.937122e-01 -5.567268e-17
    outer loop
      vertex   2.775810e+00 8.388608e-03 0.000000e+00
      vertex   2.552873e+00 3.350752e-02 5.000000e+00
      vertex   2.552873e+00 3.350752e-02 0.000000e+00
    endloop
  endfacet
  facet normal -1.859116e-01 -9.825665e-01 -5.454340e-17
    outer loop
      vertex   2.552873e+00 3.350752e-02 0.000000e+00
      vertex   2.552873e+00 3.350752e-02 5.000000e+00
      vertex   2.332437e+00 7.521626e-02 5.000000e+00
    endloop
  endfacet
  facet normal -1.859116e-01 -9.825665e-01 3.711512e-17
    outer loop
      vertex   2.552873e+00 3.350752e-02 0.000000e+00
      vertex   2.332437e+00 7.521626e-02 5.000000e+00
      vertex   2.332437e+00 7.521626e-02 0.000000e+00
    endloop
  endfacet
  facet normal -2.588190e-01 -9.659258e-01 3.063191e-17
    outer loop
      vertex   2.332437e+00 7.521626e-02 0.000000e+00
      vertex   2.332437e+00 7.521626e-02 5.000000e+00
      vertex   2.115734e+00 1.332816e-01 5.000000e+00
    endloop
  endfacet
  facet normal -2.588190e-01 -9.659258e-01 5.721915e-17
    outer loop
      vertex   2.332437e+00 7.521626e-02 0.000000e+00
      vertex   2.115734e+00 1.332816e-01 5.000000e+00
      vertex   2.115734e+00 1.332816e-01 0.000000e+00
    endloop
  endfacet
  facet normal -3.302791e-01 -9.438833e-01 4.925940e-17
    outer loop
      vertex   2.115734e+00 1.332816e-01 0.000000e+00
      vertex   2.115734e+00 1.332816e-01 5.000000e+00
      vertex   1.903977e+00 2.073788e-01 5.000000e+00
    endloop
  endfacet
  facet normal -3.302791e-01 -9.438833e-01 -4.020805e-17
    outer loop
      vertex   2.115734e+00 1.332816e-01 0.000000e+00
      vertex   1.903977e+00 2.073788e-01 5.000000e+00
      vertex   1.903977e+00 2.073788e-01 0.000000e+00
    endloop
  endfacet
  facet normal -3.998920e-01 -9.165623e-01 -4.319849e-17
    outer loop
      vertex   1.903977e+00 2.073788e-01 0.000000e+00
      vertex   1.903977e+00 2.073788e-01 5.000000e+00
      vertex   1.698349e+00 2.970934e-01 5.000000e+00
    endloop
  endfacet
  facet normal -3.998920e-01 -9.165623e-01 0.000000e+00
    outer loop
      vertex   1.903977e+00 2.073788e-01 0.000000e+00
      vertex   1.698349e+00 2.970934e-01 5.000000e+00
      vertex   1.698349e+00 2.970934e-01 0.000000e+00
    endloop
  endfacet
  facet normal -4.672686e-01 -8.841154e-01 0.000000e+00
    outer loop
      vertex   1.698349e+00 2.970934e-01 0.000000e+00
      vertex   1.698349e+00 2.970934e-01 5.000000e+00
      vertex   1.500000e+00 4.019238e-01 5.000000e+00
    endloop
  endfacet
  facet normal -4.672686e-01 -8.841154e-01 2.783634e-17
    outer loop
      vertex   1.698349e+00 2.970934e-01 0.000000e+00
      vertex   1.500000e+00 4.019238e-01 5.000000e+00
      vertex   1.500000e+00 4.019238e-01 0.000000e+00
    endloop
  endfacet
  facet normal -5.320321e-01 -8.467242e-01 2.820158e-17
    outer loop
      vertex   1.500000e+00 4.019238e-01 0.000000e+00
      vertex   1.500000e+00 4.019238e-01 5.000000e+00
      vertex   1.310040e+00 5.212837e-01 5.000000e+00
    endloop
  endfacet
  facet normal -5.320321e-01 -8.467242e-01 1.237171e-17
    outer loop
      vertex   1.500000e+00 4.019238e-01 0.000000e+00
      vertex   1.310040e+00 5.212837e-01 5.000000e+00
      vertex   1.310040e+00 5.212837e-01 0.000000e+00
    endloop
  endfacet
  facet normal -5.938202e-01 -8.045978e-01 9.360406e-18
    outer loop
      vertex   1.310040e+00 5.212837e-01 0.000000e+00
      vertex   1.310040e+00 5.212837e-01 5.000000e+00
      vertex   1.129531e+00 6.545056e-01 5.000000e+00
    endloop
  endfacet
  facet normal -5.938202e-01 -8.045978e-01 -8.041610e-17
    outer loop
      vertex   1.310040e+00 5.212837e-01 0.000000e+00
      vertex   1.129531e+00 6.545056e-01 5.000000e+00
      vertex   1.129531e+00 6.545056e-01 0.000000e+00
    endloop
  endfacet
  facet normal -6.522874e-01 -7.579717e-01 -8.690214e-17
    outer loop
      vertex   1.129531e+00 6.545056e-01 0.000000e+00
      vertex   1.129531e+00 6.545056e-01 5.000000e+00
      vertex   9.594818e-01 8.008444e-01 5.000000e+00
    endloop
  endfacet
  facet normal -6.522874e-01 -7.579717e-01 0.000000e+00
    outer loop
      vertex   1.129531e+00 6.545056e-01 0.000000e+00
      vertex   9.594818e-01 8.008444e-01 5.000000e+00
      vertex   9.594818e-01 8.008444e-01 0.000000e+00
    endloop
  endfacet
  facet normal -7.071068e-01 -7.071068e-01 0.000000e+00
    outer loop
      vertex   9.594818e-01 8.008444e-01 0.000000e+00
      vertex   9.594818e-01 8.008444e-01 5.000000e+00
      vertex   8.008444e-01 9.594818e-01 5.000000e+00
    endloop
  endfacet
  facet normal -7.071068e-01 -7.071068e-01 0.000000e+00
    outer loop
      vertex   9.594818e-01 8.008444e-01 0.000000e+00
      vertex   8.008444e-01 9.594818e-01 5.000000e+00
      vertex   8.008444e-01 9.594818e-01 0.000000e+00
    endloop
  endfacet
  facet normal -7.579717e-01 -6.522874e-01 0.000000e+00
    outer loop
      vertex   8.008444e-01 9.594818e-01 0.000000e+00
      vertex   8.008444e-01 9.594818e-01 5.000000e+00
      vertex   6.545056e-01 1.129531e+00 5.000000e+00
    endloop
  endfacet
  facet normal -7.579717e-01 -6.522874e-01 1.237171e-17
    outer loop
      vertex   8.008444e-01 9.594818e-01 0.000000e+00
      vertex   6.545056e-01 1.129531e+00 5.000000e+00
      vertex   6.545056e-01 1.129531e+00 0.000000e+00
    endloop
  endfacet
  facet normal -8.045978e-01 -5.938202e-01 8.505254e-18
    outer loop
      vertex   6.545056e-01 1.129531e+00 0.000000e+00
      vertex   6.545056e-01 1.129531e+00 5.000000e+00
      vertex   5.212837e-01 1.310040e+00 5.000000e+00
    endloop
  endfacet
  facet normal -8.045978e-01 -5.938202e-01 -9.278781e-18
    outer loop
      vertex   6.545056e-01 1.129531e+00 0.000000e+00
      vertex   5.212837e-01 1.310040e+00 5.000000e+00
      vertex   5.212837e-01 1.310040e+00 0.000000e+00
    endloop
  endfacet
  facet normal -8.467242e-01 -5.320321e-01 -1.397514e-17
    outer loop
      vertex   5.212837e-01 1.310040e+00 0.000000e+00
      vertex   5.212837e-01 1.310040e+00 5.000000e+00
      vertex   4.019238e-01 1.500000e+00 5.000000e+00
    endloop
  endfacet
  facet normal -8.467242e-01 -5.320321e-01 5.876561e-17
    outer loop
      vertex   5.212837e-01 1.310040e+00 0.000000e+00
      vertex   4.019238e-01 1.500000e+00 5.000000e+00
      vertex   4.019238e-01 1.500000e+00 0.000000e+00
    endloop
  endfacet
  facet normal -8.841154e-01 -4.672686e-01 5.131744e-17
    outer loop
      vertex   4.019238e-01 1.500000e+00 0.000000e+00
      vertex   4.019238e-01 1.500000e+00 5.000000e+00
      vertex   2.970934e-01 1.698349e+00 5.000000e+00
    endloop
  endfacet
  facet normal -8.841154e-01 -4.672686e-01 0.000000e+00
    outer loop
      vertex   4.019238e-01 1.500000e+00 0.000000e+00
      vertex   2.970934e-01 1.698349e+00 5.000000e+00
      vertex   2.970934e-01 1.698349e+00 0.000000e+00
    endloop
  endfacet
  facet normal -9.165623e-01 -3.998920e-01 0.000000e+00
    outer loop
      vertex   2.970934e-01 1.698349e+00 0.000000e+00
      vertex   2.970934e-01 1.698349e+00 5.000000e+00
      vertex   2.073788e-01 1.903977e+00 5.000000e+00
    endloop
  endfacet
  facet normal -9.165623e-01 -3.998920e-01 4.330098e-17
    outer loop
      vertex   2.970934e-01 1.698349e+00 0.000000e+00
      vertex   2.073788e-01 1.903977e+00 5.000000e+00
      vertex   2.073788e-01 1.903977e+00 0.000000e+00
    endloop
  endfacet
  facet normal -9.438833e-01 -3.302791e-01 4.086536e-17
    outer loop
      vertex   2.073788e-01 1.903977e+00 0.000000e+00
      vertex   2.073788e-01 1.903977e+00 5.000000e+00
      vertex   1.332816e-01 2.115734e+00 5.000000e+00
    endloop
  endfacet
  facet normal -9.438833e-01 -3.302791e-01 -5.257976e-17
    outer loop
      vertex   2.073788e-01 1.903977e+00 0.000000e+00
      vertex   1.332816e-01 2.115734e+00 5.000000e+00
      vertex   1.332816e-01 2.115734e+00 0.000000e+00
    endloop
  endfacet
  facet normal -9.659258e-01 -2.588190e-01 -5.361965e-17
    outer loop
      vertex   1.332816e-01 2.115734e+00 0.000000e+00
      vertex   1.332816e-01 2.115734e+00 5.000000e+00
      vertex   7.521626e-02 2.332437e+00 5.000000e+00
    endloop
  endfacet
  facet normal -9.659258e-01 -2.588190e-01 0.000000e+00
    outer loop
      vertex   1.332816e-01 2.115734e+00 0.000000e+00
      vertex   7.521626e-02 2.332437e+00 5.000000e+00
      vertex   7.521626e-02 2.332437e+00 0.000000e+00
    endloop
  endfacet
  facet normal -9.825665e-01 -1.859116e-01 0.000000e+00
    outer loop
      vertex   7.521626e-02 2.332437e+00 0.000000e+00
      vertex   7.521626e-02 2.332437e+00 5.000000e+00
      vertex   3.350752e-02 2.552873e+00 5.000000e+00
    endloop
  endfacet
  facet normal -9.825665e-01 -1.859116e-01 0.000000e+00
    outer loop
      vertex   7.521626e-02 2.332437e+00 0.000000e+00
      vertex   3.350752e-02 2.552873e+00 5.000000e+00
      vertex   3.350752e-02 2.552873e+00 0.000000e+00
    endloop
  endfacet
  facet normal -9.937122e-01 -1.119645e-01 0.000000e+00
    outer loop
      vertex   3.350752e-02 2.552873e+00 0.000000e+00
      vertex   3.350752e-02 2.552873e+00 5.000000e+00
      vertex   8.388608e-03 2.775810e+00 5.000000e+00
    endloop
  endfacet
  facet normal -9.937122e-01 -1.119645e-01 0.000000e+00
    outer loop
      vertex   3.350752e-02 2.552873e+00 0.000000e+00
      vertex   8.388608e-03 2.775810e+00 5.000000e+00
      vertex   8.388608e-03 2.775810e+00 0.000000e+00
    endloop
  endfacet
  facet normal -9.993007e-01 -3.739119e-02 0.000000e+00
    outer loop
      vertex   8.388608e-03 2.775810e+00 0.000000e+00
      vertex   8.388608e-03 2.775810e+00 5.000000e+00
      vertex   0.000000e+00 3.000000e+00 5.000000e+00
    endloop
  endfacet
  facet normal -9.993007e-01 -3.739119e-02 0.000000e+00
    outer loop
      vertex   8.388608e-03 2.775810e+00 0.000000e+00
      vertex   0.000000e+00 3.000000e+00 5.000000e+00
      vertex   0.000000e+00 3.000000e+00 0.000000e+00
    endloop
  endfacet
  facet normal 0.000000e+00 -1.000000e+00 0.000000e+00
    outer loop
      vertex   3.000000e+00 0.000000e+00 0.000000e+00
      vertex   3.100000e+01 0.000000e+00 0.000000e+00
      vertex   3.000000e+00 0.000000e+00 5.000000e+00
    endloop
  endfacet
  facet normal 0.000000e+00 -1.000000e+00 0.000000e+00
    outer loop
      vertex   3.000000e+00 0.000000e+00 5.000000e+00
      vertex   3.100000e+01 0.000000e+00 0.000000e+00
      vertex   3.100000e+01 0.000000e+00 5.000000e+00
    endloop
  endfacet
  facet normal 9.993007e-01 -3.739119e-02 0.000000e+00
    outer loop
      vertex   3.400000e+01 3.000000e+00 5.000000e+00
      vertex   3.399161e+01 2.775810e+00 5.000000e+00
      vertex   3.400000e+01 3.000000e+00 0.000000e+00
    endloop
  endfacet
  facet normal 9.993007e-01 -3.739119e-02 -6.572470e-18
    outer loop
      vertex   3.400000e+01 3.000000e+00 0.000000e+00
      vertex   3.399161e+01 2.775810e+00 5.000000e+00
      vertex   3.399161e+01 2.775810e+00 0.000000e+00
    endloop
  endfacet
  facet normal 9.937122e-01 -1.119645e-01 -1.988889e-17
    outer loop
      vertex   3.399161e+01 2.775810e+00 0.000000e+00
      vertex   3.399161e+01 2.775810e+00 5.000000e+00
      vertex   3.396649e+01 2.552873e+00 5.000000e+00
    endloop
  endfacet
  facet normal 9.937122e-01 -1.119645e-01 0.000000e+00
    outer loop
      vertex   3.399161e+01 2.775810e+00 0.000000e+00
      vertex   3.396649e+01 2.552873e+00 5.000000e+00
      vertex   3.396649e+01 2.552873e+00 0.000000e+00
    endloop
  endfacet
  facet normal 9.825665e-01 -1.859116e-01 0.000000e+00
    outer loop
      vertex   3.396649e+01 2.552873e+00 0.000000e+00
      vertex   3.396649e+01 2.552873e+00 5.000000e+00
      vertex   3.392478e+01 2.332437e+00 5.000000e+00
    endloop
  endfacet
  facet normal 9.825665e-01 -1.859116e-01 0.000000e+00
    outer loop
      vertex   3.396649e+01 2.552873e+00 0.000000e+00
      vertex   3.392478e+01 2.332437e+00 5.000000e+00
      vertex   3.392478e+01 2.332437e+00 0.000000e+00
    endloop
  endfacet
  facet normal 9.659258e-01 -2.588190e-01 0.000000e+00
    outer loop
      vertex   3.392478e+01 2.332437e+00 0.000000e+00
      vertex   3.392478e+01 2.332437e+00 5.000000e+00
      vertex   3.386672e+01 2.115734e+00 5.000000e+00
    endloop
  endfacet
  facet normal 9.659258e-01 -2.588190e-01 -2.319695e-17
    outer loop
      vertex   3.392478e+01 2.332437e+00 0.000000e+00
      vertex   3.386672e+01 2.115734e+00 5.000000e+00
      vertex   3.386672e+01 2.115734e+00 0.000000e+00
    endloop
  endfacet
  facet normal 9.438833e-01 -3.302791e-01 -2.933467e-17
    outer loop
      vertex   3.386672e+01 2.115734e+00 0.000000e+00
      vertex   3.386672e+01 2.115734e+00 5.000000e+00
      vertex   3.379262e+01 1.903977e+00 5.000000e+00
    endloop
  endfacet
  facet normal 9.438833e-01 -3.302791e-01 -3.092927e-17
    outer loop
      vertex   3.386672e+01 2.115734e+00 0.000000e+00
      vertex   3.379262e+01 1.903977e+00 5.000000e+00
      vertex   3.379262e+01 1.903977e+00 0.000000e+00
    endloop
  endfacet
  facet normal 9.165623e-01 -3.998920e-01 -3.551755e-17
    outer loop
      vertex   3.379262e+01 1.903977e+00 0.000000e+00
      vertex   3.379262e+01 1.903977e+00 5.000000e+00
      vertex   3.370291e+01 1.698349e+00 5.000000e+00
    endloop
  endfacet
  facet normal 9.165623e-01 -3.998920e-01 0.000000e+00
    outer loop
      vertex   3.379262e+01 1.903977e+00 0.000000e+00
      vertex   3.370291e+01 1.698349e+00 5.000000e+00
      vertex   3.370291e+01 1.698349e+00 0.000000e+00
    endloop
  endfacet
  facet normal 8.841154e-01 -4.672686e-01 0.000000e+00
    outer loop
      vertex   3.370291e+01 1.698349e+00 0.000000e+00
      vertex   3.370291e+01 1.698349e+00 5.000000e+00
      vertex   3.359808e+01 1.500000e+00 5.000000e+00
    endloop
  endfacet
  facet normal 8.841154e-01 -4.672686e-01 -6.185854e-17
    outer loop
      vertex   3.370291e+01 1.698349e+00 0.000000e+00
      vertex   3.359808e+01 1.500000e+00 5.000000e+00
      vertex   3.359808e+01 1.500000e+00 0.000000e+00
    endloop
  endfacet
  facet normal 8.467242e-01 -5.320321e-01 -7.088091e-17
    outer loop
      vertex   3.359808e+01 1.500000e+00 0.000000e+00
      vertex   3.359808e+01 1.500000e+00 5.000000e+00
      vertex   3.347872e+01 1.310040e+00 5.000000e+00
    endloop
  endfacet
  facet normal 8.467242e-01 -5.320321e-01 -4.639390e-17
    outer loop
      vertex   3.359808e+01 1.500000e+00 0.000000e+00
      vertex   3.347872e+01 1.310040e+00 5.000000e+00
      vertex   3.347872e+01 1.310040e+00 0.000000e+00
    endloop
  endfacet
  facet normal 8.045978e-01 -5.938202e-01 -5.274183e-17
    outer loop
      vertex   3.347872e+01 1.310040e+00 0.000000e+00
      vertex   3.347872e+01 1.310040e+00 5.000000e+00
      vertex   3.334549e+01 1.129531e+00 5.000000e+00
    endloop
  endfacet
  facet normal 8.045978e-01 -5.938202e-01 0.000000e+00
    outer loop
      vertex   3.347872e+01 1.310040e+00 0.000000e+00
      vertex   3.334549e+01 1.129531e+00 5.000000e+00
      vertex   3.334549e+01 1.129531e+00 0.000000e+00
    endloop
  endfacet
  facet normal 7.579717e-01 -6.522874e-01 0.000000e+00
    outer loop
      vertex   3.334549e+01 1.129531e+00 0.000000e+00
      vertex   3.334549e+01 1.129531e+00 5.000000e+00
      vertex   3.319916e+01 9.594818e-01 5.000000e+00
    endloop
  endfacet
  facet normal 7.579717e-01 -6.522874e-01 -4.330098e-17
    outer loop
      vertex   3.334549e+01 1.129531e+00 0.000000e+00
      vertex   3.319916e+01 9.594818e-01 5.000000e+00
      vertex   3.319916e+01 9.594818e-01 0.000000e+00
    endloop
  endfacet
  facet normal 7.071068e-01 -7.071068e-01 -4.710277e-17
    outer loop
      vertex   3.319916e+01 9.594818e-01 0.000000e+00
      vertex   3.319916e+01 9.594818e-01 5.000000e+00
      vertex   3.304052e+01 8.008444e-01 5.000000e+00
    endloop
  endfacet
  facet normal 7.071068e-01 -7.071068e-01 -4.639390e-17
    outer loop
      vertex   3.319916e+01 9.594818e-01 0.000000e+00
      vertex   3.304052e+01 8.008444e-01 5.000000e+00
      vertex   3.304052e+01 8.008444e-01 0.000000e+00
    endloop
  endfacet
  facet normal 6.522874e-01 -7.579717e-01 -5.049106e-17
    outer loop
      vertex   3.304052e+01 8.008444e-01 0.000000e+00
      vertex   3.304052e+01 8.008444e-01 5.000000e+00
      vertex   3.287047e+01 6.545056e-01 5.000000e+00
    endloop
  endfacet
  facet normal 6.522874e-01 -7.579717e-01 0.000000e+00
    outer loop
      vertex   3.304052e+01 8.008444e-01 0.000000e+00
      vertex   3.287047e+01 6.545056e-01 5.000000e+00
      vertex   3.287047e+01 6.545056e-01 0.000000e+00
    endloop
  endfacet
  facet normal 5.938202e-01 -8.045978e-01 0.000000e+00
    outer loop
      vertex   3.287047e+01 6.545056e-01 0.000000e+00
      vertex   3.287047e+01 6.545056e-01 5.000000e+00
      vertex   3.268996e+01 5.212837e-01 5.000000e+00
    endloop
  endfacet
  facet normal 5.938202e-01 -8.045978e-01 -3.711512e-17
    outer loop
      vertex   3.287047e+01 6.545056e-01 0.000000e+00
      vertex   3.268996e+01 5.212837e-01 5.000000e+00
      vertex   3.268996e+01 5.212837e-01 0.000000e+00
    endloop
  endfacet
  facet normal 5.320321e-01 -8.467242e-01 -3.760211e-17
    outer loop
      vertex   3.268996e+01 5.212837e-01 0.000000e+00
      vertex   3.268996e+01 5.212837e-01 5.000000e+00
      vertex   3.250000e+01 4.019238e-01 5.000000e+00
    endloop
  endfacet
  facet normal 5.320321e-01 -8.467242e-01 -3.711512e-17
    outer loop
      vertex   3.268996e+01 5.212837e-01 0.000000e+00
      vertex   3.250000e+01 4.019238e-01 5.000000e+00
      vertex   3.250000e+01 4.019238e-01 0.000000e+00
    endloop
  endfacet
  facet normal 4.672686e-01 -8.841154e-01 -3.926261e-17
    outer loop
      vertex   3.250000e+01 4.019238e-01 0.000000e+00
      vertex   3.250000e+01 4.019238e-01 5.000000e+00
      vertex   3.230165e+01 2.970934e-01 5.000000e+00
    endloop
  endfacet
  facet normal 4.672686e-01 -8.841154e-01 0.000000e+00
    outer loop
      vertex   3.250000e+01 4.019238e-01 0.000000e+00
      vertex   3.230165e+01 2.970934e-01 5.000000e+00
      vertex   3.230165e+01 2.970934e-01 0.000000e+00
    endloop
  endfacet
  facet normal 3.998920e-01 -9.165623e-01 0.000000e+00
    outer loop
      vertex   3.230165e+01 2.970934e-01 0.000000e+00
      vertex   3.230165e+01 2.970934e-01 5.000000e+00
      vertex   3.209602e+01 2.073788e-01 5.000000e+00
    endloop
  endfacet
  facet normal 3.998920e-01 -9.165623e-01 -2.474342e-17
    outer loop
      vertex   3.230165e+01 2.970934e-01 0.000000e+00
      vertex   3.209602e+01 2.073788e-01 5.000000e+00
      vertex   3.209602e+01 2.073788e-01 0.000000e+00
    endloop
  endfacet
  facet normal 3.302791e-01 -9.438833e-01 -2.619803e-17
    outer loop
      vertex   3.209602e+01 2.073788e-01 0.000000e+00
      vertex   3.209602e+01 2.073788e-01 5.000000e+00
      vertex   3.188427e+01 1.332816e-01 5.000000e+00
    endloop
  endfacet
  facet normal 3.302791e-01 -9.438833e-01 -2.783634e-17
    outer loop
      vertex   3.209602e+01 2.073788e-01 0.000000e+00
      vertex   3.188427e+01 1.332816e-01 5.000000e+00
      vertex   3.188427e+01 1.332816e-01 0.000000e+00
    endloop
  endfacet
  facet normal 2.588190e-01 -9.659258e-01 -2.680983e-17
    outer loop
      vertex   3.188427e+01 1.332816e-01 0.000000e+00
      vertex   3.188427e+01 1.332816e-01 5.000000e+00
      vertex   3.166756e+01 7.521626e-02 5.000000e+00
    endloop
  endfacet
  facet normal 2.588190e-01 -9.659258e-01 0.000000e+00
    outer loop
      vertex   3.188427e+01 1.332816e-01 0.000000e+00
      vertex   3.166756e+01 7.521626e-02 5.000000e+00
      vertex   3.166756e+01 7.521626e-02 0.000000e+00
    endloop
  endfacet
  facet normal 1.859116e-01 -9.825665e-01 0.000000e+00
    outer loop
      vertex   3.166756e+01 7.521626e-02 0.000000e+00
      vertex   3.166756e+01 7.521626e-02 5.000000e+00
      vertex   3.144713e+01 3.350752e-02 5.000000e+00
    endloop
  endfacet
  facet normal 1.859116e-01 -9.825665e-01 -5.567268e-17
    outer loop
      vertex   3.166756e+01 7.521626e-02 0.000000e+00
      vertex   3.144713e+01 3.350752e-02 5.000000e+00
      vertex   3.144713e+01 3.350752e-02 0.000000e+00
    endloop
  endfacet
  facet normal 1.119645e-01 -9.937122e-01 -5.516211e-17
    outer loop
      vertex   3.144713e+01 3.350752e-02 0.000000e+00
      vertex   3.144713e+01 3.350752e-02 5.000000e+00
      vertex   3.122419e+01 8.388608e-03 5.000000e+00
    endloop
  endfacet
  facet normal 1.119645e-01 -9.937122e-01 5.489945e-17
    outer loop
      vertex   3.144713e+01 3.350752e-02 0.000000e+00
      vertex   3.122419e+01 8.388608e-03 5.000000e+00
      vertex   3.122419e+01 8.388608e-03 0.000000e+00
    endloop
  endfacet
  facet normal 3.739119e-02 -9.993007e-01 5.547233e-17
    outer loop
      vertex   3.122419e+01 8.388608e-03 0.000000e+00
      vertex   3.122419e+01 8.388608e-03 5.000000e+00
      vertex   3.100000e+01 0.000000e+00 5.000000e+00
    endloop
  endfacet
  facet normal 3.739119e-02 -9.993007e-01 0.000000e+00
    outer loop
      vertex   3.122419e+01 8.388608e-03 0.000000e+00
      vertex   3.100000e+01 0.000000e+00 5.000000e+00
      vertex   3.100000e+01 0.000000e+00 0.000000e+00
    endloop
  endfacet
  facet normal -1.000000e+00 0.000000e+00 0.000000e+00
    outer loop
      vertex   2.700000e+01 2.000000e+01 0.000000e+00
      vertex   2.700000e+01 1.500000e+01 0.000000e+00
      vertex   2.700000e+01 2.000000e+01 5.000000e+00
    endloop
  endfacet
  facet normal -1.000000e+00 -0.000000e+00 0.000000e+00
    outer loop
      vertex   2.700000e+01 2.000000e+01 5.000000e+00
      vertex   2.700000e+01 1.500000e+01 0.000000e+00
      vertex   2.700000e+01 1.500000e+01 5.000000e+00
    endloop
  endfacet
  facet normal 0.000000e+00 -1.000000e+00 0.000000e+00
    outer loop
      vertex   7.000000e+00 2.000000e+01 0.000000e+00
      vertex   2.700000e+01 2.000000e+01 0.000000e+00
      vertex   7.000000e+00 2.000000e+01 5.000000e+00
    endloop
  endfacet
  facet normal 0.000000e+00 -1.000000e+00 0.000000e+00
    outer loop
      vertex   7.000000e+00 2.000000e+01 5.000000e+00
      vertex   2.700000e+01 2.000000e+01 0.000000e+00
      vertex   2.700000e+01 2.000000e+01 5.000000e+00
    endloop
  endfacet
  facet normal 1.000000e+00 0.000000e+00 0.000000e+00
    outer loop
      vertex   7.000000e+00 1.500000e+01 0.000000e+00
      vertex   7.000000e+00 2.000000e+01 0.000000e+00
      vertex   7.000000e+00 1.500000e+01 5.000000e+00
    endloop
  endfacet
  facet normal 1.000000e+00 -0.000000e+00 0.000000e+00
    outer loop
      vertex   7.000000e+00 1.500000e+01 5.000000e+00
      vertex   7.000000e+00 2.000000e+01 0.000000e+00
      vertex   7.000000e+00 2.000000e+01 5.000000e+00
    endloop
  endfacet
  facet normal 0.000000e+00 1.000000e+00 -0.000000e+00
    outer loop
      vertex   2.700000e+01 1.500000e+01 0.000000e+00
      vertex   7.000000e+00 1.500000e+01 0.000000e+00
      vertex   2.700000e+01 1.500000e+01 5.000000e+00
    endloop
  endfacet
  facet normal 0.000000e+00 1.000000e+00 0.000000e+00
    outer loop
      vertex   2.700000e+01 1.500000e+01 5.000000e+00
      vertex   7.000000e+00 1.500000e+01 0.000000e+00
      vertex   7.000000e+00 1.500000e+01 5.000000e+00
    endloop
  endfacet
  facet normal 0.000000e+00 1.000000e+00 -0.000000e+00
    outer loop
      vertex   2.700000e+01 5.000000e+00 0.000000e+00
      vertex   7.000000e+00 5.000000e+00 0.000000e+00
      vertex   2.700000e+01 5.000000e+00 5.000000e+00
    endloop
  endfacet
  facet normal 0.000000e+00 1.000000e+00 0.000000e+00
    outer loop
      vertex   2.700000e+01 5.000000e+00 5.000000e+00
      vertex   7.000000e+00 5.000000e+00 0.000000e+00
      vertex   7.000000e+00 5.000000e+00 5.000000e+00
    endloop
  endfacet
  facet normal -1.000000e+00 0.000000e+00 0.000000e+00
    outer loop
      vertex   2.700000e+01 1.000000e+01 0.000000e+00
      vertex   2.700000e+01 5.000000e+00 0.000000e+00
      vertex   2.700000e+01 1.000000e+01 5.000000e+00
    endloop
  endfacet
  facet normal -1.000000e+00 -0.000000e+00 0.000000e+00
    outer loop
      vertex   2.700000e+01 1.000000e+01 5.000000e+00
      vertex   2.700000e+01 5.000000e+00 0.000000e+00
      vertex   2.700000e+01 5.000000e+00 5.000000e+00
    endloop
  endfacet
  facet normal 0.000000e+00 -1.000000e+00 0.000000e+00
    outer loop
      vertex   7.000000e+00 1.000000e+01 0.000000e+00
      vertex   2.700000e+01 1.000000e+01 0.000000e+00
      vertex   7.000000e+00 1.000000e+01 5.000000e+00
    endloop
  endfacet
  facet normal 0.000000e+00 -1.000000e+00 0.000000e+00
    outer loop
      vertex   7.000000e+00 1.000000e+01 5.000000e+00
      vertex   2.700000e+01 1.000000e+01 0.000000e+00
      vertex   2.700000e+01 1.000000e+01 5.000000e+00
    endloop
  endfacet
  facet normal 1.000000e+00 0.000000e+00 0.000000e+00
    outer loop
      vertex   7.000000e+00 5.000000e+00 0.000000e+00
      vertex   7.000000e+00 1.000000e+01 0.000000e+00
      vertex   7.000000e+00 5.000000e+00 5.000000e+00
    endloop
  endfacet
  facet normal 1.000000e+00 -0.000000e+00 0.000000e+00
    outer loop
      vertex   7.000000e+00 5.000000e+00 5.000000e+00
      vertex   7.000000e+00 1.000000e+01 0.000000e+00
      vertex   7.000000e+00 1.000000e+01 5.000000e+00
    endloop
  endfacet
  facet normal 1.000000e+00 0.000000e+00 0.000000e+00
    outer loop
      vertex   3.400000e+01 2.200000e+01 5.000000e+00
      vertex   3.400000e+01 3.000000e+00 5.000000e+00
      vertex   3.400000e+01 2.200000e+01 0.000000e+00
    endloop
  endfacet
  facet normal 1.000000e+00 0.000000e+00 0.000000e+00
    outer loop
      vertex   3.400000e+01 2.200000e+01 0.000000e+00
      vertex   3.400000e+01 3.000000e+00 5.000000e+00
      vertex   3.400000e+01 3.000000e+00 0.000000e+00
    endloop
  endfacet
  facet normal 0.000000e+00 0.000000e+00 1.000000e+00
    outer loop
      vertex   3.399161e+01 2.222419e+01 5.000000e+00
      vertex   2.700000e+01 2.000000e+01 5.000000e+00
      vertex   3.400000e+01 2.200000e+01 5.000000e+00
    endloop
  endfacet
  facet normal 0.000000e+00 0.000000e+00 1.000000e+00
    outer loop
      vertex   3.400000e+01 2.200000e+01 5.000000e+00
      vertex   2.700000e+01 2.000000e+01 5.000000e+00
      vertex   2.700000e+01 1.500000e+01 5.000000e+00
    endloop
  endfacet
  facet normal 0.000000e+00 0.000000e+00 1.000000e+00
    outer loop
      vertex   3.400000e+01 2.200000e+01 5.000000e+00
      vertex   2.700000e+01 1.500000e+01 5.000000e+00
      vertex   3.400000e+01 3.000000e+00 5.000000e+00
    endloop
  endfacet
  facet normal 0.000000e+00 0.000000e+00 1.000000e+00
    outer loop
      vertex   3.400000e+01 3.000000e+00 5.000000e+00
      vertex   2.700000e+01 1.500000e+01 5.000000e+00
      vertex   2.700000e+01 1.000000e+01 5.000000e+00
    endloop
  endfacet
  facet normal 0.000000e+00 0.000000e+00 1.000000e+00
    outer loop
      vertex   3.400000e+01 3.000000e+00 5.000000e+00
      vertex   2.700000e+01 1.000000e+01 5.000000e+00
      vertex   2.700000e+01 5.000000e+00 5.000000e+00
    endloop
  endfacet
  facet normal 0.000000e+00 0.000000e+00 1.000000e+00
    outer loop
      vertex   3.399161e+01 2.222419e+01 5.000000e+00
      vertex   3.396649e+01 2.244713e+01 5.000000e+00
      vertex   2.700000e+01 2.000000e+01 5.000000e+00
    endloop
  endfacet
  facet normal 0.000000e+00 0.000000e+00 1.000000e+00
    outer loop
      vertex   2.700000e+01 2.000000e+01 5.000000e+00
      vertex   3.396649e+01 2.244713e+01 5.000000e+00
      vertex   3.100000e+01 2.500000e+01 5.000000e+00
    endloop
  endfacet
  facet normal 0.000000e+00 -0.000000e+00 1.000000e+00
    outer loop
      vertex   2.700000e+01 2.000000e+01 5.000000e+00
      vertex   3.100000e+01 2.500000e+01 5.000000e+00
      vertex   3.000000e+00 2.500000e+01 5.000000e+00
    endloop
  endfacet
  facet normal 0.000000e+00 0.000000e+00 1.000000e+00
    outer loop
      vertex   3.396649e+01 2.244713e+01 5.000000e+00
      vertex   3.392478e+01 2.266756e+01 5.000000e+00
      vertex   3.100000e+01 2.500000e+01 5.000000e+00
    endloop
  endfacet
  facet normal 0.000000e+00 0.000000e+00 1.000000e+00
    outer loop
      vertex   3.100000e+01 2.500000e+01 5.000000e+00
      vertex   3.392478e+01 2.266756e+01 5.000000e+00
      vertex   3.386672e+01 2.288427e+01 5.000000e+00
    endloop
  endfacet
  facet normal 0.000000e+00 0.000000e+00 1.000000e+00
    outer loop
      vertex   3.100000e+01 2.500000e+01 5.000000e+00
      vertex   3.386672e+01 2.288427e+01 5.000000e+00
      vertex   3.379262e+01 2.309602e+01 5.000000e+00
    endloop
  endfacet
  facet normal 0.000000e+00 0.000000e+00 1.000000e+00
    outer loop
      vertex   3.379262e+01 2.309602e+01 5.000000e+00
      vertex   3.370291e+01 2.330165e+01 5.000000e+00
      vertex   3.100000e+01 2.500000e+01 5.000000e+00
    endloop
  endfacet
  facet normal 0.000000e+00 0.000000e+00 1.000000e+00
    outer loop
      vertex   3.100000e+01 2.500000e+01 5.000000e+00
      vertex   3.370291e+01 2.330165e+01 5.000000e+00
      vertex   3.359808e+01 2.350000e+01 5.000000e+00
    endloop
  endfacet
  facet normal 0.000000e+00 0.000000e+00 1.000000e+00
    outer loop
      vertex   3.100000e+01 2.500000e+01 5.000000e+00
      vertex   3.359808e+01 2.350000e+01 5.000000e+00
      vertex   3.347872e+01 2.368996e+01 5.000000e+00
    endloop
  endfacet
  facet normal 0.000000e+00 0.000000e+00 1.000000e+00
    outer loop
      vertex   3.347872e+01 2.368996e+01 5.000000e+00
      vertex   3.334549e+01 2.387047e+01 5.000000e+00
      vertex   3.100000e+01 2.500000e+01 5.000000e+00
    endloop
  endfacet
  facet normal 0.000000e+00 0.000000e+00 1.000000e+00
    outer loop
      vertex   3.100000e+01 2.500000e+01 5.000000e+00
      vertex   3.334549e+01 2.387047e+01 5.000000e+00
      vertex   3.319916e+01 2.404052e+01 5.000000e+00
    endloop
  endfacet
  facet normal 0.000000e+00 0.000000e+00 1.000000e+00
    outer loop
      vertex   3.100000e+01 2.500000e+01 5.000000e+00
      vertex   3.319916e+01 2.404052e+01 5.000000e+00
      vertex   3.304052e+01 2.419916e+01 5.000000e+00
    endloop
  endfacet
  facet normal 0.000000e+00 0.000000e+00 1.000000e+00
    outer loop
      vertex   3.304052e+01 2.419916e+01 5.000000e+00
      vertex   3.287047e+01 2.434549e+01 5.000000e+00
      vertex   3.100000e+01 2.500000e+01 5.000000e+00
    endloop
  endfacet
  facet normal 0.000000e+00 0.000000e+00 1.000000e+00
    outer loop
      vertex   3.100000e+01 2.500000e+01 5.000000e+00
      vertex   3.287047e+01 2.434549e+01 5.000000e+00
      vertex   3.268996e+01 2.447872e+01 5.000000e+00
    endloop
  endfacet
  facet normal 0.000000e+00 0.000000e+00 1.000000e+00
    outer loop
      vertex   3.100000e+01 2.500000e+01 5.000000e+00
      vertex   3.268996e+01 2.447872e+01 5.000000e+00
      vertex   3.250000e+01 2.459808e+01 5.000000e+00
    endloop
  endfacet
  facet normal 0.000000e+00 0.000000e+00 1.000000e+00
    outer loop
      vertex   3.250000e+01 2.459808e+01 5.000000e+00
      vertex   3.230165e+01 2.470291e+01 5.000000e+00
      vertex   3.100000e+01 2.500000e+01 5.000000e+00
    endloop
  endfacet
  facet normal 0.000000e+00 0.000000e+00 1.000000e+00
    outer loop
      vertex   3.100000e+01 2.500000e+01 5.000000e+00
      vertex   3.230165e+01 2.470291e+01 5.000000e+00
      vertex   3.209602e+01 2.479262e+01 5.000000e+00
    endloop
  endfacet
  facet normal 0.000000e+00 0.000000e+00 1.000000e+00
    outer loop
      vertex   3.100000e+01 2.500000e+01 5.000000e+00
      vertex   3.209602e+01 2.479262e+01 5.000000e+00
      vertex   3.188427e+01 2.486672e+01 5.000000e+00
    endloop
  endfacet
  facet normal 0.000000e+00 0.000000e+00 1.000000e+00
    outer loop
      vertex   3.188427e+01 2.486672e+01 5.000000e+00
      vertex   3.166756e+01 2.492478e+01 5.000000e+00
      vertex   3.100000e+01 2.500000e+01 5.000000e+00
    endloop
  endfacet
  facet normal 0.000000e+00 0.000000e+00 1.000000e+00
    outer loop
      vertex   3.100000e+01 2.500000e+01 5.000000e+00
      vertex   3.166756e+01 2.492478e+01 5.000000e+00
      vertex   3.144713e+01 2.496649e+01 5.000000e+00
    endloop
  endfacet
  facet normal 0.000000e+00 0.000000e+00 1.000000e+00
    outer loop
      vertex   3.100000e+01 2.500000e+01 5.000000e+00
      vertex   3.144713e+01 2.496649e+01 5.000000e+00
      vertex   3.122419e+01 2.499161e+01 5.000000e+00
    endloop
  endfacet
  facet normal -0.000000e+00 0.000000e+00 1.000000e+00
    outer loop
      vertex   2.775810e+00 2.499161e+01 5.000000e+00
      vertex   2.552873e+00 2.496649e+01 5.000000e+00
      vertex   3.000000e+00 2.500000e+01 5.000000e+00
    endloop
  endfacet
  facet normal 0.000000e+00 0.000000e+00 1.000000e+00
    outer loop
      vertex   3.000000e+00 2.500000e+01 5.000000e+00
      vertex   2.552873e+00 2.496649e+01 5.000000e+00
      vertex   2.332437e+00 2.492478e+01 5.000000e+00
    endloop
  endfacet
  facet normal 0.000000e+00 0.000000e+00 1.000000e+00
    outer loop
      vertex   3.000000e+00 2.500000e+01 5.000000e+00
      vertex   2.332437e+00 2.492478e+01 5.000000e+00
      vertex   2.115734e+00 2.486672e+01 5.000000e+00
    endloop
  endfacet
  facet normal -0.000000e+00 0.000000e+00 1.000000e+00
    outer loop
      vertex   2.115734e+00 2.486672e+01 5.000000e+00
      vertex   1.903977e+00 2.479262e+01 5.000000e+00
      vertex   3.000000e+00 2.500000e+01 5.000000e+00
    endloop
  endfacet
  facet normal 0.000000e+00 0.000000e+00 1.000000e+00
    outer loop
      vertex   3.000000e+00 2.500000e+01 5.000000e+00
      vertex   1.903977e+00 2.479262e+01 5.000000e+00
      vertex   1.698349e+00 2.470291e+01 5.000000e+00
    endloop
  endfacet
  facet normal 0.000000e+00 0.000000e+00 1.000000e+00
    outer loop
      vertex   3.000000e+00 2.500000e+01 5.000000e+00
      vertex   1.698349e+00 2.470291e+01 5.000000e+00
      vertex   1.500000e+00 2.459808e+01 5.000000e+00
    endloop
  endfacet
  facet normal -0.000000e+00 0.000000e+00 1.000000e+00
    outer loop
      vertex   1.500000e+00 2.459808e+01 5.000000e+00
      vertex   1.310040e+00 2.447872e+01 5.000000e+00
      vertex   3.000000e+00 2.500000e+01 5.000000e+00
    endloop
  endfacet
  facet normal 0.000000e+00 0.000000e+00 1.000000e+00
    outer loop
      vertex   3.000000e+00 2.500000e+01 5.000000e+00
      vertex   1.310040e+00 2.447872e+01 5.000000e+00
      vertex   1.129531e+00 2.434549e+01 5.000000e+00
    endloop
  endfacet
  facet normal 0.000000e+00 0.000000e+00 1.000000e+00
    outer loop
      vertex   3.000000e+00 2.500000e+01 5.000000e+00
      vertex   1.129531e+00 2.434549e+01 5.000000e+00
      vertex   9.594818e-01 2.419916e+01 5.000000e+00
    endloop
  endfacet
  facet normal -0.000000e+00 0.000000e+00 1.000000e+00
    outer loop
      vertex   9.594818e-01 2.419916e+01 5.000000e+00
      vertex   8.008444e-01 2.404052e+01 5.000000e+00
      vertex   3.000000e+00 2.500000e+01 5.000000e+00
    endloop
  endfacet
  facet normal 0.000000e+00 0.000000e+00 1.000000e+00
    outer loop
      vertex   3.000000e+00 2.500000e+01 5.000000e+00
      vertex   8.008444e-01 2.404052e+01 5.000000e+00
      vertex   6.545056e-01 2.387047e+01 5.000000e+00
    endloop
  endfacet
  facet normal 0.000000e+00 0.000000e+00 1.000000e+00
    outer loop
      vertex   3.000000e+00 2.500000e+01 5.000000e+00
      vertex   6.545056e-01 2.387047e+01 5.000000e+00
      vertex   5.212837e-01 2.368996e+01 5.000000e+00
    endloop
  endfacet
  facet normal -0.000000e+00 0.000000e+00 1.000000e+00
    outer loop
      vertex   5.212837e-01 2.368996e+01 5.000000e+00
      vertex   4.019238e-01 2.350000e+01 5.000000e+00
      vertex   3.000000e+00 2.500000e+01 5.000000e+00
    endloop
  endfacet
  facet normal 0.000000e+00 0.000000e+00 1.000000e+00
    outer loop
      vertex   3.000000e+00 2.500000e+01 5.000000e+00
      vertex   4.019238e-01 2.350000e+01 5.000000e+00
      vertex   2.970934e-01 2.330165e+01 5.000000e+00
    endloop
  endfacet
  facet normal 0.000000e+00 0.000000e+00 1.000000e+00
    outer loop
      vertex   3.000000e+00 2.500000e+01 5.000000e+00
      vertex   2.970934e-01 2.330165e+01 5.000000e+00
      vertex   2.073788e-01 2.309602e+01 5.000000e+00
    endloop
  endfacet
  facet normal -0.000000e+00 0.000000e+00 1.000000e+00
    outer loop
      vertex   2.073788e-01 2.309602e+01 5.000000e+00
      vertex   1.332816e-01 2.288427e+01 5.000000e+00
      vertex   3.000000e+00 2.500000e+01 5.000000e+00
    endloop
  endfacet
  facet normal 0.000000e+00 0.000000e+00 1.000000e+00
    outer loop
      vertex   3.000000e+00 2.500000e+01 5.000000e+00
      vertex   1.332816e-01 2.288427e+01 5.000000e+00
      vertex   7.521626e-02 2.266756e+01 5.000000e+00
    endloop
  endfacet
  facet normal 0.000000e+00 0.000000e+00 1.000000e+00
    outer loop
      vertex   3.000000e+00 2.500000e+01 5.000000e+00
      vertex   7.521626e-02 2.266756e+01 5.000000e+00
      vertex   3.350752e-02 2.244713e+01 5.000000e+00
    endloop
  endfacet
  facet normal 0.000000e+00 0.000000e+00 1.000000e+00
    outer loop
      vertex   3.000000e+00 2.500000e+01 5.000000e+00
      vertex   3.350752e-02 2.244713e+01 5.000000e+00
      vertex   7.000000e+00 2.000000e+01 5.000000e+00
    endloop
  endfacet
  facet normal 0.000000e+00 0.000000e+00 1.000000e+00
    outer loop
      vertex   7.000000e+00 2.000000e+01 5.000000e+00
      vertex   3.350752e-02 2.244713e+01 5.000000e+00
      vertex   8.388608e-03 2.222419e+01 5.000000e+00
    endloop
  endfacet
  facet normal 0.000000e+00 0.000000e+00 1.000000e+00
    outer loop
      vertex   7.000000e+00 2.000000e+01 5.000000e+00
      vertex   8.388608e-03 2.222419e+01 5.000000e+00
      vertex   0.000000e+00 2.200000e+01 5.000000e+00
    endloop
  endfacet
  facet normal 0.000000e+00 0.000000e+00 1.000000e+00
    outer loop
      vertex   7.000000e+00 2.000000e+01 5.000000e+00
      vertex   0.000000e+00 2.200000e+01 5.000000e+00
      vertex   7.000000e+00 1.500000e+01 5.000000e+00
    endloop
  endfacet
  facet normal 0.000000e+00 0.000000e+00 1.000000e+00
    outer loop
      vertex   7.000000e+00 1.500000e+01 5.000000e+00
      vertex   0.000000e+00 2.200000e+01 5.000000e+00
      vertex   0.000000e+00 3.000000e+00 5.000000e+00
    endloop
  endfacet
  facet normal 0.000000e+00 0.000000e+00 1.000000e+00
    outer loop
      vertex   7.000000e+00 1.500000e+01 5.000000e+00
      vertex   0.000000e+00 3.000000e+00 5.000000e+00
      vertex   7.000000e+00 1.000000e+01 5.000000e+00
    endloop
  endfacet
  facet normal 0.000000e+00 0.000000e+00 1.000000e+00
    outer loop
      vertex   7.000000e+00 1.000000e+01 5.000000e+00
      vertex   0.000000e+00 3.000000e+00 5.000000e+00
      vertex   7.000000e+00 5.000000e+00 5.000000e+00
    endloop
  endfacet
  facet normal 0.000000e+00 0.000000e+00 1.000000e+00
    outer loop
      vertex   7.000000e+00 5.000000e+00 5.000000e+00
      vertex   0.000000e+00 3.000000e+00 5.000000e+00
      vertex   8.388608e-03 2.775810e+00 5.000000e+00
    endloop
  endfacet
  facet normal 0.000000e+00 0.000000e+00 1.000000e+00
    outer loop
      vertex   7.000000e+00 5.000000e+00 5.000000e+00
      vertex   8.388608e-03 2.775810e+00 5.000000e+00
      vertex   3.350752e-02 2.552873e+00 5.000000e+00
    endloop
  endfacet
  facet normal 0.000000e+00 0.000000e+00 1.000000e+00
    outer loop
      vertex   7.000000e+00 5.000000e+00 5.000000e+00
      vertex   3.350752e-02 2.552873e+00 5.000000e+00
      vertex   3.000000e+00 0.000000e+00 5.000000e+00
    endloop
  endfacet
  facet normal 0.000000e+00 0.000000e+00 1.000000e+00
    outer loop
      vertex   3.000000e+00 0.000000e+00 5.000000e+00
      vertex   3.350752e-02 2.552873e+00 5.000000e+00
      vertex   7.521626e-02 2.332437e+00 5.000000e+00
    endloop
  endfacet
  facet normal 0.000000e+00 0.000000e+00 1.000000e+00
    outer loop
      vertex   3.000000e+00 0.000000e+00 5.000000e+00
      vertex   7.521626e-02 2.332437e+00 5.000000e+00
      vertex   1.332816e-01 2.115734e+00 5.000000e+00
    endloop
  endfacet
  facet normal 0.000000e+00 0.000000e+00 1.000000e+00
    outer loop
      vertex   1.332816e-01 2.115734e+00 5.000000e+00
      vertex   2.073788e-01 1.903977e+00 5.000000e+00
      vertex   3.000000e+00 0.000000e+00 5.000000e+00
    endloop
  endfacet
  facet normal 0.000000e+00 0.000000e+00 1.000000e+00
    outer loop
      vertex   3.000000e+00 0.000000e+00 5.000000e+00
      vertex   2.073788e-01 1.903977e+00 5.000000e+00
      vertex   2.970934e-01 1.698349e+00 5.000000e+00
    endloop
  endfacet
  facet normal 0.000000e+00 0.000000e+00 1.000000e+00
    outer loop
      vertex   3.000000e+00 0.000000e+00 5.000000e+00
      vertex   2.970934e-01 1.698349e+00 5.000000e+00
      vertex   4.019238e-01 1.500000e+00 5.000000e+00
    endloop
  endfacet
  facet normal 0.000000e+00 0.000000e+00 1.000000e+00
    outer loop
      vertex   4.019238e-01 1.500000e+00 5.000000e+00
      vertex   5.212837e-01 1.310040e+00 5.000000e+00
      vertex   3.000000e+00 0.000000e+00 5.000000e+00
    endloop
  endfacet
  facet normal 0.000000e+00 0.000000e+00 1.000000e+00
    outer loop
      vertex   3.000000e+00 0.000000e+00 5.000000e+00
      vertex   5.212837e-01 1.310040e+00 5.000000e+00
      vertex   6.545056e-01 1.129531e+00 5.000000e+00
    endloop
  endfacet
  facet normal 0.000000e+00 0.000000e+00 1.000000e+00
    outer loop
      vertex   3.000000e+00 0.000000e+00 5.000000e+00
      vertex   6.545056e-01 1.129531e+00 5.000000e+00
      vertex   8.008444e-01 9.594818e-01 5.000000e+00
    endloop
  endfacet
  facet normal 0.000000e+00 0.000000e+00 1.000000e+00
    outer loop
      vertex   8.008444e-01 9.594818e-01 5.000000e+00
      vertex   9.594818e-01 8.008444e-01 5.000000e+00
      vertex   3.000000e+00 0.000000e+00 5.000000e+00
    endloop
  endfacet
  facet normal 0.000000e+00 0.000000e+00 1.000000e+00
    outer loop
      vertex   3.000000e+00 0.000000e+00 5.000000e+00
      vertex   9.594818e-01 8.008444e-01 5.000000e+00
      vertex   1.129531e+00 6.545056e-01 5.000000e+00
    endloop
  endfacet
  facet normal 0.000000e+00 0.000000e+00 1.000000e+00
    outer loop
      vertex   3.000000e+00 0.000000e+00 5.000000e+00
      vertex   1.129531e+00 6.545056e-01 5.000000e+00
      vertex   1.310040e+00 5.212837e-01 5.000000e+00
    endloop
  endfacet
  facet normal 0.000000e+00 0.000000e+00 1.000000e+00
    outer loop
      vertex   1.310040e+00 5.212837e-01 5.000000e+00
      vertex   1.500000e+00 4.019238e-01 5.000000e+00
      vertex   3.000000e+00 0.000000e+00 5.000000e+00
    endloop
  endfacet
  facet normal 0.000000e+00 0.000000e+00 1.000000e+00
    outer loop
      vertex   3.000000e+00 0.000000e+00 5.000000e+00
      vertex   1.500000e+00 4.019238e-01 5.000000e+00
      vertex   1.698349e+00 2.970934e-01 5.000000e+00
    endloop
  endfacet
  facet normal 0.000000e+00 0.000000e+00 1.000000e+00
    outer loop
      vertex   3.000000e+00 0.000000e+00 5.000000e+00
      vertex   1.698349e+00 2.970934e-01 5.000000e+00
      vertex   1.903977e+00 2.073788e-01 5.000000e+00
    endloop
  endfacet
  facet normal 0.000000e+00 0.000000e+00 1.000000e+00
    outer loop
      vertex   1.903977e+00 2.073788e-01 5.000000e+00
      vertex   2.115734e+00 1.332816e-01 5.000000e+00
      vertex   3.000000e+00 0.000000e+00 5.000000e+00
    endloop
  endfacet
  facet normal 0.000000e+00 0.000000e+00 1.000000e+00
    outer loop
      vertex   3.000000e+00 0.000000e+00 5.000000e+00
      vertex   2.115734e+00 1.332816e-01 5.000000e+00
      vertex   2.332437e+00 7.521626e-02 5.000000e+00
    endloop
  endfacet
  facet normal 0.000000e+00 0.000000e+00 1.000000e+00
    outer loop
      vertex   3.000000e+00 0.000000e+00 5.000000e+00
      vertex   2.332437e+00 7.521626e-02 5.000000e+00
      vertex   2.552873e+00 3.350752e-02 5.000000e+00
    endloop
  endfacet
  facet normal 0.000000e+00 0.000000e+00 1.000000e+00
    outer loop
      vertex   2.552873e+00 3.350752e-02 5.000000e+00
      vertex   2.775810e+00 8.388608e-03 5.000000e+00
      vertex   3.000000e+00 0.000000e+00 5.000000e+00
    endloop
  endfacet
  facet normal 0.000000e+00 0.000000e+00 1.000000e+00
    outer loop
      vertex   3.000000e+00 0.000000e+00 5.000000e+00
      vertex   3.100000e+01 0.000000e+00 5.000000e+00
      vertex   7.000000e+00 5.000000e+00 5.000000e+00
    endloop
  endfacet
  facet normal -0.000000e+00 0.000000e+00 1.000000e+00
    outer loop
      vertex   7.000000e+00 5.000000e+00 5.000000e+00
      vertex   3.100000e+01 0.000000e+00 5.000000e+00
      vertex   2.700000e+01 5.000000e+00 5.000000e+00
    endloop
  endfacet
  facet normal 0.000000e+00 0.000000e+00 1.000000e+00
    outer loop
      vertex   2.700000e+01 5.000000e+00 5.000000e+00
      vertex   3.100000e+01 0.000000e+00 5.000000e+00
      vertex   3.396649e+01 2.552873e+00 5.000000e+00
    endloop
  endfacet
  facet normal 0.000000e+00 0.000000e+00 1.000000e+00
    outer loop
      vertex   2.700000e+01 5.000000e+00 5.000000e+00
      vertex   3.396649e+01 2.552873e+00 5.000000e+00
      vertex   3.399161e+01 2.775810e+00 5.000000e+00
    endloop
  endfacet
  facet normal 0.000000e+00 -0.000000e+00 1.000000e+00
    outer loop
      vertex   3.122419e+01 8.388608e-03 5.000000e+00
      vertex   3.144713e+01 3.350752e-02 5.000000e+00
      vertex   3.100000e+01 0.000000e+00 5.000000e+00
    endloop
  endfacet
  facet normal 0.000000e+00 0.000000e+00 1.000000e+00
    outer loop
      vertex   3.100000e+01 0.000000e+00 5.000000e+00
      vertex   3.144713e+01 3.350752e-02 5.000000e+00
      vertex   3.166756e+01 7.521626e-02 5.000000e+00
    endloop
  endfacet
  facet normal 0.000000e+00 0.000000e+00 1.000000e+00
    outer loop
      vertex   3.100000e+01 0.000000e+00 5.000000e+00
      vertex   3.166756e+01 7.521626e-02 5.000000e+00
      vertex   3.188427e+01 1.332816e-01 5.000000e+00
    endloop
  endfacet
  facet normal 0.000000e+00 -0.000000e+00 1.000000e+00
    outer loop
      vertex   3.188427e+01 1.332816e-01 5.000000e+00
      vertex   3.209602e+01 2.073788e-01 5.000000e+00
      vertex   3.100000e+01 0.000000e+00 5.000000e+00
    endloop
  endfacet
  facet normal 0.000000e+00 0.000000e+00 1.000000e+00
    outer loop
      vertex   3.100000e+01 0.000000e+00 5.000000e+00
      vertex   3.209602e+01 2.073788e-01 5.000000e+00
      vertex   3.230165e+01 2.970934e-01 5.000000e+00
    endloop
  endfacet
  facet normal 0.000000e+00 0.000000e+00 1.000000e+00
    outer loop
      vertex   3.100000e+01 0.000000e+00 5.000000e+00
      vertex   3.230165e+01 2.970934e-01 5.000000e+00
      vertex   3.250000e+01 4.019238e-01 5.000000e+00
    endloop
  endfacet
  facet normal 0.000000e+00 -0.000000e+00 1.000000e+00
    outer loop
      vertex   3.250000e+01 4.019238e-01 5.000000e+00
      vertex   3.268996e+01 5.212837e-01 5.000000e+00
      vertex   3.100000e+01 0.000000e+00 5.000000e+00
    endloop
  endfacet
  facet normal 0.000000e+00 0.000000e+00 1.000000e+00
    outer loop
      vertex   3.100000e+01 0.000000e+00 5.000000e+00
      vertex   3.268996e+01 5.212837e-01 5.000000e+00
      vertex   3.287047e+01 6.545056e-01 5.000000e+00
    endloop
  endfacet
  facet normal 0.000000e+00 0.000000e+00 1.000000e+00
    outer loop
      vertex   3.100000e+01 0.000000e+00 5.000000e+00
      vertex   3.287047e+01 6.545056e-01 5.000000e+00
      vertex   3.304052e+01 8.008444e-01 5.000000e+00
    endloop
  endfacet
  facet normal 0.000000e+00 -0.000000e+00 1.000000e+00
    outer loop
      vertex   3.304052e+01 8.008444e-01 5.000000e+00
      vertex   3.319916e+01 9.594818e-01 5.000000e+00
      vertex   3.100000e+01 0.000000e+00 5.000000e+00
    endloop
  endfacet
  facet normal 0.000000e+00 0.000000e+00 1.000000e+00
    outer loop
      vertex   3.100000e+01 0.000000e+00 5.000000e+00
      vertex   3.319916e+01 9.594818e-01 5.000000e+00
      vertex   3.334549e+01 1.129531e+00 5.000000e+00
    endloop
  endfacet
  facet normal 0.000000e+00 0.000000e+00 1.000000e+00
    outer loop
      vertex   3.100000e+01 0.000000e+00 5.000000e+00
      vertex   3.334549e+01 1.129531e+00 5.000000e+00
      vertex   3.347872e+01 1.310040e+00 5.000000e+00
    endloop
  endfacet
  facet normal 0.000000e+00 -0.000000e+00 1.000000e+00
    outer loop
      vertex   3.347872e+01 1.310040e+00 5.000000e+00
      vertex   3.359808e+01 1.500000e+00 5.000000e+00
      vertex   3.100000e+01 0.000000e+00 5.000000e+00
    endloop
  endfacet
  facet normal 0.000000e+00 0.000000e+00 1.000000e+00
    outer loop
      vertex   3.100000e+01 0.000000e+00 5.000000e+00
      vertex   3.359808e+01 1.500000e+00 5.000000e+00
      vertex   3.370291e+01 1.698349e+00 5.000000e+00
    endloop
  endfacet
  facet normal 0.000000e+00 0.000000e+00 1.000000e+00
    outer loop
      vertex   3.100000e+01 0.000000e+00 5.000000e+00
      vertex   3.370291e+01 1.698349e+00 5.000000e+00
      vertex   3.379262e+01 1.903977e+00 5.000000e+00
    endloop
  endfacet
  facet normal 0.000000e+00 -0.000000e+00 1.000000e+00
    outer loop
      vertex   3.379262e+01 1.903977e+00 5.000000e+00
      vertex   3.386672e+01 2.115734e+00 5.000000e+00
      vertex   3.100000e+01 0.000000e+00 5.000000e+00
    endloop
  endfacet
  facet normal 0.000000e+00 0.000000e+00 1.000000e+00
    outer loop
      vertex   3.100000e+01 0.000000e+00 5.000000e+00
      vertex   3.386672e+01 2.115734e+00 5.000000e+00
      vertex   3.392478e+01 2.332437e+00 5.000000e+00
    endloop
  endfacet
  facet normal 0.000000e+00 0.000000e+00 1.000000e+00
    outer loop
      vertex   3.100000e+01 0.000000e+00 5.000000e+00
      vertex   3.392478e+01 2.332437e+00 5.000000e+00
      vertex   3.396649e+01 2.552873e+00 5.000000e+00
    endloop
  endfacet
  facet normal 0.000000e+00 -0.000000e+00 1.000000e+00
    outer loop
      vertex   3.399161e+01 2.775810e+00 5.000000e+00
      vertex   3.400000e+01 3.000000e+00 5.000000e+00
      vertex   2.700000e+01 5.000000e+00 5.000000e+00
    endloop
  endfacet
  facet normal 0.000000e+00 0.000000e+00 1.000000e+00
    outer loop
      vertex   7.000000e+00 1.000000e+01 5.000000e+00
      vertex   2.700000e+01 1.000000e+01 5.000000e+00
      vertex   7.000000e+00 1.500000e+01 5.000000e+00
    endloop
  endfacet
  facet normal -0.000000e+00 0.000000e+00 1.000000e+00
    outer loop
      vertex   7.000000e+00 1.500000e+01 5.000000e+00
      vertex   2.700000e+01 1.000000e+01 5.000000e+00
      vertex   2.700000e+01 1.500000e+01 5.000000e+00
    endloop
  endfacet
  facet normal 0.000000e+00 -0.000000e+00 1.000000e+00
    outer loop
      vertex   7.000000e+00 2.000000e+01 5.000000e+00
      vertex   2.700000e+01 2.000000e+01 5.000000e+00
      vertex   3.000000e+00 2.500000e+01 5.000000e+00
    endloop
  endfacet
endsolid
