<?xml version="1.0" encoding="UTF-8"?>
<svg width="726px" height="876px" viewBox="0 0 726 876" version="1.1" xmlns="http://www.w3.org/2000/svg" xmlns:xlink="http://www.w3.org/1999/xlink">
    <!-- Generator: Sketch 52.4 (67378) - http://www.bohemiancoding.com/sketch -->
    <title>Artboard</title>
    <desc>Created with Sketch.</desc>
    <g id="Artboard" stroke="none" stroke-width="1" fill="none" fill-rule="evenodd">
        <g id="chit-letter" transform="translate(450.500000, 750.500000)" fill="#000000">
            <g id="chit">
                <path d="M62.5,125 C27.9822031,125 0,97.0177969 0,62.5 C0,27.9822031 27.9822031,0 62.5,0 C97.0177969,0 125,27.9822031 125,62.5 C125,97.0177969 97.0177969,125 62.5,125 Z M68.1250854,89.5 L68.1250854,35.4845215 L56.9115601,35.4845215 L56.9115601,89.5 L68.1250854,89.5 Z" id="Combined-Shape"></path>
            </g>
        </g>
        <g id="chit-letter" transform="translate(300.500000, 750.500000)" fill="#000000">
            <g id="chit">
                <path d="M62.5,125 C27.9822031,125 0,97.0177969 0,62.5 C0,27.9822031 27.9822031,0 62.5,0 C97.0177969,0 125,27.9822031 125,62.5 C125,97.0177969 97.0177969,125 62.5,125 Z M73.6035889,52.6712646 C73.6035889,55.4807676 72.8645785,57.5328955 71.3865356,58.82771 C69.9084928,60.1225244 67.8380423,60.7699219 65.1751221,60.7699219 L54.6578613,60.7699219 L54.6578613,44.8657715 L65.1751221,44.8657715 C67.8380423,44.8657715 69.9084928,45.4643088 71.3865356,46.6614014 C72.8645785,47.8584939 73.6035889,49.8617617 73.6035889,52.6712646 Z M84.7804687,52.5979736 C84.7804687,46.7590935 83.1680825,42.4471819 79.9432617,39.6621094 C76.7184409,36.8770369 72.3943142,35.4845215 66.970752,35.4845215 L43.4443359,35.4845215 L43.4443359,89.5 L54.6578613,89.5 L54.6578613,70.0778809 L66.1279053,70.0778809 C72.1133681,70.0778809 76.7184409,68.7586558 79.9432617,66.120166 C83.1680825,63.4816763 84.7804687,58.9743239 84.7804687,52.5979736 Z" id="Combined-Shape"></path>
            </g>
        </g>
        <g id="chit-letter" transform="translate(150.500000, 750.500000)" fill="#000000">
            <g id="chit">
                <path d="M62.5,125 C27.9822031,125 0,97.0177969 0,62.5 C0,27.9822031 27.9822031,0 62.5,0 C97.0177969,0 125,27.9822031 125,62.5 C125,97.0177969 97.0177969,125 62.5,125 Z M45.2949341,35.5578125 L45.2949341,89.5 L56.5084595,89.5 L56.5084595,66.8530762 L80.218103,66.8530762 L80.218103,57.4718262 L56.5084595,57.4718262 L56.5084595,45.048999 L83.5894897,45.048999 L83.5894897,35.5578125 L45.2949341,35.5578125 Z" id="Combined-Shape"></path>
            </g>
        </g>
        <g id="chit-letter" transform="translate(0.500000, 750.500000)" fill="#000000">
            <g id="chit">
                <path d="M62.5,125 C27.9822031,125 0,97.0177969 0,62.5 C0,27.9822031 27.9822031,0 62.5,0 C97.0177969,0 125,27.9822031 125,62.5 C125,97.0177969 97.0177969,125 62.5,125 Z M62.9214233,81.4379883 C58.450649,81.4379883 54.8838553,79.7889569 52.2209351,76.4908447 C49.5580148,73.1927325 48.2265747,68.5021544 48.2265747,62.4189697 C48.2265747,56.335785 49.5580148,51.6452069 52.2209351,48.3470947 C54.8838553,45.0489825 58.450649,43.3999512 62.9214233,43.3999512 C67.3921976,43.3999512 70.9406688,45.0550901 73.5669434,48.3654175 C76.1932179,51.6757449 77.5063354,56.3602155 77.5063354,62.4189697 C77.5063354,68.5021544 76.1932179,73.1927325 73.5669434,76.4908447 C70.9406688,79.7889569 67.3921976,81.4379883 62.9214233,81.4379883 Z M88.7931519,62.4189697 C88.7931519,52.5246331 86.0691963,45.0978845 80.6212036,40.138501 C76.5413167,35.9364617 70.6414489,33.8354736 62.9214233,33.8354736 C55.2013978,33.8354736 49.30153,35.9364617 45.2216431,40.138501 C39.7492199,45.0978845 37.0130493,52.5246331 37.0130493,62.4189697 C37.0130493,72.1178626 39.7492199,79.5446113 45.2216431,84.6994385 C49.30153,88.9014777 55.2013978,91.0024658 62.9214233,91.0024658 C70.6414489,91.0024658 76.5413167,88.9014777 80.6212036,84.6994385 C86.0691963,79.5446113 88.7931519,72.1178626 88.7931519,62.4189697 Z" id="Combined-Shape"></path>
            </g>
        </g>
        <g id="chit-letter" transform="translate(600.500000, 600.500000)" fill="#000000">
            <g id="chit">
                <path d="M62.5,125 C27.9822031,125 0,97.0177969 0,62.5 C0,27.9822031 27.9822031,0 62.5,0 C97.0177969,0 125,27.9822031 125,62.5 C125,97.0177969 97.0177969,125 62.5,125 Z M74.0066895,35.4845215 L63.2695557,59.0109375 L52.0560303,35.4845215 L38.7537109,35.4845215 L57.4429199,69.1983887 L57.4429199,89.5 L68.7297363,89.5 L68.7297363,69.1983887 L86.7959717,35.4845215 L74.0066895,35.4845215 Z" id="Combined-Shape"></path>
            </g>
        </g>
        <g id="chit-letter" transform="translate(450.500000, 600.500000)" fill="#000000">
            <g id="chit">
                <path d="M62.5,125 C27.9822031,125 0,97.0177969 0,62.5 C0,27.9822031 27.9822031,0 62.5,0 C97.0177969,0 125,27.9822031 125,62.5 C125,97.0177969 97.0177969,125 62.5,125 Z M62.8114868,81.4379883 C59.3667919,81.4379883 56.4107505,80.3997093 53.9432739,78.3231201 C50.1321221,75.1227298 48.2265747,69.8213993 48.2265747,62.4189697 C48.2265747,56.0914804 49.5580148,51.3398271 52.2209351,48.1638672 C54.8838553,44.9879073 58.450649,43.3999512 62.9214233,43.3999512 C67.6853632,43.3999512 71.3071246,45.0550901 73.7868164,48.3654175 C76.2665082,51.6757449 77.5063354,56.3602155 77.5063354,62.4189697 C77.5063354,65.0574595 77.2376044,67.3661034 76.7001343,69.3449707 C76.3581078,70.6642156 75.7595705,72.2033115 74.9045044,73.9623047 L69.4443237,68.7586426 L63.617688,74.8417969 L69.0778687,80.045459 C68.0517893,80.4852073 67.2089511,80.7905835 66.5493286,80.9615967 C65.352236,81.2791927 64.1063012,81.4379883 62.8114868,81.4379883 Z M88.7931519,61.6127686 C88.7931519,52.5246372 86.0569813,45.4521249 80.5845581,40.3950195 C75.8450487,36.0219671 69.9818261,33.8354736 62.9947144,33.8354736 C56.0564635,33.8354736 50.2543161,35.8998166 45.5880981,40.0285645 C39.8713703,45.0856698 37.0130493,52.5490636 37.0130493,62.4189697 C37.0130493,72.2155845 39.7980801,79.6423331 45.3682251,84.6994385 C49.9611517,88.9014777 55.7755141,91.0024658 62.8114868,91.0024658 C66.1828904,91.0024658 69.0778566,90.5993693 71.4964722,89.7931641 C72.9378693,89.3045548 74.6479759,88.4617166 76.6268433,87.264624 L83.1497437,93.4210693 L89.0496704,87.264624 L82.8199341,81.4379883 C84.6766491,79.3858296 86.0813795,76.8084546 87.0341675,73.7057861 C88.2068296,70.4565349 88.7931519,66.4255693 88.7931519,61.6127686 Z" id="Combined-Shape"></path>
            </g>
        </g>
        <g id="chit-letter" transform="translate(300.500000, 600.500000)" fill="#000000">
            <g id="chit">
                <path d="M62.5,125 C27.9822031,125 0,97.0177969 0,62.5 C0,27.9822031 27.9822031,0 62.5,0 C97.0177969,0 125,27.9822031 125,62.5 C125,97.0177969 97.0177969,125 62.5,125 Z M53.9432739,69.0151611 L43.2794312,69.0151611 L43.2794312,70.2611084 C43.2794312,76.6130282 44.4765058,81.627305 46.8706909,85.3040894 C49.2648761,88.9808737 53.9676692,90.8192383 60.9792114,90.8192383 C67.9907536,90.8192383 72.8401274,88.5472395 75.527478,84.0031738 C77.115458,81.3158232 77.909436,77.6757391 77.909436,73.0828125 L77.909436,35.4845215 L66.6226196,35.4845215 L66.6226196,73.26604 C66.6226196,75.8800993 66.3661036,77.7367865 65.853064,78.8361572 C64.9979978,80.6928722 63.2390311,81.6212158 60.5761108,81.6212158 C57.8887602,81.6212158 56.1359009,80.77227 55.3174805,79.074353 C54.49906,77.376436 54.0409958,74.4387172 53.9432739,70.2611084 L53.9432739,69.0151611 Z" id="Combined-Shape"></path>
            </g>
        </g>
        <g id="chit-letter" transform="translate(150.500000, 600.500000)" fill="#000000">
            <g id="chit">
                <path d="M62.5,125 C27.9822031,125 0,97.0177969 0,62.5 C0,27.9822031 27.9822031,0 62.5,0 C97.0177969,0 125,27.9822031 125,62.5 C125,97.0177969 97.0177969,125 62.5,125 Z M74.8128906,35.4845215 L62.9763916,76.4908447 L51.2498291,35.4845215 L39.193457,35.4845215 L57.4429199,89.5 L68.1067627,89.5 L86.5394531,35.4845215 L74.8128906,35.4845215 Z" id="Combined-Shape"></path>
            </g>
        </g>
        <g id="chit-letter" transform="translate(0.500000, 600.500000)" fill="#000000">
            <g id="chit">
                <path d="M62.5,125 C27.9822031,125 0,97.0177969 0,62.5 C0,27.9822031 27.9822031,0 62.5,0 C97.0177969,0 125,27.9822031 125,62.5 C125,97.0177969 97.0177969,125 62.5,125 Z M72.7607422,35.4845215 L63.0130371,77.956665 L53.192041,35.4845215 L36.7748535,35.4845215 L36.7748535,89.5 L47.2921143,89.5 L47.2921143,52.9644287 C47.2921143,51.9139189 47.2798992,50.4420057 47.2554688,48.548645 C47.2310383,46.6552843 47.2188232,45.1955862 47.2188232,44.1695068 L57.3696289,89.5 L68.3266357,89.5 L78.5507324,44.1695068 C78.5507324,45.1955862 78.5385174,46.6552843 78.5140869,48.548645 C78.4896565,50.4420057 78.4774414,51.9139189 78.4774414,52.9644287 L78.4774414,89.5 L88.9947021,89.5 L88.9947021,35.4845215 L72.7607422,35.4845215 Z" id="Combined-Shape"></path>
            </g>
        </g>
        <g id="chit-letter" transform="translate(600.500000, 450.500000)" fill="#000000">
            <g id="chit">
                <path d="M62.5,125 C27.9822031,125 0,97.0177969 0,62.5 C0,27.9822031 27.9822031,0 62.5,0 C97.0177969,0 125,27.9822031 125,62.5 C125,97.0177969 97.0177969,125 62.5,125 Z M52.4041626,44.8657715 L65.5232544,44.8657715 C67.9663005,44.8657715 69.7985575,45.1833627 71.0200806,45.8185547 C73.1943916,46.9423559 74.2815308,49.1410644 74.2815308,52.4147461 C74.2815308,55.4441232 73.1577464,57.471821 70.910144,58.4979004 C69.6397601,59.0842314 67.7342127,59.3773926 65.1934448,59.3773926 L52.4041626,59.3773926 L52.4041626,44.8657715 Z M67.8685669,35.4845215 L41.3738647,35.4845215 L41.3738647,89.5 L52.4041626,89.5 L52.4041626,68.3188965 L64.0574341,68.3188965 C67.3799767,68.3188965 69.645868,68.8930037 70.8551758,70.0412354 C72.0644836,71.189467 72.6935585,73.4858959 72.7424194,76.9305908 L72.8157104,81.9510254 C72.8401409,83.5390053 72.9989365,85.0903163 73.2921021,86.6050049 C73.4386848,87.3379187 73.6829858,88.3029074 74.0250122,89.5 L86.4478394,89.5 L86.4478394,88.1441162 C85.3728991,87.4844938 84.6888564,86.4584298 84.3956909,85.0658936 C84.2002472,84.186397 84.1025269,82.5129355 84.1025269,80.045459 L84.1025269,76.4175537 C84.1025269,72.6308323 83.5833874,69.8152639 82.5450928,67.9707642 C81.5067982,66.1262644 79.7417239,64.7032114 77.2498169,63.7015625 C80.2303331,62.6754832 82.3679663,60.9226239 83.6627808,58.4429321 C84.9575952,55.9632404 85.6049927,53.4408331 85.6049927,50.8756348 C85.6049927,48.7501847 85.2629714,46.8568524 84.5789185,45.1955811 C83.8948656,43.5343097 82.966522,42.0196439 81.7938599,40.6515381 C80.3768931,38.9902668 78.648464,37.7321169 76.6085205,36.8770508 C74.568577,36.0219847 71.6552883,35.5578129 67.8685669,35.4845215 Z" id="Combined-Shape"></path>
            </g>
        </g>
        <g id="chit-letter" transform="translate(450.500000, 450.500000)" fill="#000000">
            <g id="chit">
                <path d="M62.5,125 C27.9822031,125 0,97.0177969 0,62.5 C0,27.9822031 27.9822031,0 62.5,0 C97.0177969,0 125,27.9822031 125,62.5 C125,97.0177969 97.0177969,125 62.5,125 Z M41.0440552,89.5 L52.2209351,89.5 L52.2209351,65.3872559 L73.3287476,65.3872559 L73.3287476,89.5 L84.5422729,89.5 L84.5422729,35.4845215 L73.3287476,35.4845215 L73.3287476,56.0792969 L52.2209351,56.0792969 L52.2209351,35.4845215 L41.0440552,35.4845215 L41.0440552,89.5 Z" id="Combined-Shape"></path>
            </g>
        </g>
        <g id="chit-letter" transform="translate(300.500000, 450.500000)" fill="#000000">
            <g id="chit">
                <path d="M62.5,125 C27.9822031,125 0,97.0177969 0,62.5 C0,27.9822031 27.9822031,0 62.5,0 C97.0177969,0 125,27.9822031 125,62.5 C125,97.0177969 97.0177969,125 62.5,125 Z M51.3597656,72.8262939 L40.5859863,72.8262939 C40.5859863,78.4452999 42.6014691,82.8610394 46.6324951,86.073645 C50.6635211,89.2862506 56.1969375,90.8925293 63.2329102,90.8925293 C70.1223001,90.8925293 75.4541681,89.2618205 79.2286743,86.000354 C83.0031805,82.7388875 84.8904053,78.6407392 84.8904053,73.7057861 C84.8904053,68.8929854 83.2780191,65.2162562 80.0531982,62.6754883 C77.9766091,61.0386474 74.8984172,59.7316374 70.8185303,58.7544189 L61.5105713,56.519043 C57.9192936,55.6639768 55.5740045,54.918859 54.4746338,54.283667 C52.7645015,53.330879 51.9094482,51.8895035 51.9094482,49.9594971 C51.9094482,47.8584775 52.7767166,46.2216611 54.5112793,45.048999 C56.245842,43.8763369 58.566701,43.2900146 61.4739258,43.2900146 C64.0879851,43.2900146 66.2744785,43.7419714 68.0334717,44.6458984 C70.6719614,46.0140042 72.0889069,48.3226481 72.2843506,51.5718994 L83.1314209,51.5718994 C82.9359772,45.8307412 80.8288816,41.4516468 76.8100708,38.4344849 C72.79126,35.417323 67.9357788,33.9087646 62.2434814,33.9087646 C55.4273829,33.9087646 50.260418,35.5089358 46.7424316,38.7093262 C43.2244453,41.9097165 41.4654785,45.928467 41.4654785,50.7656982 C41.4654785,56.0671082 43.2855205,59.9637082 46.9256592,62.4556152 C49.0755397,63.9458733 52.9599247,65.3261737 58.5789307,66.5965576 L64.2956299,67.8791504 C67.642603,68.6120642 70.0978275,69.4549025 71.661377,70.4076904 C73.2249264,71.3849089 74.0066895,72.7652092 74.0066895,74.5486328 C74.0066895,77.6024404 72.4309484,79.6912135 69.2794189,80.8150146 C67.6181476,81.4013457 65.4560843,81.6945068 62.7931641,81.6945068 C58.3468202,81.6945068 55.2075531,80.5829375 53.3752686,78.3597656 C52.3736197,77.1382426 51.7017921,75.2937705 51.3597656,72.8262939 Z" id="Combined-Shape"></path>
            </g>
        </g>
        <g id="chit-letter" transform="translate(150.500000, 450.500000)" fill="#000000">
            <g id="chit">
                <path d="M62.5,125 C27.9822031,125 0,97.0177969 0,62.5 C0,27.9822031 27.9822031,0 62.5,0 C97.0177969,0 125,27.9822031 125,62.5 C125,97.0177969 97.0177969,125 62.5,125 Z M51.7995117,89.5 L62.646582,71.1039551 L72.9073242,89.5 L86.6127441,89.5 L69.0595459,61.5394775 L85.5866699,35.4845215 L72.5408691,35.4845215 L62.646582,53.0377197 L53.0088135,35.4845215 L39.5232666,35.4845215 L56.0503906,61.9792236 L38.6804199,89.5 L51.7995117,89.5 Z" id="Combined-Shape"></path>
            </g>
        </g>
        <g id="chit-letter" transform="translate(0.500000, 450.500000)" fill="#000000">
            <g id="chit">
                <path d="M62.5,125 C27.9822031,125 0,97.0177969 0,62.5 C0,27.9822031 27.9822031,0 62.5,0 C97.0177969,0 125,27.9822031 125,62.5 C125,97.0177969 97.0177969,125 62.5,125 Z M75.3442505,52.3414551 L86.4478394,52.3414551 C85.8370778,47.137767 83.4490361,42.7953177 79.2836426,39.3139771 C75.118249,35.8326364 69.6031553,34.0919922 62.7381958,34.0919922 C54.8227265,34.0919922 48.458687,36.7304424 43.6458862,42.0074219 C38.8330855,47.2844014 36.4267212,54.2958384 36.4267212,63.0419434 C36.4267212,71.6903264 38.8086554,78.5063227 43.5725952,83.4901367 C48.1410914,88.4495202 54.004314,90.9291748 61.162439,90.9291748 C65.511061,90.9291748 69.1755751,90.0130463 72.1560913,88.1807617 C73.890654,87.1302519 75.8450616,85.3224249 78.0193726,82.7572266 L79.1553833,89.5 L86.6310669,89.5 L86.6310669,60.5134033 L64.1307251,60.5134033 L64.1307251,69.5281982 L76.6268433,69.5281982 C76.0649427,73.070615 74.5747069,75.9350436 72.1560913,78.1215698 C69.7374757,80.3080961 66.6348537,81.4013428 62.8481323,81.4013428 C58.9881195,81.4013428 55.5434762,80.0210424 52.5140991,77.2604004 C49.484722,74.4997583 47.9700562,69.7969652 47.9700562,63.1518799 C47.9700562,56.5556555 49.368679,51.6146689 52.1659668,48.328772 C54.9632545,45.042875 58.5361558,43.3999512 62.8847778,43.3999512 C65.1568107,43.3999512 67.2211536,43.8030477 69.0778687,44.6092529 C72.4004113,46.0750806 74.4891844,48.6524555 75.3442505,52.3414551 Z" id="Combined-Shape"></path>
            </g>
        </g>
        <g id="chit-letter" transform="translate(600.500000, 300.500000)" fill="#000000">
            <g id="chit">
                <path d="M62.5,125 C27.9822031,125 0,97.0177969 0,62.5 C0,27.9822031 27.9822031,0 62.5,0 C97.0177969,0 125,27.9822031 125,62.5 C125,97.0177969 97.0177969,125 62.5,125 Z M41.3005737,35.4845215 L41.3005737,89.5 L52.4041626,89.5 L52.4041626,71.4337646 L57.7910522,65.900293 L74.4647583,89.5 L88.9763794,89.5 L65.7064819,57.7283447 L87.8403687,35.4845215 L73.2554565,35.4845215 L52.4041626,57.7283447 L52.4041626,35.4845215 L41.3005737,35.4845215 Z" id="Combined-Shape"></path>
            </g>
        </g>
        <g id="chit-letter" transform="translate(450.500000, 300.500000)" fill="#000000">
            <g id="chit">
                <path d="M62.5,125 C27.9822031,125 0,97.0177969 0,62.5 C0,27.9822031 27.9822031,0 62.5,0 C97.0177969,0 125,27.9822031 125,62.5 C125,97.0177969 97.0177969,125 62.5,125 Z M84.5422729,35.4845215 L40.7875366,35.4845215 L40.7875366,45.048999 L57.0214966,45.048999 L57.0214966,89.5 L68.381604,89.5 L68.381604,45.048999 L84.5422729,45.048999 L84.5422729,35.4845215 Z" id="Combined-Shape"></path>
            </g>
        </g>
        <g id="chit-letter" transform="translate(300.500000, 300.500000)" fill="#000000">
            <g id="chit">
                <path d="M62.5,125 C27.9822031,125 0,97.0177969 0,62.5 C0,27.9822031 27.9822031,0 62.5,0 C97.0177969,0 125,27.9822031 125,62.5 C125,97.0177969 97.0177969,125 62.5,125 Z M40.9341187,35.4845215 L40.9341187,89.5 L51.4513794,89.5 L51.4513794,51.1321533 L73.5119751,89.5 L84.7987915,89.5 L84.7987915,35.4845215 L74.2815308,35.4845215 L74.2815308,73.192749 L52.7706177,35.4845215 L40.9341187,35.4845215 Z" id="Combined-Shape"></path>
            </g>
        </g>
        <g id="chit-letter" transform="translate(150.500000, 300.500000)" fill="#000000">
            <g id="chit">
                <path d="M62.5,125 C27.9822031,125 0,97.0177969 0,62.5 C0,27.9822031 27.9822031,0 62.5,0 C97.0177969,0 125,27.9822031 125,62.5 C125,97.0177969 97.0177969,125 62.5,125 Z M83.1314209,45.048999 L83.1314209,35.4845215 L43.517627,35.4845215 L43.517627,89.5 L84.4506592,89.5 L84.4506592,79.7889404 L54.5479248,79.7889404 L54.5479248,65.900293 L80.7861084,65.900293 L80.7861084,56.519043 L54.5479248,56.519043 L54.5479248,45.048999 L83.1314209,45.048999 Z" id="Combined-Shape"></path>
            </g>
        </g>
        <g id="chit-letter" transform="translate(0.500000, 300.500000)" fill="#000000">
            <g id="chit">
                <path d="M62.5,125 C27.9822031,125 0,97.0177969 0,62.5 C0,27.9822031 27.9822031,0 62.5,0 C97.0177969,0 125,27.9822031 125,62.5 C125,97.0177969 97.0177969,125 62.5,125 Z M55.8854858,69.0884521 L62.8481323,47.8340576 L69.5909058,69.0884521 L55.8854858,69.0884521 Z M56.5817505,35.4845215 L37.3062134,89.5 L49.1060669,89.5 L52.8439087,78.3964111 L72.7424194,78.3964111 L76.2237427,89.5 L88.4633423,89.5 L69.3343872,35.4845215 L56.5817505,35.4845215 Z" id="Combined-Shape"></path>
            </g>
        </g>
        <g id="chit-letter" transform="translate(600.500000, 150.500000)" fill="#000000">
            <g id="chit">
                <path d="M62.5,125 C27.9822031,125 0,97.0177969 0,62.5 C0,27.9822031 27.9822031,0 62.5,0 C97.0177969,0 125,27.9822031 125,62.5 C125,97.0177969 97.0177969,125 62.5,125 Z M20.6141846,79.972168 L20.6141846,89.5 L62.646582,89.5 L62.646582,79.972168 L34.3196045,79.972168 L62.573291,44.5359619 L62.573291,35.4845215 L21.3104492,35.4845215 L21.3104492,45.048999 L48.501416,45.048999 L20.6141846,79.972168 Z M93.2822266,63.88479 L103.982715,63.88479 C103.396384,58.1924927 101.509159,54.2226024 98.3209839,51.975 C95.1328088,49.7273976 91.0346605,48.6036133 86.026416,48.6036133 C80.138675,48.6036133 75.5213872,50.5091606 72.1744141,54.3203125 C68.8274409,58.1314644 67.1539795,63.46944 67.1539795,70.3343994 C67.1539795,76.4175841 68.6686453,81.3646782 71.6980225,85.1758301 C74.7273996,88.9869819 79.4546228,90.8925293 85.879834,90.8925293 C92.3050451,90.8925293 97.1544189,88.6083155 100.428101,84.0398193 C102.480259,81.2058859 103.628474,78.2009843 103.872778,75.0250244 L93.2089355,75.0250244 C92.9890614,77.126044 92.366094,78.8361506 91.3400146,80.1553955 C90.3139353,81.4746404 88.5793986,82.1342529 86.1363525,82.1342529 C82.6916576,82.1342529 80.3463685,80.4730065 79.100415,77.1504639 C78.4163621,75.3670402 78.0743408,73.0095361 78.0743408,70.0778809 C78.0743408,66.9996428 78.4163621,64.5322033 79.100415,62.6754883 C80.3952295,59.1819324 82.8015937,57.4351807 86.3195801,57.4351807 C88.7870566,57.4351807 90.6070986,58.2413738 91.7797607,59.8537842 C92.5859659,61.0508768 93.0867829,62.3945319 93.2822266,63.88479 Z" id="Combined-Shape"></path>
            </g>
        </g>
        <g id="chit-letter" transform="translate(450.500000, 150.500000)" fill="#000000">
            <g id="chit">
                <path d="M62.5,125 C27.9822031,125 0,97.0177969 0,62.5 C0,27.9822031 27.9822031,0 62.5,0 C97.0177969,0 125,27.9822031 125,62.5 C125,97.0177969 97.0177969,125 62.5,125 Z M40.164563,35.4845215 L28.1814819,35.4845215 L43.4993042,89.5 L53.9799194,89.5 L60.5028198,57.9115723 L62.4083862,47.4676025 L64.3139526,57.9115723 L70.836853,89.5 L81.6106323,89.5 L96.8185181,35.4845215 L85.3484741,35.4845215 L78.1293091,66.7431396 L76.4802612,75.0250244 L74.8312134,66.4133301 L68.4182495,35.4845215 L56.5084595,35.4845215 L50.4253052,66.5965576 L48.8495483,75.0250244 L47.310437,66.4133301 L40.164563,35.4845215 Z" id="Combined-Shape"></path>
            </g>
        </g>
        <g id="chit-letter" transform="translate(300.500000, 150.500000)" fill="#000000">
            <g id="chit">
                <path d="M62.5,125 C27.9822031,125 0,97.0177969 0,62.5 C0,27.9822031 27.9822031,0 62.5,0 C97.0177969,0 125,27.9822031 125,62.5 C125,97.0177969 97.0177969,125 62.5,125 Z M41.1173462,35.4845215 L41.1173462,68.6853516 C41.1173462,74.4265098 42.0090446,78.8972171 43.7924683,82.0976074 C47.1394414,87.960918 53.4912659,90.8925293 62.8481323,90.8925293 C72.2049988,90.8925293 78.5446082,87.960918 81.8671509,82.0976074 C83.6505745,78.8972171 84.5422729,74.4265098 84.5422729,68.6853516 L84.5422729,35.4845215 L73.072229,35.4845215 L73.072229,68.6853516 C73.072229,72.3987816 72.6324873,75.110522 71.7529907,76.8206543 C70.3848849,79.8500314 67.4166285,81.3646973 62.8481323,81.3646973 C58.2552057,81.3646973 55.2747342,79.8500314 53.9066284,76.8206543 C53.0271318,75.110522 52.5873901,72.3987816 52.5873901,68.6853516 L52.5873901,35.4845215 L41.1173462,35.4845215 Z" id="Combined-Shape"></path>
            </g>
        </g>
        <g id="chit-letter" transform="translate(150.500000, 150.500000)" fill="#000000">
            <g id="chit">
                <path d="M62.5,125 C27.9822031,125 0,97.0177969 0,62.5 C0,27.9822031 27.9822031,0 62.5,0 C97.0177969,0 125,27.9822031 125,62.5 C125,97.0177969 97.0177969,125 62.5,125 Z M20.6141846,79.972168 L20.6141846,89.5 L62.646582,89.5 L62.646582,79.972168 L34.3196045,79.972168 L62.573291,44.5359619 L62.573291,35.4845215 L21.3104492,35.4845215 L21.3104492,45.048999 L48.501416,45.048999 L20.6141846,79.972168 Z M91.4499512,70.0778809 L91.4499512,73.9623047 C91.3766598,77.4558606 90.3933485,79.8622248 88.4999878,81.1814697 C86.6066271,82.5007146 84.5361766,83.1603271 82.2885742,83.1603271 C80.8716075,83.1603271 79.6684254,82.7633381 78.6789917,81.9693481 C77.689558,81.1753582 77.1948486,79.8866707 77.1948486,78.1032471 C77.1948486,76.0999493 78.0010417,74.6219286 79.6134521,73.6691406 C80.5662401,73.10724 82.1419812,72.6308532 84.3407227,72.2399658 L86.6860352,71.8002197 C87.8586973,71.5803456 88.7809333,71.3421522 89.452771,71.0856323 C90.1246087,70.8291125 90.7903287,70.4931987 91.4499512,70.0778809 Z M85.1102783,65.2040283 L81.5556641,65.6437744 C77.524638,66.1568141 74.4708763,67.0118674 72.3942871,68.20896 C68.6075657,70.4077014 66.7142334,73.9622801 66.7142334,78.8728027 C66.7142334,82.6595241 67.8929854,85.5850279 70.2505249,87.6494019 C72.6080644,89.7137758 75.5946434,90.7459473 79.2103516,90.7459473 C82.044285,90.7459473 84.5850148,90.0985498 86.8326172,88.8037354 C88.7137627,87.7043646 90.3750091,86.3729245 91.8164062,84.809375 C91.8896976,85.713302 91.987418,86.5194952 92.1095703,87.2279785 C92.2317226,87.9364619 92.4515935,88.6937948 92.7691895,89.5 L104.129297,89.5 L104.129297,87.9608887 C103.445244,87.6432927 102.932212,87.2401961 102.590186,86.7515869 C102.248159,86.2629777 102.040503,85.3346341 101.967212,83.9665283 C101.918351,82.1586742 101.893921,80.6195783 101.893921,79.3491943 L101.893921,61.0264404 C101.893921,56.2136397 100.196029,52.940007 96.8001953,51.2054443 C93.4043613,49.4708816 89.5199763,48.6036133 85.1469238,48.6036133 C78.4285471,48.6036133 73.6891089,50.3625801 70.9284668,53.8805664 C69.1939041,56.1281688 68.2167003,58.9987049 67.9968262,62.4922607 L78.0743408,62.4922607 C78.3186454,60.9531417 78.8072473,59.731637 79.5401611,58.82771 C80.5662405,57.6061869 82.3129922,56.9954346 84.7804687,56.9954346 C86.9792102,56.9954346 88.6465641,57.3069183 89.7825806,57.929895 C90.918597,58.5528718 91.4865967,59.6827636 91.4865967,61.3196045 C91.4865967,62.6632798 90.7414788,63.6526986 89.2512207,64.2878906 C88.420585,64.6543475 87.0402847,64.9597237 85.1102783,65.2040283 Z" id="Combined-Shape"></path>
            </g>
        </g>
        <g id="chit-letter" transform="translate(0.500000, 150.500000)" fill="#000000">
            <g id="chit">
                <path d="M62.5,125 C27.9822031,125 0,97.0177969 0,62.5 C0,27.9822031 27.9822031,0 62.5,0 C97.0177969,0 125,27.9822031 125,62.5 C125,97.0177969 97.0177969,125 62.5,125 Z M18.5620361,79.972168 L18.5620361,89.5 L60.5944336,89.5 L60.5944336,79.972168 L32.2674561,79.972168 L60.5211426,44.5359619 L60.5211426,35.4845215 L19.2583008,35.4845215 L19.2583008,45.048999 L46.4492676,45.048999 L18.5620361,79.972168 Z M88.9580566,48.6769043 C86.0508318,48.6769043 83.6566826,49.2876567 81.7755371,50.5091797 C80.1875572,51.4863981 78.7339666,52.9033436 77.4147217,54.7600586 L77.4147217,35.5578125 L67.0073975,35.5578125 L67.0073975,89.5 L77.2314941,89.5 L77.2314941,84.4795654 C78.6240304,86.4340023 79.9188254,87.8020876 81.115918,88.5838623 C83.1192157,89.9031072 85.769881,90.5627197 89.0679932,90.5627197 C94.3205422,90.5627197 98.412583,88.5228069 101.344238,84.4429199 C104.275894,80.363033 105.741699,75.2204981 105.741699,69.0151611 C105.741699,63.0296983 104.257571,58.1436794 101.28927,54.356958 C98.320969,50.5702366 94.2106057,48.6769043 88.9580566,48.6769043 Z M86.2829346,81.9510254 C83.1802661,81.9510254 80.8716222,80.8272411 79.3569336,78.5796387 C77.842245,76.3320363 77.0849121,73.4981454 77.0849121,70.0778809 C77.0849121,67.170656 77.4513635,64.8009369 78.1842773,62.9686523 C79.6012441,59.5239574 82.2030491,57.8016357 85.9897705,57.8016357 C89.727631,57.8016357 92.2927909,59.5606025 93.6853271,63.0785889 C94.418241,64.9353039 94.7846924,67.2805929 94.7846924,70.1145264 C94.7846924,73.6569432 94.0395745,76.5152642 92.5493164,78.6895752 C91.0590583,80.8638862 88.9702852,81.9510254 86.2829346,81.9510254 Z" id="Combined-Shape"></path>
            </g>
        </g>
        <g id="chit-letter" transform="translate(600.500000, 0.500000)" fill="#000000">
            <g id="chit">
                <path d="M62.5,125 C27.9822031,125 0,97.0177969 0,62.5 C0,27.9822031 27.9822031,0 62.5,0 C97.0177969,0 125,27.9822031 125,62.5 C125,97.0177969 97.0177969,125 62.5,125 Z M52.074353,44.8657715 L62.4816772,44.8657715 C67.612074,44.8657715 71.0383947,46.3376847 72.7607422,49.2815552 C74.4830897,52.2254257 75.3442505,56.4457245 75.3442505,61.9425781 C75.3442505,65.9247432 74.7701433,69.3571715 73.6219116,72.2399658 C71.520892,77.4925149 67.8075177,80.11875 62.4816772,80.11875 L52.074353,80.11875 L52.074353,44.8657715 Z M64.3872437,35.4845215 L41.1173462,35.4845215 L41.1173462,89.5 L64.3872437,89.5 C72.5470175,89.5 78.5812508,86.140862 82.4901245,79.4224854 C85.3729189,74.4386714 86.8142944,68.3555779 86.8142944,61.1730225 C86.8142944,58.339089 86.4722731,55.3586175 85.7882202,52.2315186 C85.1041673,49.1044196 83.8215874,46.1972384 81.9404419,43.5098877 C79.5951177,40.187345 76.5291408,37.9031312 72.7424194,36.6571777 C70.5192475,35.9242639 67.7342168,35.5333824 64.3872437,35.4845215 Z" id="Combined-Shape"></path>
            </g>
        </g>
        <g id="chit-letter" transform="translate(450.500000, 0.500000)" fill="#000000">
            <g id="chit">
                <path d="M62.5,125 C27.9822031,125 0,97.0177969 0,62.5 C0,27.9822031 27.9822031,0 62.5,0 C97.0177969,0 125,27.9822031 125,62.5 C125,97.0177969 97.0177969,125 62.5,125 Z M52.074353,44.8657715 L63.9474976,44.8657715 C66.5615569,44.8657715 68.7114051,45.1467176 70.3971069,45.7086182 C72.3515438,46.5148234 73.3287476,48.1760698 73.3287476,50.6924072 C73.3287476,52.9644401 72.5897372,54.5462887 71.1116943,55.4380005 C69.6336515,56.3297123 67.7097815,56.7755615 65.3400269,56.7755615 L52.074353,56.7755615 L52.074353,44.8657715 Z M52.074353,65.7170654 L65.5232544,65.7170654 C67.8685786,65.7414959 69.6886206,66.0468721 70.9834351,66.6332031 C73.3043288,67.6837129 74.4647583,69.6136904 74.4647583,72.4231934 C74.4647583,75.745736 73.2676837,77.9933047 70.8734985,79.1659668 C69.5542537,79.8011588 67.7097815,80.11875 65.3400269,80.11875 L52.074353,80.11875 L52.074353,65.7170654 Z M67.5387573,35.4845215 L41.3005737,35.4845215 L41.3005737,89.5 L65.7797729,89.5 C68.540415,89.5 71.0994674,89.2556991 73.4570068,88.7670898 C75.8145463,88.2784806 77.8605667,87.3745671 79.5951294,86.0553223 C81.1342484,84.9070906 82.4168284,83.4901451 83.4429077,81.8044434 C85.0553181,79.2636754 85.8615112,76.3931394 85.8615112,73.192749 C85.8615112,70.0900805 85.159146,67.4516303 83.7543945,65.2773193 C82.349643,63.1030083 80.2669775,61.5150522 77.5063354,60.5134033 C79.3141895,59.5850458 80.6822748,58.5589819 81.6106323,57.4351807 C83.2719037,55.4318829 84.1025269,52.7812177 84.1025269,49.4831055 C84.1025269,46.2827151 83.2719037,43.5343295 81.6106323,41.2378662 C78.8499903,37.5000057 74.1594122,35.5822433 67.5387573,35.4845215 Z" id="Combined-Shape"></path>
            </g>
        </g>
        <g id="chit-letter" transform="translate(300.500000, 0.500000)" fill="#000000">
            <g id="chit">
                <path d="M62.5,125 C27.9822031,125 0,97.0177969 0,62.5 C0,27.9822031 27.9822031,0 62.5,0 C97.0177969,0 125,27.9822031 125,62.5 C125,97.0177969 97.0177969,125 62.5,125 Z M38.7720337,62.9320068 C38.7720337,71.6536813 40.9951723,78.5185378 45.4415161,83.5267822 C49.88786,88.5105962 55.9953835,91.0024658 63.76427,91.0024658 C70.0428984,91.0024658 75.1915408,89.1579937 79.2103516,85.4689941 C83.2291623,81.7799946 85.7271395,76.9916961 86.7043579,71.1039551 L75.527478,71.1039551 C74.7701337,73.8890276 73.8173601,75.9778007 72.6691284,77.3703369 C70.5925393,79.9599657 67.5754226,81.2547607 63.617688,81.2547607 C59.7576752,81.2547607 56.5756554,79.7462024 54.0715332,76.7290405 C51.567411,73.7118786 50.3153687,69.1739886 50.3153687,63.1152344 C50.3153687,57.0564801 51.5002282,52.3720096 53.8699829,49.0616821 C56.2397376,45.7513547 59.4767251,44.0962158 63.5810425,44.0962158 C67.6120685,44.0962158 70.6536152,45.2688603 72.7057739,47.6141846 C73.8540056,48.9334294 74.7945642,50.887837 75.527478,53.4774658 L86.8142944,53.4774658 C86.6432812,50.1060622 85.3973464,46.7469243 83.0764526,43.3999512 C78.8744134,37.4389188 72.2294278,34.4584473 63.1412964,34.4584473 C56.3496283,34.4584473 50.7551367,36.6815858 46.3576538,41.1279297 C41.3005484,46.233896 38.7720337,53.501849 38.7720337,62.9320068 Z" id="Combined-Shape"></path>
            </g>
        </g>
        <g id="chit-letter" transform="translate(150.500000, 0.500000)" fill="#000000">
            <g id="chit">
                <path d="M62.5,125 C27.9822031,125 0,97.0177969 0,62.5 C0,27.9822031 27.9822031,0 62.5,0 C97.0177969,0 125,27.9822031 125,62.5 C125,97.0177969 97.0177969,125 62.5,125 Z M45.2949341,35.4845215 L45.2949341,89.5 L83.3329712,89.5 L83.3329712,79.7889404 L56.5817505,79.7889404 L56.5817505,35.4845215 L45.2949341,35.4845215 Z" id="Combined-Shape"></path>
            </g>
        </g>
    </g>
</svg>