<?xml version="1.0" encoding="UTF-8"?>
<svg width="726px" height="876px" viewBox="0 0 726 876" version="1.1" xmlns="http://www.w3.org/2000/svg" xmlns:xlink="http://www.w3.org/1999/xlink">
    <!-- Generator: Sketch 52.4 (67378) - http://www.bohemiancoding.com/sketch -->
    <title>Artboard Copy</title>
    <desc>Created with Sketch.</desc>
    <g id="Artboard-Copy" stroke="none" stroke-width="1" fill="none" fill-rule="evenodd">
        <g id="chit-number" transform="translate(450.500000, 750.500000)" fill="#000000">
            <g id="chit">
                <path d="M62.5,125 C27.9822031,125 0,97.0177969 0,62.5 C0,27.9822031 27.9822031,0 62.5,0 C97.0177969,0 125,27.9822031 125,62.5 C125,97.0177969 97.0177969,125 62.5,125 Z M42.8867188,48.28125 C42.8867188,54.1406543 44.631493,58.6262865 48.1210938,61.7382812 C51.6106945,64.850276 55.6080504,66.40625 60.1132812,66.40625 C63.1601715,66.40625 65.72525,65.7812562 67.8085938,64.53125 C68.9544328,63.8541633 70.0351512,62.8776105 71.0507812,61.6015625 C70.8424469,65.898459 70.3346395,69.1666555 69.5273438,71.40625 C68.0429613,75.4687703 65.4648621,77.5 61.7929688,77.5 C59.8919176,77.5 58.3684953,76.9791719 57.2226562,75.9375 C56.0768172,74.8958281 55.3736992,73.541675 55.1132812,71.875 L44.0195312,71.875 C44.5143254,76.6927324 46.4544102,80.3580604 49.8398438,82.8710938 C53.2252773,85.3841271 57.0403434,86.640625 61.2851562,86.640625 C70.1914508,86.640625 76.3111813,82.2786895 79.6445312,73.5546875 C81.3893316,68.9713312 82.2617188,63.2552426 82.2617188,56.40625 C82.2617188,49.348923 81.3502695,43.6588758 79.5273438,39.3359375 C76.3242027,31.705691 70.4128035,27.890625 61.7929688,27.890625 C56.1939824,27.890625 51.6432467,29.7721166 48.140625,33.5351562 C44.6380033,37.2981959 42.8867188,42.2135113 42.8867188,48.28125 Z M62.5351562,57.34375 C59.6966004,57.34375 57.5937568,56.5039146 56.2265625,54.8242188 C54.8593682,53.1445229 54.1757812,50.6250168 54.1757812,47.265625 C54.1757812,43.2812301 55.2434789,40.4557375 57.3789062,38.7890625 C58.7330797,37.7213488 60.3606676,37.1875 62.2617188,37.1875 C64.8658984,37.1875 66.9166592,38.1249906 68.4140625,40 C69.9114658,41.8750094 70.6601562,44.4140465 70.6601562,47.6171875 C70.6601562,51.6015824 69.397148,54.4010336 66.8710938,56.015625 C65.5169203,56.9010461 64.0716223,57.34375 62.5351562,57.34375 Z M85,105.5 C87.7614237,105.5 90,103.261424 90,100.5 C90,97.7385763 87.7614237,95.5 85,95.5 C82.2385763,95.5 80,97.7385763 80,100.5 C80,103.261424 82.2385763,105.5 85,105.5 Z M70,105.5 C72.7614237,105.5 75,103.261424 75,100.5 C75,97.7385763 72.7614237,95.5 70,95.5 C67.2385763,95.5 65,97.7385763 65,100.5 C65,103.261424 67.2385763,105.5 70,105.5 Z M55,105.5 C57.7614237,105.5 60,103.261424 60,100.5 C60,97.7385763 57.7614237,95.5 55,95.5 C52.2385763,95.5 50,97.7385763 50,100.5 C50,103.261424 52.2385763,105.5 55,105.5 Z M40,105.5 C42.7614237,105.5 45,103.261424 45,100.5 C45,97.7385763 42.7614237,95.5 40,95.5 C37.2385763,95.5 35,97.7385763 35,100.5 C35,103.261424 37.2385763,105.5 40,105.5 Z" id="Combined-Shape"></path>
            </g>
        </g>
        <g id="chit-number" transform="translate(300.500000, 750.500000)" fill="#000000">
            <g id="chit">
                <path d="M62.5,125 C27.9822031,125 0,97.0177969 0,62.5 C0,27.9822031 27.9822031,0 62.5,0 C97.0177969,0 125,27.9822031 125,62.5 C125,97.0177969 97.0177969,125 62.5,125 Z M23.8046875,45.9375 L37.125,45.9375 L37.125,85 L48.53125,85 L48.53125,28.359375 L39.2734375,28.359375 C39.2734375,28.8541691 39.1302098,29.6093699 38.84375,30.625 C38.3489559,32.3177168 37.6197965,33.6718699 36.65625,34.6875 C35.249993,36.1718824 33.4270945,37.1614559 31.1875,37.65625 C29.781243,37.9687516 27.3203301,38.2031242 23.8046875,38.359375 L23.8046875,45.9375 Z M76.6171875,57.2265625 C76.6171875,50.4036117 77.1510363,45.3515789 78.21875,42.0703125 C79.2864637,38.7890461 81.4739418,37.1484375 84.78125,37.1484375 C88.0885582,37.1484375 90.2565053,38.7890461 91.2851562,42.0703125 C92.3138072,45.3515789 92.828125,50.4036117 92.828125,57.2265625 C92.828125,63.7370117 92.3138072,68.7174307 91.2851562,72.1679688 C90.2565053,75.6185068 88.0885582,77.34375 84.78125,77.34375 C81.4739418,77.34375 79.2864637,75.6185068 78.21875,72.1679688 C77.1510363,68.7174307 76.6171875,63.7370117 76.6171875,57.2265625 Z M84.78125,27.96875 C77.5676723,27.96875 72.5091291,30.5077871 69.6054688,35.5859375 C66.7018084,40.6640879 65.25,47.8775574 65.25,57.2265625 C65.25,66.5755676 66.7018084,73.7760164 69.6054688,78.828125 C72.5091291,83.8802336 77.5676723,86.40625 84.78125,86.40625 C91.9948277,86.40625 97.0533709,83.8802336 99.9570312,78.828125 C102.860692,73.7760164 104.3125,66.5755676 104.3125,57.2265625 C104.3125,47.8775574 102.860692,40.6640879 99.9570312,35.5859375 C97.0533709,30.5077871 91.9948277,27.96875 84.78125,27.96875 Z M77.5,105.5 C80.2614237,105.5 82.5,103.261424 82.5,100.5 C82.5,97.7385763 80.2614237,95.5 77.5,95.5 C74.7385763,95.5 72.5,97.7385763 72.5,100.5 C72.5,103.261424 74.7385763,105.5 77.5,105.5 Z M62.5,105.5 C65.2614237,105.5 67.5,103.261424 67.5,100.5 C67.5,97.7385763 65.2614237,95.5 62.5,95.5 C59.7385763,95.5 57.5,97.7385763 57.5,100.5 C57.5,103.261424 59.7385763,105.5 62.5,105.5 Z M47.5,105.5 C50.2614237,105.5 52.5,103.261424 52.5,100.5 C52.5,97.7385763 50.2614237,95.5 47.5,95.5 C44.7385763,95.5 42.5,97.7385763 42.5,100.5 C42.5,103.261424 44.7385763,105.5 47.5,105.5 Z" id="Combined-Shape"></path>
            </g>
        </g>
        <g id="chit-number" transform="translate(150.500000, 750.500000)" fill="#000000">
            <g id="chit">
                <path d="M62.5,125 C27.9822031,125 0,97.0177969 0,62.5 C0,27.9822031 27.9822031,0 62.5,0 C97.0177969,0 125,27.9822031 125,62.5 C125,97.0177969 97.0177969,125 62.5,125 Z M25.9921875,45.9375 L39.3125,45.9375 L39.3125,85 L50.71875,85 L50.71875,28.359375 L41.4609375,28.359375 C41.4609375,28.8541691 41.3177098,29.6093699 41.03125,30.625 C40.5364559,32.3177168 39.8072965,33.6718699 38.84375,34.6875 C37.437493,36.1718824 35.6145945,37.1614559 33.375,37.65625 C31.968743,37.9687516 29.5078301,38.2031242 25.9921875,38.359375 L25.9921875,45.9375 Z M66.109375,45.9375 L79.4296875,45.9375 L79.4296875,85 L90.8359375,85 L90.8359375,28.359375 L81.578125,28.359375 C81.578125,28.8541691 81.4348973,29.6093699 81.1484375,30.625 C80.6536434,32.3177168 79.924484,33.6718699 78.9609375,34.6875 C77.5546805,36.1718824 75.731782,37.1614559 73.4921875,37.65625 C72.0859305,37.9687516 69.6250176,38.2031242 66.109375,38.359375 L66.109375,45.9375 Z M70,105.5 C72.7614237,105.5 75,103.261424 75,100.5 C75,97.7385763 72.7614237,95.5 70,95.5 C67.2385763,95.5 65,97.7385763 65,100.5 C65,103.261424 67.2385763,105.5 70,105.5 Z M55,105.5 C57.7614237,105.5 60,103.261424 60,100.5 C60,97.7385763 57.7614237,95.5 55,95.5 C52.2385763,95.5 50,97.7385763 50,100.5 C50,103.261424 52.2385763,105.5 55,105.5 Z" id="Combined-Shape"></path>
            </g>
        </g>
        <g id="chit-number" transform="translate(600.500000, 750.500000)" fill="#000000">
            <g id="chit">
                <path d="M62.5,125 C27.9822031,125 0,97.0177969 0,62.5 C0,27.9822031 27.9822031,0 62.5,0 C97.0177969,0 125,27.9822031 125,62.5 C125,97.0177969 97.0177969,125 62.5,125 Z M54.1757812,68.5546875 C54.1757812,65.664048 54.911451,63.4700596 56.3828125,61.9726562 C57.854174,60.4752529 59.8398313,59.7265625 62.3398438,59.7265625 C64.8398562,59.7265625 66.8255135,60.4752529 68.296875,61.9726562 C69.7682365,63.4700596 70.5039062,65.664048 70.5039062,68.5546875 C70.5039062,71.3411598 69.7812572,73.5025965 68.3359375,75.0390625 C66.8906178,76.5755285 64.8919398,77.34375 62.3398438,77.34375 C59.7877477,77.34375 57.7890697,76.5755285 56.34375,75.0390625 C54.8984303,73.5025965 54.1757812,71.3411598 54.1757812,68.5546875 Z M42.6132812,69.296875 C42.6132812,74.0625238 44.2408691,78.1184729 47.4960938,81.4648438 C50.7513184,84.8112146 55.5429371,86.484375 61.8710938,86.484375 C68.1992504,86.484375 73.1275865,84.8112146 76.65625,81.4648438 C80.1849135,78.1184729 81.9492188,74.0625238 81.9492188,69.296875 C81.9492188,66.1197758 81.2461008,63.2422004 79.8398438,60.6640625 C78.4335867,58.0859246 76.3372535,56.0156328 73.5507812,54.453125 C76.2851699,52.8906172 78.0624959,51.0481877 78.8828125,48.9257812 C79.7031291,46.8033748 80.1132812,44.8177176 80.1132812,42.96875 C80.1132812,38.8541461 78.5638176,35.3450666 75.4648438,32.4414062 C72.3658699,29.5377459 67.9909137,28.0859375 62.3398438,28.0859375 C56.6887738,28.0859375 52.3138176,29.5377459 49.2148438,32.4414062 C46.1158699,35.3450666 44.5664062,38.8541461 44.5664062,42.96875 C44.5664062,44.8177176 44.9765584,46.8033748 45.796875,48.9257812 C46.6171916,51.0481877 48.3945176,53.0208242 51.1289062,54.84375 C48.342434,56.1458398 46.2265697,58.0859246 44.78125,60.6640625 C43.3359303,63.2422004 42.6132812,66.1197758 42.6132812,69.296875 Z M55.1914062,44.21875 C55.1914062,41.9791555 55.8229104,40.2278709 57.0859375,38.9648438 C58.3489646,37.7018166 60.1002492,37.0703125 62.3398438,37.0703125 C64.6054801,37.0703125 66.3567646,37.7018166 67.59375,38.9648438 C68.8307354,40.2278709 69.4492188,41.9791555 69.4492188,44.21875 C69.4492188,46.276052 68.8307354,47.9557227 67.59375,49.2578125 C66.3567646,50.5599023 64.6054801,51.2109375 62.3398438,51.2109375 C60.1002492,51.2109375 58.3489646,50.5599023 57.0859375,49.2578125 C55.8229104,47.9557227 55.1914062,46.276052 55.1914062,44.21875 Z M92.5,105.5 C95.2614237,105.5 97.5,103.261424 97.5,100.5 C97.5,97.7385763 95.2614237,95.5 92.5,95.5 C89.7385763,95.5 87.5,97.7385763 87.5,100.5 C87.5,103.261424 89.7385763,105.5 92.5,105.5 Z M77.5,105.5 C80.2614237,105.5 82.5,103.261424 82.5,100.5 C82.5,97.7385763 80.2614237,95.5 77.5,95.5 C74.7385763,95.5 72.5,97.7385763 72.5,100.5 C72.5,103.261424 74.7385763,105.5 77.5,105.5 Z M62.5,105.5 C65.2614237,105.5 67.5,103.261424 67.5,100.5 C67.5,97.7385763 65.2614237,95.5 62.5,95.5 C59.7385763,95.5 57.5,97.7385763 57.5,100.5 C57.5,103.261424 59.7385763,105.5 62.5,105.5 Z M47.5,105.5 C50.2614237,105.5 52.5,103.261424 52.5,100.5 C52.5,97.7385763 50.2614237,95.5 47.5,95.5 C44.7385763,95.5 42.5,97.7385763 42.5,100.5 C42.5,103.261424 44.7385763,105.5 47.5,105.5 Z M32.5,105.5 C35.2614237,105.5 37.5,103.261424 37.5,100.5 C37.5,97.7385763 35.2614237,95.5 32.5,95.5 C29.7385763,95.5 27.5,97.7385763 27.5,100.5 C27.5,103.261424 29.7385763,105.5 32.5,105.5 Z" id="Combined-Shape"></path>
            </g>
        </g>
        <g id="chit-number" transform="translate(600.500000, 450.500000)" fill="#000000">
            <g id="chit">
                <path d="M62.5,125 C27.9822031,125 0,97.0177969 0,62.5 C0,27.9822031 27.9822031,0 62.5,0 C97.0177969,0 125,27.9822031 125,62.5 C125,97.0177969 97.0177969,125 62.5,125 Z M54.1757812,68.5546875 C54.1757812,65.664048 54.911451,63.4700596 56.3828125,61.9726562 C57.854174,60.4752529 59.8398313,59.7265625 62.3398438,59.7265625 C64.8398562,59.7265625 66.8255135,60.4752529 68.296875,61.9726562 C69.7682365,63.4700596 70.5039062,65.664048 70.5039062,68.5546875 C70.5039062,71.3411598 69.7812572,73.5025965 68.3359375,75.0390625 C66.8906178,76.5755285 64.8919398,77.34375 62.3398438,77.34375 C59.7877477,77.34375 57.7890697,76.5755285 56.34375,75.0390625 C54.8984303,73.5025965 54.1757812,71.3411598 54.1757812,68.5546875 Z M42.6132812,69.296875 C42.6132812,74.0625238 44.2408691,78.1184729 47.4960938,81.4648438 C50.7513184,84.8112146 55.5429371,86.484375 61.8710938,86.484375 C68.1992504,86.484375 73.1275865,84.8112146 76.65625,81.4648438 C80.1849135,78.1184729 81.9492188,74.0625238 81.9492188,69.296875 C81.9492188,66.1197758 81.2461008,63.2422004 79.8398438,60.6640625 C78.4335867,58.0859246 76.3372535,56.0156328 73.5507812,54.453125 C76.2851699,52.8906172 78.0624959,51.0481877 78.8828125,48.9257812 C79.7031291,46.8033748 80.1132812,44.8177176 80.1132812,42.96875 C80.1132812,38.8541461 78.5638176,35.3450666 75.4648438,32.4414062 C72.3658699,29.5377459 67.9909137,28.0859375 62.3398438,28.0859375 C56.6887738,28.0859375 52.3138176,29.5377459 49.2148438,32.4414062 C46.1158699,35.3450666 44.5664062,38.8541461 44.5664062,42.96875 C44.5664062,44.8177176 44.9765584,46.8033748 45.796875,48.9257812 C46.6171916,51.0481877 48.3945176,53.0208242 51.1289062,54.84375 C48.342434,56.1458398 46.2265697,58.0859246 44.78125,60.6640625 C43.3359303,63.2422004 42.6132812,66.1197758 42.6132812,69.296875 Z M55.1914062,44.21875 C55.1914062,41.9791555 55.8229104,40.2278709 57.0859375,38.9648438 C58.3489646,37.7018166 60.1002492,37.0703125 62.3398438,37.0703125 C64.6054801,37.0703125 66.3567646,37.7018166 67.59375,38.9648438 C68.8307354,40.2278709 69.4492188,41.9791555 69.4492188,44.21875 C69.4492188,46.276052 68.8307354,47.9557227 67.59375,49.2578125 C66.3567646,50.5599023 64.6054801,51.2109375 62.3398438,51.2109375 C60.1002492,51.2109375 58.3489646,50.5599023 57.0859375,49.2578125 C55.8229104,47.9557227 55.1914062,46.276052 55.1914062,44.21875 Z M92.5,105.5 C95.2614237,105.5 97.5,103.261424 97.5,100.5 C97.5,97.7385763 95.2614237,95.5 92.5,95.5 C89.7385763,95.5 87.5,97.7385763 87.5,100.5 C87.5,103.261424 89.7385763,105.5 92.5,105.5 Z M77.5,105.5 C80.2614237,105.5 82.5,103.261424 82.5,100.5 C82.5,97.7385763 80.2614237,95.5 77.5,95.5 C74.7385763,95.5 72.5,97.7385763 72.5,100.5 C72.5,103.261424 74.7385763,105.5 77.5,105.5 Z M62.5,105.5 C65.2614237,105.5 67.5,103.261424 67.5,100.5 C67.5,97.7385763 65.2614237,95.5 62.5,95.5 C59.7385763,95.5 57.5,97.7385763 57.5,100.5 C57.5,103.261424 59.7385763,105.5 62.5,105.5 Z M47.5,105.5 C50.2614237,105.5 52.5,103.261424 52.5,100.5 C52.5,97.7385763 50.2614237,95.5 47.5,95.5 C44.7385763,95.5 42.5,97.7385763 42.5,100.5 C42.5,103.261424 44.7385763,105.5 47.5,105.5 Z M32.5,105.5 C35.2614237,105.5 37.5,103.261424 37.5,100.5 C37.5,97.7385763 35.2614237,95.5 32.5,95.5 C29.7385763,95.5 27.5,97.7385763 27.5,100.5 C27.5,103.261424 29.7385763,105.5 32.5,105.5 Z" id="Combined-Shape"></path>
            </g>
        </g>
        <g id="chit-number" transform="translate(600.500000, 600.500000)" fill="#000000">
            <g id="chit">
                <path d="M62.5,125 C27.9822031,125 0,97.0177969 0,62.5 C0,27.9822031 27.9822031,0 62.5,0 C97.0177969,0 125,27.9822031 125,62.5 C125,97.0177969 97.0177969,125 62.5,125 Z M54.1757812,68.5546875 C54.1757812,65.664048 54.911451,63.4700596 56.3828125,61.9726562 C57.854174,60.4752529 59.8398313,59.7265625 62.3398438,59.7265625 C64.8398562,59.7265625 66.8255135,60.4752529 68.296875,61.9726562 C69.7682365,63.4700596 70.5039062,65.664048 70.5039062,68.5546875 C70.5039062,71.3411598 69.7812572,73.5025965 68.3359375,75.0390625 C66.8906178,76.5755285 64.8919398,77.34375 62.3398438,77.34375 C59.7877477,77.34375 57.7890697,76.5755285 56.34375,75.0390625 C54.8984303,73.5025965 54.1757812,71.3411598 54.1757812,68.5546875 Z M42.6132812,69.296875 C42.6132812,74.0625238 44.2408691,78.1184729 47.4960938,81.4648438 C50.7513184,84.8112146 55.5429371,86.484375 61.8710938,86.484375 C68.1992504,86.484375 73.1275865,84.8112146 76.65625,81.4648438 C80.1849135,78.1184729 81.9492188,74.0625238 81.9492188,69.296875 C81.9492188,66.1197758 81.2461008,63.2422004 79.8398438,60.6640625 C78.4335867,58.0859246 76.3372535,56.0156328 73.5507812,54.453125 C76.2851699,52.8906172 78.0624959,51.0481877 78.8828125,48.9257812 C79.7031291,46.8033748 80.1132812,44.8177176 80.1132812,42.96875 C80.1132812,38.8541461 78.5638176,35.3450666 75.4648438,32.4414062 C72.3658699,29.5377459 67.9909137,28.0859375 62.3398438,28.0859375 C56.6887738,28.0859375 52.3138176,29.5377459 49.2148438,32.4414062 C46.1158699,35.3450666 44.5664062,38.8541461 44.5664062,42.96875 C44.5664062,44.8177176 44.9765584,46.8033748 45.796875,48.9257812 C46.6171916,51.0481877 48.3945176,53.0208242 51.1289062,54.84375 C48.342434,56.1458398 46.2265697,58.0859246 44.78125,60.6640625 C43.3359303,63.2422004 42.6132812,66.1197758 42.6132812,69.296875 Z M55.1914062,44.21875 C55.1914062,41.9791555 55.8229104,40.2278709 57.0859375,38.9648438 C58.3489646,37.7018166 60.1002492,37.0703125 62.3398438,37.0703125 C64.6054801,37.0703125 66.3567646,37.7018166 67.59375,38.9648438 C68.8307354,40.2278709 69.4492188,41.9791555 69.4492188,44.21875 C69.4492188,46.276052 68.8307354,47.9557227 67.59375,49.2578125 C66.3567646,50.5599023 64.6054801,51.2109375 62.3398438,51.2109375 C60.1002492,51.2109375 58.3489646,50.5599023 57.0859375,49.2578125 C55.8229104,47.9557227 55.1914062,46.276052 55.1914062,44.21875 Z M92.5,105.5 C95.2614237,105.5 97.5,103.261424 97.5,100.5 C97.5,97.7385763 95.2614237,95.5 92.5,95.5 C89.7385763,95.5 87.5,97.7385763 87.5,100.5 C87.5,103.261424 89.7385763,105.5 92.5,105.5 Z M77.5,105.5 C80.2614237,105.5 82.5,103.261424 82.5,100.5 C82.5,97.7385763 80.2614237,95.5 77.5,95.5 C74.7385763,95.5 72.5,97.7385763 72.5,100.5 C72.5,103.261424 74.7385763,105.5 77.5,105.5 Z M62.5,105.5 C65.2614237,105.5 67.5,103.261424 67.5,100.5 C67.5,97.7385763 65.2614237,95.5 62.5,95.5 C59.7385763,95.5 57.5,97.7385763 57.5,100.5 C57.5,103.261424 59.7385763,105.5 62.5,105.5 Z M47.5,105.5 C50.2614237,105.5 52.5,103.261424 52.5,100.5 C52.5,97.7385763 50.2614237,95.5 47.5,95.5 C44.7385763,95.5 42.5,97.7385763 42.5,100.5 C42.5,103.261424 44.7385763,105.5 47.5,105.5 Z M32.5,105.5 C35.2614237,105.5 37.5,103.261424 37.5,100.5 C37.5,97.7385763 35.2614237,95.5 32.5,95.5 C29.7385763,95.5 27.5,97.7385763 27.5,100.5 C27.5,103.261424 29.7385763,105.5 32.5,105.5 Z" id="Combined-Shape"></path>
            </g>
        </g>
        <g id="chit-number" transform="translate(450.500000, 450.500000)" fill="#000000">
            <g id="chit">
                <path d="M62.5,125 C27.9822031,125 0,97.0177969 0,62.5 C0,27.9822031 27.9822031,0 62.5,0 C97.0177969,0 125,27.9822031 125,62.5 C125,97.0177969 97.0177969,125 62.5,125 Z M42.8867188,48.28125 C42.8867188,54.1406543 44.631493,58.6262865 48.1210938,61.7382812 C51.6106945,64.850276 55.6080504,66.40625 60.1132812,66.40625 C63.1601715,66.40625 65.72525,65.7812562 67.8085938,64.53125 C68.9544328,63.8541633 70.0351512,62.8776105 71.0507812,61.6015625 C70.8424469,65.898459 70.3346395,69.1666555 69.5273438,71.40625 C68.0429613,75.4687703 65.4648621,77.5 61.7929688,77.5 C59.8919176,77.5 58.3684953,76.9791719 57.2226562,75.9375 C56.0768172,74.8958281 55.3736992,73.541675 55.1132812,71.875 L44.0195312,71.875 C44.5143254,76.6927324 46.4544102,80.3580604 49.8398438,82.8710938 C53.2252773,85.3841271 57.0403434,86.640625 61.2851562,86.640625 C70.1914508,86.640625 76.3111813,82.2786895 79.6445312,73.5546875 C81.3893316,68.9713312 82.2617188,63.2552426 82.2617188,56.40625 C82.2617188,49.348923 81.3502695,43.6588758 79.5273438,39.3359375 C76.3242027,31.705691 70.4128035,27.890625 61.7929688,27.890625 C56.1939824,27.890625 51.6432467,29.7721166 48.140625,33.5351562 C44.6380033,37.2981959 42.8867188,42.2135113 42.8867188,48.28125 Z M62.5351562,57.34375 C59.6966004,57.34375 57.5937568,56.5039146 56.2265625,54.8242188 C54.8593682,53.1445229 54.1757812,50.6250168 54.1757812,47.265625 C54.1757812,43.2812301 55.2434789,40.4557375 57.3789062,38.7890625 C58.7330797,37.7213488 60.3606676,37.1875 62.2617188,37.1875 C64.8658984,37.1875 66.9166592,38.1249906 68.4140625,40 C69.9114658,41.8750094 70.6601562,44.4140465 70.6601562,47.6171875 C70.6601562,51.6015824 69.397148,54.4010336 66.8710938,56.015625 C65.5169203,56.9010461 64.0716223,57.34375 62.5351562,57.34375 Z M85,105.5 C87.7614237,105.5 90,103.261424 90,100.5 C90,97.7385763 87.7614237,95.5 85,95.5 C82.2385763,95.5 80,97.7385763 80,100.5 C80,103.261424 82.2385763,105.5 85,105.5 Z M70,105.5 C72.7614237,105.5 75,103.261424 75,100.5 C75,97.7385763 72.7614237,95.5 70,95.5 C67.2385763,95.5 65,97.7385763 65,100.5 C65,103.261424 67.2385763,105.5 70,105.5 Z M55,105.5 C57.7614237,105.5 60,103.261424 60,100.5 C60,97.7385763 57.7614237,95.5 55,95.5 C52.2385763,95.5 50,97.7385763 50,100.5 C50,103.261424 52.2385763,105.5 55,105.5 Z M40,105.5 C42.7614237,105.5 45,103.261424 45,100.5 C45,97.7385763 42.7614237,95.5 40,95.5 C37.2385763,95.5 35,97.7385763 35,100.5 C35,103.261424 37.2385763,105.5 40,105.5 Z" id="Combined-Shape"></path>
            </g>
        </g>
        <g id="chit-number" transform="translate(450.500000, 600.500000)" fill="#000000">
            <g id="chit">
                <path d="M62.5,125 C27.9822031,125 0,97.0177969 0,62.5 C0,27.9822031 27.9822031,0 62.5,0 C97.0177969,0 125,27.9822031 125,62.5 C125,97.0177969 97.0177969,125 62.5,125 Z M42.8867188,48.28125 C42.8867188,54.1406543 44.631493,58.6262865 48.1210938,61.7382812 C51.6106945,64.850276 55.6080504,66.40625 60.1132812,66.40625 C63.1601715,66.40625 65.72525,65.7812562 67.8085938,64.53125 C68.9544328,63.8541633 70.0351512,62.8776105 71.0507812,61.6015625 C70.8424469,65.898459 70.3346395,69.1666555 69.5273438,71.40625 C68.0429613,75.4687703 65.4648621,77.5 61.7929688,77.5 C59.8919176,77.5 58.3684953,76.9791719 57.2226562,75.9375 C56.0768172,74.8958281 55.3736992,73.541675 55.1132812,71.875 L44.0195312,71.875 C44.5143254,76.6927324 46.4544102,80.3580604 49.8398438,82.8710938 C53.2252773,85.3841271 57.0403434,86.640625 61.2851562,86.640625 C70.1914508,86.640625 76.3111813,82.2786895 79.6445312,73.5546875 C81.3893316,68.9713312 82.2617188,63.2552426 82.2617188,56.40625 C82.2617188,49.348923 81.3502695,43.6588758 79.5273438,39.3359375 C76.3242027,31.705691 70.4128035,27.890625 61.7929688,27.890625 C56.1939824,27.890625 51.6432467,29.7721166 48.140625,33.5351562 C44.6380033,37.2981959 42.8867188,42.2135113 42.8867188,48.28125 Z M62.5351562,57.34375 C59.6966004,57.34375 57.5937568,56.5039146 56.2265625,54.8242188 C54.8593682,53.1445229 54.1757812,50.6250168 54.1757812,47.265625 C54.1757812,43.2812301 55.2434789,40.4557375 57.3789062,38.7890625 C58.7330797,37.7213488 60.3606676,37.1875 62.2617188,37.1875 C64.8658984,37.1875 66.9166592,38.1249906 68.4140625,40 C69.9114658,41.8750094 70.6601562,44.4140465 70.6601562,47.6171875 C70.6601562,51.6015824 69.397148,54.4010336 66.8710938,56.015625 C65.5169203,56.9010461 64.0716223,57.34375 62.5351562,57.34375 Z M85,105.5 C87.7614237,105.5 90,103.261424 90,100.5 C90,97.7385763 87.7614237,95.5 85,95.5 C82.2385763,95.5 80,97.7385763 80,100.5 C80,103.261424 82.2385763,105.5 85,105.5 Z M70,105.5 C72.7614237,105.5 75,103.261424 75,100.5 C75,97.7385763 72.7614237,95.5 70,95.5 C67.2385763,95.5 65,97.7385763 65,100.5 C65,103.261424 67.2385763,105.5 70,105.5 Z M55,105.5 C57.7614237,105.5 60,103.261424 60,100.5 C60,97.7385763 57.7614237,95.5 55,95.5 C52.2385763,95.5 50,97.7385763 50,100.5 C50,103.261424 52.2385763,105.5 55,105.5 Z M40,105.5 C42.7614237,105.5 45,103.261424 45,100.5 C45,97.7385763 42.7614237,95.5 40,95.5 C37.2385763,95.5 35,97.7385763 35,100.5 C35,103.261424 37.2385763,105.5 40,105.5 Z" id="Combined-Shape"></path>
            </g>
        </g>
        <g id="chit-number" transform="translate(300.500000, 450.500000)" fill="#000000">
            <g id="chit">
                <path d="M62.5,125 C27.9822031,125 0,97.0177969 0,62.5 C0,27.9822031 27.9822031,0 62.5,0 C97.0177969,0 125,27.9822031 125,62.5 C125,97.0177969 97.0177969,125 62.5,125 Z M23.8046875,45.9375 L37.125,45.9375 L37.125,85 L48.53125,85 L48.53125,28.359375 L39.2734375,28.359375 C39.2734375,28.8541691 39.1302098,29.6093699 38.84375,30.625 C38.3489559,32.3177168 37.6197965,33.6718699 36.65625,34.6875 C35.249993,36.1718824 33.4270945,37.1614559 31.1875,37.65625 C29.781243,37.9687516 27.3203301,38.2031242 23.8046875,38.359375 L23.8046875,45.9375 Z M76.6171875,57.2265625 C76.6171875,50.4036117 77.1510363,45.3515789 78.21875,42.0703125 C79.2864637,38.7890461 81.4739418,37.1484375 84.78125,37.1484375 C88.0885582,37.1484375 90.2565053,38.7890461 91.2851562,42.0703125 C92.3138072,45.3515789 92.828125,50.4036117 92.828125,57.2265625 C92.828125,63.7370117 92.3138072,68.7174307 91.2851562,72.1679688 C90.2565053,75.6185068 88.0885582,77.34375 84.78125,77.34375 C81.4739418,77.34375 79.2864637,75.6185068 78.21875,72.1679688 C77.1510363,68.7174307 76.6171875,63.7370117 76.6171875,57.2265625 Z M84.78125,27.96875 C77.5676723,27.96875 72.5091291,30.5077871 69.6054688,35.5859375 C66.7018084,40.6640879 65.25,47.8775574 65.25,57.2265625 C65.25,66.5755676 66.7018084,73.7760164 69.6054688,78.828125 C72.5091291,83.8802336 77.5676723,86.40625 84.78125,86.40625 C91.9948277,86.40625 97.0533709,83.8802336 99.9570312,78.828125 C102.860692,73.7760164 104.3125,66.5755676 104.3125,57.2265625 C104.3125,47.8775574 102.860692,40.6640879 99.9570312,35.5859375 C97.0533709,30.5077871 91.9948277,27.96875 84.78125,27.96875 Z M77.5,105.5 C80.2614237,105.5 82.5,103.261424 82.5,100.5 C82.5,97.7385763 80.2614237,95.5 77.5,95.5 C74.7385763,95.5 72.5,97.7385763 72.5,100.5 C72.5,103.261424 74.7385763,105.5 77.5,105.5 Z M62.5,105.5 C65.2614237,105.5 67.5,103.261424 67.5,100.5 C67.5,97.7385763 65.2614237,95.5 62.5,95.5 C59.7385763,95.5 57.5,97.7385763 57.5,100.5 C57.5,103.261424 59.7385763,105.5 62.5,105.5 Z M47.5,105.5 C50.2614237,105.5 52.5,103.261424 52.5,100.5 C52.5,97.7385763 50.2614237,95.5 47.5,95.5 C44.7385763,95.5 42.5,97.7385763 42.5,100.5 C42.5,103.261424 44.7385763,105.5 47.5,105.5 Z" id="Combined-Shape"></path>
            </g>
        </g>
        <g id="chit-number" transform="translate(300.500000, 600.500000)" fill="#000000">
            <g id="chit">
                <path d="M62.5,125 C27.9822031,125 0,97.0177969 0,62.5 C0,27.9822031 27.9822031,0 62.5,0 C97.0177969,0 125,27.9822031 125,62.5 C125,97.0177969 97.0177969,125 62.5,125 Z M23.8046875,45.9375 L37.125,45.9375 L37.125,85 L48.53125,85 L48.53125,28.359375 L39.2734375,28.359375 C39.2734375,28.8541691 39.1302098,29.6093699 38.84375,30.625 C38.3489559,32.3177168 37.6197965,33.6718699 36.65625,34.6875 C35.249993,36.1718824 33.4270945,37.1614559 31.1875,37.65625 C29.781243,37.9687516 27.3203301,38.2031242 23.8046875,38.359375 L23.8046875,45.9375 Z M76.6171875,57.2265625 C76.6171875,50.4036117 77.1510363,45.3515789 78.21875,42.0703125 C79.2864637,38.7890461 81.4739418,37.1484375 84.78125,37.1484375 C88.0885582,37.1484375 90.2565053,38.7890461 91.2851562,42.0703125 C92.3138072,45.3515789 92.828125,50.4036117 92.828125,57.2265625 C92.828125,63.7370117 92.3138072,68.7174307 91.2851562,72.1679688 C90.2565053,75.6185068 88.0885582,77.34375 84.78125,77.34375 C81.4739418,77.34375 79.2864637,75.6185068 78.21875,72.1679688 C77.1510363,68.7174307 76.6171875,63.7370117 76.6171875,57.2265625 Z M84.78125,27.96875 C77.5676723,27.96875 72.5091291,30.5077871 69.6054688,35.5859375 C66.7018084,40.6640879 65.25,47.8775574 65.25,57.2265625 C65.25,66.5755676 66.7018084,73.7760164 69.6054688,78.828125 C72.5091291,83.8802336 77.5676723,86.40625 84.78125,86.40625 C91.9948277,86.40625 97.0533709,83.8802336 99.9570312,78.828125 C102.860692,73.7760164 104.3125,66.5755676 104.3125,57.2265625 C104.3125,47.8775574 102.860692,40.6640879 99.9570312,35.5859375 C97.0533709,30.5077871 91.9948277,27.96875 84.78125,27.96875 Z M77.5,105.5 C80.2614237,105.5 82.5,103.261424 82.5,100.5 C82.5,97.7385763 80.2614237,95.5 77.5,95.5 C74.7385763,95.5 72.5,97.7385763 72.5,100.5 C72.5,103.261424 74.7385763,105.5 77.5,105.5 Z M62.5,105.5 C65.2614237,105.5 67.5,103.261424 67.5,100.5 C67.5,97.7385763 65.2614237,95.5 62.5,95.5 C59.7385763,95.5 57.5,97.7385763 57.5,100.5 C57.5,103.261424 59.7385763,105.5 62.5,105.5 Z M47.5,105.5 C50.2614237,105.5 52.5,103.261424 52.5,100.5 C52.5,97.7385763 50.2614237,95.5 47.5,95.5 C44.7385763,95.5 42.5,97.7385763 42.5,100.5 C42.5,103.261424 44.7385763,105.5 47.5,105.5 Z" id="Combined-Shape"></path>
            </g>
        </g>
        <g id="chit-number" transform="translate(150.500000, 450.500000)" fill="#000000">
            <g id="chit">
                <path d="M62.5,125 C27.9822031,125 0,97.0177969 0,62.5 C0,27.9822031 27.9822031,0 62.5,0 C97.0177969,0 125,27.9822031 125,62.5 C125,97.0177969 97.0177969,125 62.5,125 Z M25.9921875,45.9375 L39.3125,45.9375 L39.3125,85 L50.71875,85 L50.71875,28.359375 L41.4609375,28.359375 C41.4609375,28.8541691 41.3177098,29.6093699 41.03125,30.625 C40.5364559,32.3177168 39.8072965,33.6718699 38.84375,34.6875 C37.437493,36.1718824 35.6145945,37.1614559 33.375,37.65625 C31.968743,37.9687516 29.5078301,38.2031242 25.9921875,38.359375 L25.9921875,45.9375 Z M66.109375,45.9375 L79.4296875,45.9375 L79.4296875,85 L90.8359375,85 L90.8359375,28.359375 L81.578125,28.359375 C81.578125,28.8541691 81.4348973,29.6093699 81.1484375,30.625 C80.6536434,32.3177168 79.924484,33.6718699 78.9609375,34.6875 C77.5546805,36.1718824 75.731782,37.1614559 73.4921875,37.65625 C72.0859305,37.9687516 69.6250176,38.2031242 66.109375,38.359375 L66.109375,45.9375 Z M70,105.5 C72.7614237,105.5 75,103.261424 75,100.5 C75,97.7385763 72.7614237,95.5 70,95.5 C67.2385763,95.5 65,97.7385763 65,100.5 C65,103.261424 67.2385763,105.5 70,105.5 Z M55,105.5 C57.7614237,105.5 60,103.261424 60,100.5 C60,97.7385763 57.7614237,95.5 55,95.5 C52.2385763,95.5 50,97.7385763 50,100.5 C50,103.261424 52.2385763,105.5 55,105.5 Z" id="Combined-Shape"></path>
            </g>
        </g>
        <g id="chit-number" transform="translate(150.500000, 600.500000)" fill="#000000">
            <g id="chit">
                <path d="M62.5,125 C27.9822031,125 0,97.0177969 0,62.5 C0,27.9822031 27.9822031,0 62.5,0 C97.0177969,0 125,27.9822031 125,62.5 C125,97.0177969 97.0177969,125 62.5,125 Z M25.9921875,45.9375 L39.3125,45.9375 L39.3125,85 L50.71875,85 L50.71875,28.359375 L41.4609375,28.359375 C41.4609375,28.8541691 41.3177098,29.6093699 41.03125,30.625 C40.5364559,32.3177168 39.8072965,33.6718699 38.84375,34.6875 C37.437493,36.1718824 35.6145945,37.1614559 33.375,37.65625 C31.968743,37.9687516 29.5078301,38.2031242 25.9921875,38.359375 L25.9921875,45.9375 Z M66.109375,45.9375 L79.4296875,45.9375 L79.4296875,85 L90.8359375,85 L90.8359375,28.359375 L81.578125,28.359375 C81.578125,28.8541691 81.4348973,29.6093699 81.1484375,30.625 C80.6536434,32.3177168 79.924484,33.6718699 78.9609375,34.6875 C77.5546805,36.1718824 75.731782,37.1614559 73.4921875,37.65625 C72.0859305,37.9687516 69.6250176,38.2031242 66.109375,38.359375 L66.109375,45.9375 Z M70,105.5 C72.7614237,105.5 75,103.261424 75,100.5 C75,97.7385763 72.7614237,95.5 70,95.5 C67.2385763,95.5 65,97.7385763 65,100.5 C65,103.261424 67.2385763,105.5 70,105.5 Z M55,105.5 C57.7614237,105.5 60,103.261424 60,100.5 C60,97.7385763 57.7614237,95.5 55,95.5 C52.2385763,95.5 50,97.7385763 50,100.5 C50,103.261424 52.2385763,105.5 55,105.5 Z" id="Combined-Shape"></path>
            </g>
        </g>
        <g id="chit-number" transform="translate(0.500000, 450.500000)" fill="#000000">
            <g id="chit">
                <path d="M62.5,125 C27.9822031,125 0,97.0177969 0,62.5 C0,27.9822031 27.9822031,0 62.5,0 C97.0177969,0 125,27.9822031 125,62.5 C125,97.0177969 97.0177969,125 62.5,125 Z M23.8046875,45.9375 L37.125,45.9375 L37.125,85 L48.53125,85 L48.53125,28.359375 L39.2734375,28.359375 C39.2734375,28.8541691 39.1302098,29.6093699 38.84375,30.625 C38.3489559,32.3177168 37.6197965,33.6718699 36.65625,34.6875 C35.249993,36.1718824 33.4270945,37.1614559 31.1875,37.65625 C29.781243,37.9687516 27.3203301,38.2031242 23.8046875,38.359375 L23.8046875,45.9375 Z M65.25,85 L104.039062,85 L104.039062,75.1953125 L79.3125,75.1953125 C80.0156285,74.0234316 80.8815053,72.9947961 81.9101562,72.109375 C82.9388072,71.2239539 84.8463402,69.7916766 87.6328125,67.8125 L92.0859375,64.6484375 C95.8359563,61.9921742 98.5312418,59.5833441 100.171875,57.421875 C102.671887,54.1666504 103.921875,50.4427293 103.921875,46.25 C103.921875,40.7812227 102.151059,36.3867354 98.609375,33.0664062 C95.0676906,29.7460771 90.3021133,28.0859375 84.3125,28.0859375 C76.7343371,28.0859375 71.4609523,30.9114301 68.4921875,36.5625 C66.9296797,39.5312648 66.0572926,43.4244551 65.875,48.2421875 L76.6953125,48.2421875 C76.8255215,45.0650883 77.242184,42.7474031 77.9453125,41.2890625 C79.169277,38.7630082 81.4739414,37.5 84.859375,37.5 C87.3333457,37.5 89.2343684,38.2942629 90.5625,39.8828125 C91.8906316,41.4713621 92.5546875,43.4635297 92.5546875,45.859375 C92.5546875,48.802098 91.3958449,51.5104043 89.078125,53.984375 C87.5677008,55.5729246 84.2474215,58.2031066 79.1171875,61.875 C73.2056996,66.0937711 69.4557371,70.091127 67.8671875,73.8671875 C66.2265543,77.2265793 65.3541672,80.9374797 65.25,85 Z M62.5,105.5 C65.2614237,105.5 67.5,103.261424 67.5,100.5 C67.5,97.7385763 65.2614237,95.5 62.5,95.5 C59.7385763,95.5 57.5,97.7385763 57.5,100.5 C57.5,103.261424 59.7385763,105.5 62.5,105.5 Z" id="Combined-Shape"></path>
            </g>
        </g>
        <g id="chit-number" transform="translate(0.500000, 600.500000)" fill="#000000">
            <g id="chit">
                <path d="M62.5,125 C27.9822031,125 0,97.0177969 0,62.5 C0,27.9822031 27.9822031,0 62.5,0 C97.0177969,0 125,27.9822031 125,62.5 C125,97.0177969 97.0177969,125 62.5,125 Z M23.8046875,45.9375 L37.125,45.9375 L37.125,85 L48.53125,85 L48.53125,28.359375 L39.2734375,28.359375 C39.2734375,28.8541691 39.1302098,29.6093699 38.84375,30.625 C38.3489559,32.3177168 37.6197965,33.6718699 36.65625,34.6875 C35.249993,36.1718824 33.4270945,37.1614559 31.1875,37.65625 C29.781243,37.9687516 27.3203301,38.2031242 23.8046875,38.359375 L23.8046875,45.9375 Z M65.25,85 L104.039062,85 L104.039062,75.1953125 L79.3125,75.1953125 C80.0156285,74.0234316 80.8815053,72.9947961 81.9101562,72.109375 C82.9388072,71.2239539 84.8463402,69.7916766 87.6328125,67.8125 L92.0859375,64.6484375 C95.8359563,61.9921742 98.5312418,59.5833441 100.171875,57.421875 C102.671887,54.1666504 103.921875,50.4427293 103.921875,46.25 C103.921875,40.7812227 102.151059,36.3867354 98.609375,33.0664062 C95.0676906,29.7460771 90.3021133,28.0859375 84.3125,28.0859375 C76.7343371,28.0859375 71.4609523,30.9114301 68.4921875,36.5625 C66.9296797,39.5312648 66.0572926,43.4244551 65.875,48.2421875 L76.6953125,48.2421875 C76.8255215,45.0650883 77.242184,42.7474031 77.9453125,41.2890625 C79.169277,38.7630082 81.4739414,37.5 84.859375,37.5 C87.3333457,37.5 89.2343684,38.2942629 90.5625,39.8828125 C91.8906316,41.4713621 92.5546875,43.4635297 92.5546875,45.859375 C92.5546875,48.802098 91.3958449,51.5104043 89.078125,53.984375 C87.5677008,55.5729246 84.2474215,58.2031066 79.1171875,61.875 C73.2056996,66.0937711 69.4557371,70.091127 67.8671875,73.8671875 C66.2265543,77.2265793 65.3541672,80.9374797 65.25,85 Z M62.5,105.5 C65.2614237,105.5 67.5,103.261424 67.5,100.5 C67.5,97.7385763 65.2614237,95.5 62.5,95.5 C59.7385763,95.5 57.5,97.7385763 57.5,100.5 C57.5,103.261424 59.7385763,105.5 62.5,105.5 Z" id="Combined-Shape"></path>
            </g>
        </g>
        <g id="chit-number" transform="translate(600.500000, 150.500000)" fill="#000000">
            <g id="chit">
                <path d="M62.5,125 C27.9822031,125 0,97.0177969 0,62.5 C0,27.9822031 27.9822031,0 62.5,0 C97.0177969,0 125,27.9822031 125,62.5 C125,97.0177969 97.0177969,125 62.5,125 Z M43.0039062,85 L81.7929688,85 L81.7929688,75.1953125 L57.0664062,75.1953125 C57.7695348,74.0234316 58.6354115,72.9947961 59.6640625,72.109375 C60.6927135,71.2239539 62.6002465,69.7916766 65.3867188,67.8125 L69.8398438,64.6484375 C73.5898625,61.9921742 76.285148,59.5833441 77.9257812,57.421875 C80.4257937,54.1666504 81.6757812,50.4427293 81.6757812,46.25 C81.6757812,40.7812227 79.9049656,36.3867354 76.3632812,33.0664062 C72.8215969,29.7460771 68.0560195,28.0859375 62.0664062,28.0859375 C54.4882434,28.0859375 49.2148586,30.9114301 46.2460938,36.5625 C44.6835859,39.5312648 43.8111988,43.4244551 43.6289062,48.2421875 L54.4492188,48.2421875 C54.5794277,45.0650883 54.9960902,42.7474031 55.6992188,41.2890625 C56.9231832,38.7630082 59.2278477,37.5 62.6132812,37.5 C65.087252,37.5 66.9882746,38.2942629 68.3164062,39.8828125 C69.6445379,41.4713621 70.3085938,43.4635297 70.3085938,45.859375 C70.3085938,48.802098 69.1497512,51.5104043 66.8320312,53.984375 C65.321607,55.5729246 62.0013277,58.2031066 56.8710938,61.875 C50.9596059,66.0937711 47.2096434,70.091127 45.6210938,73.8671875 C43.9804605,77.2265793 43.1080734,80.9374797 43.0039062,85 Z M62.5,105.5 C65.2614237,105.5 67.5,103.261424 67.5,100.5 C67.5,97.7385763 65.2614237,95.5 62.5,95.5 C59.7385763,95.5 57.5,97.7385763 57.5,100.5 C57.5,103.261424 59.7385763,105.5 62.5,105.5 Z" id="Combined-Shape"></path>
            </g>
        </g>
        <g id="chit-number" transform="translate(600.500000, 300.500000)" fill="#000000">
            <g id="chit">
                <path d="M62.5,125 C27.9822031,125 0,97.0177969 0,62.5 C0,27.9822031 27.9822031,0 62.5,0 C97.0177969,0 125,27.9822031 125,62.5 C125,97.0177969 97.0177969,125 62.5,125 Z M43.0039062,85 L81.7929688,85 L81.7929688,75.1953125 L57.0664062,75.1953125 C57.7695348,74.0234316 58.6354115,72.9947961 59.6640625,72.109375 C60.6927135,71.2239539 62.6002465,69.7916766 65.3867188,67.8125 L69.8398438,64.6484375 C73.5898625,61.9921742 76.285148,59.5833441 77.9257812,57.421875 C80.4257937,54.1666504 81.6757812,50.4427293 81.6757812,46.25 C81.6757812,40.7812227 79.9049656,36.3867354 76.3632812,33.0664062 C72.8215969,29.7460771 68.0560195,28.0859375 62.0664062,28.0859375 C54.4882434,28.0859375 49.2148586,30.9114301 46.2460938,36.5625 C44.6835859,39.5312648 43.8111988,43.4244551 43.6289062,48.2421875 L54.4492188,48.2421875 C54.5794277,45.0650883 54.9960902,42.7474031 55.6992188,41.2890625 C56.9231832,38.7630082 59.2278477,37.5 62.6132812,37.5 C65.087252,37.5 66.9882746,38.2942629 68.3164062,39.8828125 C69.6445379,41.4713621 70.3085938,43.4635297 70.3085938,45.859375 C70.3085938,48.802098 69.1497512,51.5104043 66.8320312,53.984375 C65.321607,55.5729246 62.0013277,58.2031066 56.8710938,61.875 C50.9596059,66.0937711 47.2096434,70.091127 45.6210938,73.8671875 C43.9804605,77.2265793 43.1080734,80.9374797 43.0039062,85 Z M62.5,105.5 C65.2614237,105.5 67.5,103.261424 67.5,100.5 C67.5,97.7385763 65.2614237,95.5 62.5,95.5 C59.7385763,95.5 57.5,97.7385763 57.5,100.5 C57.5,103.261424 59.7385763,105.5 62.5,105.5 Z" id="Combined-Shape"></path>
            </g>
        </g>
        <g id="chit-number" transform="translate(450.500000, 150.500000)" fill="#000000">
            <g id="chit">
                <path d="M62.5,125 C27.9822031,125 0,97.0177969 0,62.5 C0,27.9822031 27.9822031,0 62.5,0 C97.0177969,0 125,27.9822031 125,62.5 C125,97.0177969 97.0177969,125 62.5,125 Z M53.5507812,67.6171875 L42.6132812,67.6171875 C42.7955738,72.1224184 43.707023,75.7682152 45.3476562,78.5546875 C48.4726719,83.7890887 54.0455328,86.40625 62.0664062,86.40625 C68.5768555,86.40625 73.4921709,84.5898619 76.8125,80.9570312 C80.1328291,77.3242006 81.7929688,73.1120031 81.7929688,68.3203125 C81.7929688,63.762998 80.3737121,60.169284 77.5351562,57.5390625 C75.6341051,55.7942621 74.1757863,54.921875 73.1601562,54.921875 C74.5143297,54.4010391 75.8164,53.4244863 77.0664062,51.9921875 C79.0455828,49.7005094 80.0351562,46.8880375 80.0351562,43.5546875 C80.0351562,38.8411223 78.3750166,35.0846494 75.0546875,32.2851562 C71.7343584,29.4856631 67.3659125,28.0859375 61.9492188,28.0859375 C59.0325375,28.0859375 56.5716246,28.4374965 54.5664062,29.140625 C52.5611879,29.8437535 50.8294344,30.8593684 49.3710938,32.1875 C47.417959,34.0625094 45.9856816,36.1067598 45.0742188,38.3203125 C44.2148395,40.8463668 43.7330734,43.5156109 43.6289062,46.328125 L54.0195312,46.328125 C53.9674477,43.5416527 54.5598896,41.3151125 55.796875,39.6484375 C57.0338604,37.9817625 58.9674348,37.1484375 61.5976562,37.1484375 C63.8893344,37.1484375 65.6666604,37.8255141 66.9296875,39.1796875 C68.1927146,40.5338609 68.8242188,42.2916559 68.8242188,44.453125 C68.8242188,47.786475 67.587252,49.9999945 65.1132812,51.09375 C63.6809824,51.7447949 61.154966,52.0963539 57.5351562,52.1484375 L57.5351562,60.1171875 C61.2330914,60.1171875 63.9413977,60.4687465 65.6601562,61.171875 C68.6810047,62.4218812 70.1914062,64.9088355 70.1914062,68.6328125 C70.1914062,71.4453266 69.3776123,73.6002529 67.75,75.0976562 C66.1223877,76.5950596 64.2148547,77.34375 62.0273438,77.34375 C58.4596176,77.34375 55.9987047,75.9765762 54.6445312,73.2421875 C53.9153609,71.7578051 53.5507812,69.8828238 53.5507812,67.6171875 Z M70,105.5 C72.7614237,105.5 75,103.261424 75,100.5 C75,97.7385763 72.7614237,95.5 70,95.5 C67.2385763,95.5 65,97.7385763 65,100.5 C65,103.261424 67.2385763,105.5 70,105.5 Z M55,105.5 C57.7614237,105.5 60,103.261424 60,100.5 C60,97.7385763 57.7614237,95.5 55,95.5 C52.2385763,95.5 50,97.7385763 50,100.5 C50,103.261424 52.2385763,105.5 55,105.5 Z" id="Combined-Shape"></path>
            </g>
        </g>
        <g id="chit-number" transform="translate(450.500000, 300.500000)" fill="#000000">
            <g id="chit">
                <path d="M62.5,125 C27.9822031,125 0,97.0177969 0,62.5 C0,27.9822031 27.9822031,0 62.5,0 C97.0177969,0 125,27.9822031 125,62.5 C125,97.0177969 97.0177969,125 62.5,125 Z M53.5507812,67.6171875 L42.6132812,67.6171875 C42.7955738,72.1224184 43.707023,75.7682152 45.3476562,78.5546875 C48.4726719,83.7890887 54.0455328,86.40625 62.0664062,86.40625 C68.5768555,86.40625 73.4921709,84.5898619 76.8125,80.9570312 C80.1328291,77.3242006 81.7929688,73.1120031 81.7929688,68.3203125 C81.7929688,63.762998 80.3737121,60.169284 77.5351562,57.5390625 C75.6341051,55.7942621 74.1757863,54.921875 73.1601562,54.921875 C74.5143297,54.4010391 75.8164,53.4244863 77.0664062,51.9921875 C79.0455828,49.7005094 80.0351562,46.8880375 80.0351562,43.5546875 C80.0351562,38.8411223 78.3750166,35.0846494 75.0546875,32.2851562 C71.7343584,29.4856631 67.3659125,28.0859375 61.9492188,28.0859375 C59.0325375,28.0859375 56.5716246,28.4374965 54.5664062,29.140625 C52.5611879,29.8437535 50.8294344,30.8593684 49.3710938,32.1875 C47.417959,34.0625094 45.9856816,36.1067598 45.0742188,38.3203125 C44.2148395,40.8463668 43.7330734,43.5156109 43.6289062,46.328125 L54.0195312,46.328125 C53.9674477,43.5416527 54.5598896,41.3151125 55.796875,39.6484375 C57.0338604,37.9817625 58.9674348,37.1484375 61.5976562,37.1484375 C63.8893344,37.1484375 65.6666604,37.8255141 66.9296875,39.1796875 C68.1927146,40.5338609 68.8242188,42.2916559 68.8242188,44.453125 C68.8242188,47.786475 67.587252,49.9999945 65.1132812,51.09375 C63.6809824,51.7447949 61.154966,52.0963539 57.5351562,52.1484375 L57.5351562,60.1171875 C61.2330914,60.1171875 63.9413977,60.4687465 65.6601562,61.171875 C68.6810047,62.4218812 70.1914062,64.9088355 70.1914062,68.6328125 C70.1914062,71.4453266 69.3776123,73.6002529 67.75,75.0976562 C66.1223877,76.5950596 64.2148547,77.34375 62.0273438,77.34375 C58.4596176,77.34375 55.9987047,75.9765762 54.6445312,73.2421875 C53.9153609,71.7578051 53.5507812,69.8828238 53.5507812,67.6171875 Z M70,105.5 C72.7614237,105.5 75,103.261424 75,100.5 C75,97.7385763 72.7614237,95.5 70,95.5 C67.2385763,95.5 65,97.7385763 65,100.5 C65,103.261424 67.2385763,105.5 70,105.5 Z M55,105.5 C57.7614237,105.5 60,103.261424 60,100.5 C60,97.7385763 57.7614237,95.5 55,95.5 C52.2385763,95.5 50,97.7385763 50,100.5 C50,103.261424 52.2385763,105.5 55,105.5 Z" id="Combined-Shape"></path>
            </g>
        </g>
        <g id="chit-number" transform="translate(300.500000, 150.500000)" fill="#000000">
            <g id="chit">
                <path d="M62.5,125 C27.9822031,125 0,97.0177969 0,62.5 C0,27.9822031 27.9822031,0 62.5,0 C97.0177969,0 125,27.9822031 125,62.5 C125,97.0177969 97.0177969,125 62.5,125 Z M82.3398438,72.8125 L82.3398438,64.1015625 L75.9335938,64.1015625 L75.9335938,28.7109375 L63.4335938,28.7109375 L42.6132812,63.0859375 L42.6132812,72.8125 L65.0351562,72.8125 L65.0351562,85 L75.9335938,85 L75.9335938,72.8125 L82.3398438,72.8125 Z M65.0351562,64.1015625 L50.8554688,64.1015625 L65.0351562,39.6484375 L65.0351562,64.1015625 Z M77.5,105.5 C80.2614237,105.5 82.5,103.261424 82.5,100.5 C82.5,97.7385763 80.2614237,95.5 77.5,95.5 C74.7385763,95.5 72.5,97.7385763 72.5,100.5 C72.5,103.261424 74.7385763,105.5 77.5,105.5 Z M62.5,105.5 C65.2614237,105.5 67.5,103.261424 67.5,100.5 C67.5,97.7385763 65.2614237,95.5 62.5,95.5 C59.7385763,95.5 57.5,97.7385763 57.5,100.5 C57.5,103.261424 59.7385763,105.5 62.5,105.5 Z M47.5,105.5 C50.2614237,105.5 52.5,103.261424 52.5,100.5 C52.5,97.7385763 50.2614237,95.5 47.5,95.5 C44.7385763,95.5 42.5,97.7385763 42.5,100.5 C42.5,103.261424 44.7385763,105.5 47.5,105.5 Z" id="Combined-Shape"></path>
            </g>
        </g>
        <g id="chit-number" transform="translate(300.500000, 300.500000)" fill="#000000">
            <g id="chit">
                <path d="M62.5,125 C27.9822031,125 0,97.0177969 0,62.5 C0,27.9822031 27.9822031,0 62.5,0 C97.0177969,0 125,27.9822031 125,62.5 C125,97.0177969 97.0177969,125 62.5,125 Z M82.3398438,72.8125 L82.3398438,64.1015625 L75.9335938,64.1015625 L75.9335938,28.7109375 L63.4335938,28.7109375 L42.6132812,63.0859375 L42.6132812,72.8125 L65.0351562,72.8125 L65.0351562,85 L75.9335938,85 L75.9335938,72.8125 L82.3398438,72.8125 Z M65.0351562,64.1015625 L50.8554688,64.1015625 L65.0351562,39.6484375 L65.0351562,64.1015625 Z M77.5,105.5 C80.2614237,105.5 82.5,103.261424 82.5,100.5 C82.5,97.7385763 80.2614237,95.5 77.5,95.5 C74.7385763,95.5 72.5,97.7385763 72.5,100.5 C72.5,103.261424 74.7385763,105.5 77.5,105.5 Z M62.5,105.5 C65.2614237,105.5 67.5,103.261424 67.5,100.5 C67.5,97.7385763 65.2614237,95.5 62.5,95.5 C59.7385763,95.5 57.5,97.7385763 57.5,100.5 C57.5,103.261424 59.7385763,105.5 62.5,105.5 Z M47.5,105.5 C50.2614237,105.5 52.5,103.261424 52.5,100.5 C52.5,97.7385763 50.2614237,95.5 47.5,95.5 C44.7385763,95.5 42.5,97.7385763 42.5,100.5 C42.5,103.261424 44.7385763,105.5 47.5,105.5 Z" id="Combined-Shape"></path>
            </g>
        </g>
        <g id="chit-number" transform="translate(150.500000, 150.500000)" fill="#000000">
            <g id="chit">
                <path d="M62.5,125 C27.9822031,125 0,97.0177969 0,62.5 C0,27.9822031 27.9822031,0 62.5,0 C97.0177969,0 125,27.9822031 125,62.5 C125,97.0177969 97.0177969,125 62.5,125 Z M53.7070312,69.84375 L42.6132812,69.84375 C43.0039082,75.1562766 44.9309723,79.257798 48.3945312,82.1484375 C51.8580902,85.039077 56.2851293,86.484375 61.6757812,86.484375 C68.368523,86.484375 73.3945145,84.4271039 76.7539062,80.3125 C80.113298,76.1978961 81.7929688,71.5234637 81.7929688,66.2890625 C81.7929688,60.2734074 80.0481945,55.6901199 76.5585938,52.5390625 C73.068993,49.3880051 68.9804922,47.8125 64.2929688,47.8125 C61.9752488,47.8125 60.0091227,48.1119762 58.3945312,48.7109375 C57.4309848,49.0755227 56.0898523,49.8177027 54.3710938,50.9375 L56.4023438,38.5546875 L79.5664062,38.5546875 L79.5664062,29.1015625 L48.3554688,29.1015625 L44.3710938,60.390625 L54.3710938,60.859375 C55.2565148,59.1666582 56.5716059,58.0078156 58.3164062,57.3828125 C59.3059945,57.0442691 60.4778578,56.875 61.8320312,56.875 C64.6966289,56.875 66.8059828,57.8710838 68.1601562,59.8632812 C69.5143297,61.8554787 70.1914062,64.2968605 70.1914062,67.1875 C70.1914062,70.130223 69.4687572,72.5716049 68.0234375,74.5117188 C66.5781178,76.4518326 64.4752742,77.421875 61.7148438,77.421875 C59.3189984,77.421875 57.4961,76.7643295 56.2460938,75.4492188 C54.9960875,74.134108 54.1497418,72.2656371 53.7070312,69.84375 Z M85,105.5 C87.7614237,105.5 90,103.261424 90,100.5 C90,97.7385763 87.7614237,95.5 85,95.5 C82.2385763,95.5 80,97.7385763 80,100.5 C80,103.261424 82.2385763,105.5 85,105.5 Z M70,105.5 C72.7614237,105.5 75,103.261424 75,100.5 C75,97.7385763 72.7614237,95.5 70,95.5 C67.2385763,95.5 65,97.7385763 65,100.5 C65,103.261424 67.2385763,105.5 70,105.5 Z M55,105.5 C57.7614237,105.5 60,103.261424 60,100.5 C60,97.7385763 57.7614237,95.5 55,95.5 C52.2385763,95.5 50,97.7385763 50,100.5 C50,103.261424 52.2385763,105.5 55,105.5 Z M40,105.5 C42.7614237,105.5 45,103.261424 45,100.5 C45,97.7385763 42.7614237,95.5 40,95.5 C37.2385763,95.5 35,97.7385763 35,100.5 C35,103.261424 37.2385763,105.5 40,105.5 Z" id="Combined-Shape"></path>
            </g>
        </g>
        <g id="chit-number" transform="translate(150.500000, 300.500000)" fill="#000000">
            <g id="chit">
                <path d="M62.5,125 C27.9822031,125 0,97.0177969 0,62.5 C0,27.9822031 27.9822031,0 62.5,0 C97.0177969,0 125,27.9822031 125,62.5 C125,97.0177969 97.0177969,125 62.5,125 Z M53.7070312,69.84375 L42.6132812,69.84375 C43.0039082,75.1562766 44.9309723,79.257798 48.3945312,82.1484375 C51.8580902,85.039077 56.2851293,86.484375 61.6757812,86.484375 C68.368523,86.484375 73.3945145,84.4271039 76.7539062,80.3125 C80.113298,76.1978961 81.7929688,71.5234637 81.7929688,66.2890625 C81.7929688,60.2734074 80.0481945,55.6901199 76.5585938,52.5390625 C73.068993,49.3880051 68.9804922,47.8125 64.2929688,47.8125 C61.9752488,47.8125 60.0091227,48.1119762 58.3945312,48.7109375 C57.4309848,49.0755227 56.0898523,49.8177027 54.3710938,50.9375 L56.4023438,38.5546875 L79.5664062,38.5546875 L79.5664062,29.1015625 L48.3554688,29.1015625 L44.3710938,60.390625 L54.3710938,60.859375 C55.2565148,59.1666582 56.5716059,58.0078156 58.3164062,57.3828125 C59.3059945,57.0442691 60.4778578,56.875 61.8320312,56.875 C64.6966289,56.875 66.8059828,57.8710838 68.1601562,59.8632812 C69.5143297,61.8554787 70.1914062,64.2968605 70.1914062,67.1875 C70.1914062,70.130223 69.4687572,72.5716049 68.0234375,74.5117188 C66.5781178,76.4518326 64.4752742,77.421875 61.7148438,77.421875 C59.3189984,77.421875 57.4961,76.7643295 56.2460938,75.4492188 C54.9960875,74.134108 54.1497418,72.2656371 53.7070312,69.84375 Z M85,105.5 C87.7614237,105.5 90,103.261424 90,100.5 C90,97.7385763 87.7614237,95.5 85,95.5 C82.2385763,95.5 80,97.7385763 80,100.5 C80,103.261424 82.2385763,105.5 85,105.5 Z M70,105.5 C72.7614237,105.5 75,103.261424 75,100.5 C75,97.7385763 72.7614237,95.5 70,95.5 C67.2385763,95.5 65,97.7385763 65,100.5 C65,103.261424 67.2385763,105.5 70,105.5 Z M55,105.5 C57.7614237,105.5 60,103.261424 60,100.5 C60,97.7385763 57.7614237,95.5 55,95.5 C52.2385763,95.5 50,97.7385763 50,100.5 C50,103.261424 52.2385763,105.5 55,105.5 Z M40,105.5 C42.7614237,105.5 45,103.261424 45,100.5 C45,97.7385763 42.7614237,95.5 40,95.5 C37.2385763,95.5 35,97.7385763 35,100.5 C35,103.261424 37.2385763,105.5 40,105.5 Z" id="Combined-Shape"></path>
            </g>
        </g>
        <g id="chit-number" transform="translate(0.500000, 150.500000)" fill="#000000">
            <g id="chit">
                <path d="M62.5,125 C27.9822031,125 0,97.0177969 0,62.5 C0,27.9822031 27.9822031,0 62.5,0 C97.0177969,0 125,27.9822031 125,62.5 C125,97.0177969 97.0177969,125 62.5,125 Z M54.1757812,67.0703125 C54.1757812,63.294252 55.2695203,60.5599043 57.4570312,58.8671875 C58.9153719,57.7213484 60.5950426,57.1484375 62.4960938,57.1484375 C64.8398555,57.1484375 66.8190023,58.027335 68.4335938,59.7851562 C70.0481852,61.5429775 70.8554688,64.0755043 70.8554688,67.3828125 C70.8554688,70.3515773 70.1458404,72.7669178 68.7265625,74.6289062 C67.3072846,76.4908947 65.3606895,77.421875 62.8867188,77.421875 C60.3606645,77.421875 58.277352,76.458343 56.6367188,74.53125 C54.9960855,72.604157 54.1757812,70.1172027 54.1757812,67.0703125 Z M69.8398438,42.6171875 L80.9335938,42.6171875 C80.5429668,38.1379984 78.7851719,34.5507947 75.6601562,31.8554688 C72.5351406,29.1601428 68.3424742,27.8125 63.0820312,27.8125 C59.4361797,27.8125 56.3047006,28.645825 53.6875,30.3125 C51.0702994,31.979175 48.9544352,34.1796738 47.3398438,36.9140625 C45.4648344,40.1172035 44.2018262,44.1275801 43.5507812,48.9453125 C43.1861961,51.6536594 43.0039062,55.1692492 43.0039062,59.4921875 C43.0039062,66.862016 44.3189973,72.8775809 46.9492188,77.5390625 C50.3346523,83.502634 55.5950164,86.484375 62.7304688,86.484375 C69.371127,86.484375 74.2669113,84.466166 77.4179688,80.4296875 C80.5690262,76.393209 82.1445312,71.7317973 82.1445312,66.4453125 C82.1445312,61.1327859 80.5364744,56.7708504 77.3203125,53.359375 C74.1041506,49.9478996 69.983098,48.2421875 64.9570312,48.2421875 C62.6132695,48.2421875 60.529957,48.6197879 58.7070312,49.375 C56.8841055,50.1302121 55.282559,51.3281168 53.9023438,52.96875 C54.2148453,48.5937281 54.7877563,45.2864695 55.6210938,43.046875 C57.1575598,38.9843547 59.735659,36.953125 63.3554688,36.953125 C65.7773559,36.953125 67.5872336,37.8385328 68.7851562,39.609375 C69.4882848,40.7031305 69.8398438,41.7057246 69.8398438,42.6171875 Z M92.5,105.5 C95.2614237,105.5 97.5,103.261424 97.5,100.5 C97.5,97.7385763 95.2614237,95.5 92.5,95.5 C89.7385763,95.5 87.5,97.7385763 87.5,100.5 C87.5,103.261424 89.7385763,105.5 92.5,105.5 Z M77.5,105.5 C80.2614237,105.5 82.5,103.261424 82.5,100.5 C82.5,97.7385763 80.2614237,95.5 77.5,95.5 C74.7385763,95.5 72.5,97.7385763 72.5,100.5 C72.5,103.261424 74.7385763,105.5 77.5,105.5 Z M62.5,105.5 C65.2614237,105.5 67.5,103.261424 67.5,100.5 C67.5,97.7385763 65.2614237,95.5 62.5,95.5 C59.7385763,95.5 57.5,97.7385763 57.5,100.5 C57.5,103.261424 59.7385763,105.5 62.5,105.5 Z M47.5,105.5 C50.2614237,105.5 52.5,103.261424 52.5,100.5 C52.5,97.7385763 50.2614237,95.5 47.5,95.5 C44.7385763,95.5 42.5,97.7385763 42.5,100.5 C42.5,103.261424 44.7385763,105.5 47.5,105.5 Z M32.5,105.5 C35.2614237,105.5 37.5,103.261424 37.5,100.5 C37.5,97.7385763 35.2614237,95.5 32.5,95.5 C29.7385763,95.5 27.5,97.7385763 27.5,100.5 C27.5,103.261424 29.7385763,105.5 32.5,105.5 Z" id="Combined-Shape"></path>
            </g>
        </g>
        <g id="chit-number" transform="translate(0.500000, 300.500000)" fill="#000000">
            <g id="chit">
                <path d="M62.5,125 C27.9822031,125 0,97.0177969 0,62.5 C0,27.9822031 27.9822031,0 62.5,0 C97.0177969,0 125,27.9822031 125,62.5 C125,97.0177969 97.0177969,125 62.5,125 Z M54.1757812,67.0703125 C54.1757812,63.294252 55.2695203,60.5599043 57.4570312,58.8671875 C58.9153719,57.7213484 60.5950426,57.1484375 62.4960938,57.1484375 C64.8398555,57.1484375 66.8190023,58.027335 68.4335938,59.7851562 C70.0481852,61.5429775 70.8554688,64.0755043 70.8554688,67.3828125 C70.8554688,70.3515773 70.1458404,72.7669178 68.7265625,74.6289062 C67.3072846,76.4908947 65.3606895,77.421875 62.8867188,77.421875 C60.3606645,77.421875 58.277352,76.458343 56.6367188,74.53125 C54.9960855,72.604157 54.1757812,70.1172027 54.1757812,67.0703125 Z M69.8398438,42.6171875 L80.9335938,42.6171875 C80.5429668,38.1379984 78.7851719,34.5507947 75.6601562,31.8554688 C72.5351406,29.1601428 68.3424742,27.8125 63.0820312,27.8125 C59.4361797,27.8125 56.3047006,28.645825 53.6875,30.3125 C51.0702994,31.979175 48.9544352,34.1796738 47.3398438,36.9140625 C45.4648344,40.1172035 44.2018262,44.1275801 43.5507812,48.9453125 C43.1861961,51.6536594 43.0039062,55.1692492 43.0039062,59.4921875 C43.0039062,66.862016 44.3189973,72.8775809 46.9492188,77.5390625 C50.3346523,83.502634 55.5950164,86.484375 62.7304688,86.484375 C69.371127,86.484375 74.2669113,84.466166 77.4179688,80.4296875 C80.5690262,76.393209 82.1445312,71.7317973 82.1445312,66.4453125 C82.1445312,61.1327859 80.5364744,56.7708504 77.3203125,53.359375 C74.1041506,49.9478996 69.983098,48.2421875 64.9570312,48.2421875 C62.6132695,48.2421875 60.529957,48.6197879 58.7070312,49.375 C56.8841055,50.1302121 55.282559,51.3281168 53.9023438,52.96875 C54.2148453,48.5937281 54.7877563,45.2864695 55.6210938,43.046875 C57.1575598,38.9843547 59.735659,36.953125 63.3554688,36.953125 C65.7773559,36.953125 67.5872336,37.8385328 68.7851562,39.609375 C69.4882848,40.7031305 69.8398438,41.7057246 69.8398438,42.6171875 Z M92.5,105.5 C95.2614237,105.5 97.5,103.261424 97.5,100.5 C97.5,97.7385763 95.2614237,95.5 92.5,95.5 C89.7385763,95.5 87.5,97.7385763 87.5,100.5 C87.5,103.261424 89.7385763,105.5 92.5,105.5 Z M77.5,105.5 C80.2614237,105.5 82.5,103.261424 82.5,100.5 C82.5,97.7385763 80.2614237,95.5 77.5,95.5 C74.7385763,95.5 72.5,97.7385763 72.5,100.5 C72.5,103.261424 74.7385763,105.5 77.5,105.5 Z M62.5,105.5 C65.2614237,105.5 67.5,103.261424 67.5,100.5 C67.5,97.7385763 65.2614237,95.5 62.5,95.5 C59.7385763,95.5 57.5,97.7385763 57.5,100.5 C57.5,103.261424 59.7385763,105.5 62.5,105.5 Z M47.5,105.5 C50.2614237,105.5 52.5,103.261424 52.5,100.5 C52.5,97.7385763 50.2614237,95.5 47.5,95.5 C44.7385763,95.5 42.5,97.7385763 42.5,100.5 C42.5,103.261424 44.7385763,105.5 47.5,105.5 Z M32.5,105.5 C35.2614237,105.5 37.5,103.261424 37.5,100.5 C37.5,97.7385763 35.2614237,95.5 32.5,95.5 C29.7385763,95.5 27.5,97.7385763 27.5,100.5 C27.5,103.261424 29.7385763,105.5 32.5,105.5 Z" id="Combined-Shape"></path>
            </g>
        </g>
        <g id="chit-number" transform="translate(0.500000, 0.500000)" fill="#000000">
            <g id="chit">
                <path d="M62.5,125 C27.9822031,125 0,97.0177969 0,62.5 C0,27.9822031 27.9822031,0 62.5,0 C97.0177969,0 125,27.9822031 125,62.5 C125,97.0177969 97.0177969,125 62.5,125 Z M54.1757812,67.0703125 C54.1757812,63.294252 55.2695203,60.5599043 57.4570312,58.8671875 C58.9153719,57.7213484 60.5950426,57.1484375 62.4960938,57.1484375 C64.8398555,57.1484375 66.8190023,58.027335 68.4335938,59.7851562 C70.0481852,61.5429775 70.8554688,64.0755043 70.8554688,67.3828125 C70.8554688,70.3515773 70.1458404,72.7669178 68.7265625,74.6289062 C67.3072846,76.4908947 65.3606895,77.421875 62.8867188,77.421875 C60.3606645,77.421875 58.277352,76.458343 56.6367188,74.53125 C54.9960855,72.604157 54.1757812,70.1172027 54.1757812,67.0703125 Z M69.8398438,42.6171875 L80.9335938,42.6171875 C80.5429668,38.1379984 78.7851719,34.5507947 75.6601562,31.8554688 C72.5351406,29.1601428 68.3424742,27.8125 63.0820312,27.8125 C59.4361797,27.8125 56.3047006,28.645825 53.6875,30.3125 C51.0702994,31.979175 48.9544352,34.1796738 47.3398438,36.9140625 C45.4648344,40.1172035 44.2018262,44.1275801 43.5507812,48.9453125 C43.1861961,51.6536594 43.0039062,55.1692492 43.0039062,59.4921875 C43.0039062,66.862016 44.3189973,72.8775809 46.9492188,77.5390625 C50.3346523,83.502634 55.5950164,86.484375 62.7304688,86.484375 C69.371127,86.484375 74.2669113,84.466166 77.4179688,80.4296875 C80.5690262,76.393209 82.1445312,71.7317973 82.1445312,66.4453125 C82.1445312,61.1327859 80.5364744,56.7708504 77.3203125,53.359375 C74.1041506,49.9478996 69.983098,48.2421875 64.9570312,48.2421875 C62.6132695,48.2421875 60.529957,48.6197879 58.7070312,49.375 C56.8841055,50.1302121 55.282559,51.3281168 53.9023438,52.96875 C54.2148453,48.5937281 54.7877563,45.2864695 55.6210938,43.046875 C57.1575598,38.9843547 59.735659,36.953125 63.3554688,36.953125 C65.7773559,36.953125 67.5872336,37.8385328 68.7851562,39.609375 C69.4882848,40.7031305 69.8398438,41.7057246 69.8398438,42.6171875 Z M92.5,105.5 C95.2614237,105.5 97.5,103.261424 97.5,100.5 C97.5,97.7385763 95.2614237,95.5 92.5,95.5 C89.7385763,95.5 87.5,97.7385763 87.5,100.5 C87.5,103.261424 89.7385763,105.5 92.5,105.5 Z M77.5,105.5 C80.2614237,105.5 82.5,103.261424 82.5,100.5 C82.5,97.7385763 80.2614237,95.5 77.5,95.5 C74.7385763,95.5 72.5,97.7385763 72.5,100.5 C72.5,103.261424 74.7385763,105.5 77.5,105.5 Z M62.5,105.5 C65.2614237,105.5 67.5,103.261424 67.5,100.5 C67.5,97.7385763 65.2614237,95.5 62.5,95.5 C59.7385763,95.5 57.5,97.7385763 57.5,100.5 C57.5,103.261424 59.7385763,105.5 62.5,105.5 Z M47.5,105.5 C50.2614237,105.5 52.5,103.261424 52.5,100.5 C52.5,97.7385763 50.2614237,95.5 47.5,95.5 C44.7385763,95.5 42.5,97.7385763 42.5,100.5 C42.5,103.261424 44.7385763,105.5 47.5,105.5 Z M32.5,105.5 C35.2614237,105.5 37.5,103.261424 37.5,100.5 C37.5,97.7385763 35.2614237,95.5 32.5,95.5 C29.7385763,95.5 27.5,97.7385763 27.5,100.5 C27.5,103.261424 29.7385763,105.5 32.5,105.5 Z" id="Combined-Shape"></path>
            </g>
        </g>
        <g id="chit-number" transform="translate(450.500000, 0.500000)" fill="#000000">
            <g id="chit">
                <path d="M62.5,125 C27.9822031,125 0,97.0177969 0,62.5 C0,27.9822031 27.9822031,0 62.5,0 C97.0177969,0 125,27.9822031 125,62.5 C125,97.0177969 97.0177969,125 62.5,125 Z M53.5507812,67.6171875 L42.6132812,67.6171875 C42.7955738,72.1224184 43.707023,75.7682152 45.3476562,78.5546875 C48.4726719,83.7890887 54.0455328,86.40625 62.0664062,86.40625 C68.5768555,86.40625 73.4921709,84.5898619 76.8125,80.9570312 C80.1328291,77.3242006 81.7929688,73.1120031 81.7929688,68.3203125 C81.7929688,63.762998 80.3737121,60.169284 77.5351562,57.5390625 C75.6341051,55.7942621 74.1757863,54.921875 73.1601562,54.921875 C74.5143297,54.4010391 75.8164,53.4244863 77.0664062,51.9921875 C79.0455828,49.7005094 80.0351562,46.8880375 80.0351562,43.5546875 C80.0351562,38.8411223 78.3750166,35.0846494 75.0546875,32.2851562 C71.7343584,29.4856631 67.3659125,28.0859375 61.9492188,28.0859375 C59.0325375,28.0859375 56.5716246,28.4374965 54.5664062,29.140625 C52.5611879,29.8437535 50.8294344,30.8593684 49.3710938,32.1875 C47.417959,34.0625094 45.9856816,36.1067598 45.0742188,38.3203125 C44.2148395,40.8463668 43.7330734,43.5156109 43.6289062,46.328125 L54.0195312,46.328125 C53.9674477,43.5416527 54.5598896,41.3151125 55.796875,39.6484375 C57.0338604,37.9817625 58.9674348,37.1484375 61.5976562,37.1484375 C63.8893344,37.1484375 65.6666604,37.8255141 66.9296875,39.1796875 C68.1927146,40.5338609 68.8242188,42.2916559 68.8242188,44.453125 C68.8242188,47.786475 67.587252,49.9999945 65.1132812,51.09375 C63.6809824,51.7447949 61.154966,52.0963539 57.5351562,52.1484375 L57.5351562,60.1171875 C61.2330914,60.1171875 63.9413977,60.4687465 65.6601562,61.171875 C68.6810047,62.4218812 70.1914062,64.9088355 70.1914062,68.6328125 C70.1914062,71.4453266 69.3776123,73.6002529 67.75,75.0976562 C66.1223877,76.5950596 64.2148547,77.34375 62.0273438,77.34375 C58.4596176,77.34375 55.9987047,75.9765762 54.6445312,73.2421875 C53.9153609,71.7578051 53.5507812,69.8828238 53.5507812,67.6171875 Z M70,105.5 C72.7614237,105.5 75,103.261424 75,100.5 C75,97.7385763 72.7614237,95.5 70,95.5 C67.2385763,95.5 65,97.7385763 65,100.5 C65,103.261424 67.2385763,105.5 70,105.5 Z M55,105.5 C57.7614237,105.5 60,103.261424 60,100.5 C60,97.7385763 57.7614237,95.5 55,95.5 C52.2385763,95.5 50,97.7385763 50,100.5 C50,103.261424 52.2385763,105.5 55,105.5 Z" id="Combined-Shape"></path>
            </g>
        </g>
        <g id="chit-number" transform="translate(300.500000, 0.500000)" fill="#000000">
            <g id="chit">
                <path d="M62.5,125 C27.9822031,125 0,97.0177969 0,62.5 C0,27.9822031 27.9822031,0 62.5,0 C97.0177969,0 125,27.9822031 125,62.5 C125,97.0177969 97.0177969,125 62.5,125 Z M82.3398438,72.8125 L82.3398438,64.1015625 L75.9335938,64.1015625 L75.9335938,28.7109375 L63.4335938,28.7109375 L42.6132812,63.0859375 L42.6132812,72.8125 L65.0351562,72.8125 L65.0351562,85 L75.9335938,85 L75.9335938,72.8125 L82.3398438,72.8125 Z M65.0351562,64.1015625 L50.8554688,64.1015625 L65.0351562,39.6484375 L65.0351562,64.1015625 Z M77.5,105.5 C80.2614237,105.5 82.5,103.261424 82.5,100.5 C82.5,97.7385763 80.2614237,95.5 77.5,95.5 C74.7385763,95.5 72.5,97.7385763 72.5,100.5 C72.5,103.261424 74.7385763,105.5 77.5,105.5 Z M62.5,105.5 C65.2614237,105.5 67.5,103.261424 67.5,100.5 C67.5,97.7385763 65.2614237,95.5 62.5,95.5 C59.7385763,95.5 57.5,97.7385763 57.5,100.5 C57.5,103.261424 59.7385763,105.5 62.5,105.5 Z M47.5,105.5 C50.2614237,105.5 52.5,103.261424 52.5,100.5 C52.5,97.7385763 50.2614237,95.5 47.5,95.5 C44.7385763,95.5 42.5,97.7385763 42.5,100.5 C42.5,103.261424 44.7385763,105.5 47.5,105.5 Z" id="Combined-Shape"></path>
            </g>
        </g>
        <g id="chit-number" transform="translate(150.500000, 0.500000)" fill="#000000">
            <g id="chit">
                <path d="M62.5,125 C27.9822031,125 0,97.0177969 0,62.5 C0,27.9822031 27.9822031,0 62.5,0 C97.0177969,0 125,27.9822031 125,62.5 C125,97.0177969 97.0177969,125 62.5,125 Z M53.7070312,69.84375 L42.6132812,69.84375 C43.0039082,75.1562766 44.9309723,79.257798 48.3945312,82.1484375 C51.8580902,85.039077 56.2851293,86.484375 61.6757812,86.484375 C68.368523,86.484375 73.3945145,84.4271039 76.7539062,80.3125 C80.113298,76.1978961 81.7929688,71.5234637 81.7929688,66.2890625 C81.7929688,60.2734074 80.0481945,55.6901199 76.5585938,52.5390625 C73.068993,49.3880051 68.9804922,47.8125 64.2929688,47.8125 C61.9752488,47.8125 60.0091227,48.1119762 58.3945312,48.7109375 C57.4309848,49.0755227 56.0898523,49.8177027 54.3710938,50.9375 L56.4023438,38.5546875 L79.5664062,38.5546875 L79.5664062,29.1015625 L48.3554688,29.1015625 L44.3710938,60.390625 L54.3710938,60.859375 C55.2565148,59.1666582 56.5716059,58.0078156 58.3164062,57.3828125 C59.3059945,57.0442691 60.4778578,56.875 61.8320312,56.875 C64.6966289,56.875 66.8059828,57.8710838 68.1601562,59.8632812 C69.5143297,61.8554787 70.1914062,64.2968605 70.1914062,67.1875 C70.1914062,70.130223 69.4687572,72.5716049 68.0234375,74.5117188 C66.5781178,76.4518326 64.4752742,77.421875 61.7148438,77.421875 C59.3189984,77.421875 57.4961,76.7643295 56.2460938,75.4492188 C54.9960875,74.134108 54.1497418,72.2656371 53.7070312,69.84375 Z M85,105.5 C87.7614237,105.5 90,103.261424 90,100.5 C90,97.7385763 87.7614237,95.5 85,95.5 C82.2385763,95.5 80,97.7385763 80,100.5 C80,103.261424 82.2385763,105.5 85,105.5 Z M70,105.5 C72.7614237,105.5 75,103.261424 75,100.5 C75,97.7385763 72.7614237,95.5 70,95.5 C67.2385763,95.5 65,97.7385763 65,100.5 C65,103.261424 67.2385763,105.5 70,105.5 Z M55,105.5 C57.7614237,105.5 60,103.261424 60,100.5 C60,97.7385763 57.7614237,95.5 55,95.5 C52.2385763,95.5 50,97.7385763 50,100.5 C50,103.261424 52.2385763,105.5 55,105.5 Z M40,105.5 C42.7614237,105.5 45,103.261424 45,100.5 C45,97.7385763 42.7614237,95.5 40,95.5 C37.2385763,95.5 35,97.7385763 35,100.5 C35,103.261424 37.2385763,105.5 40,105.5 Z" id="Combined-Shape"></path>
            </g>
        </g>
    </g>
</svg>